solid 1 - Консоль крыла^Самолёт_F22-2
   facet normal 2.223847e-016 7.590375e-017 -1.000000e+000
      outer loop
         vertex -5.000000e+000 1.000000e+000 1.500000e+000
         vertex 5.000000e+000 1.000000e+000 1.500000e+000
         vertex -5.000000e+000 7.000000e-001 1.500000e+000
      endloop
   endfacet
   facet normal 2.223847e-016 7.590375e-017 -1.000000e+000
      outer loop
         vertex -5.000000e+000 7.000000e-001 1.500000e+000
         vertex 5.000000e+000 1.000000e+000 1.500000e+000
         vertex 5.000000e+000 7.000000e-001 1.500000e+000
      endloop
   endfacet
   facet normal -9.848077e-001 9.073474e-018 1.736482e-001
      outer loop
         vertex -3.942039e+000 1.000000e+000 7.500000e+000
         vertex -5.000000e+000 1.000000e+000 1.500000e+000
         vertex -3.942039e+000 7.000000e-001 7.500000e+000
      endloop
   endfacet
   facet normal -9.848077e-001 9.073474e-018 1.736482e-001
      outer loop
         vertex -3.942039e+000 7.000000e-001 7.500000e+000
         vertex -5.000000e+000 1.000000e+000 1.500000e+000
         vertex -5.000000e+000 7.000000e-001 1.500000e+000
      endloop
   endfacet
   facet normal -1.036287e-015 -7.590375e-017 1.000000e+000
      outer loop
         vertex -2.150522e+000 1.000000e+000 7.500000e+000
         vertex -3.942039e+000 1.000000e+000 7.500000e+000
         vertex -2.150522e+000 7.000000e-001 7.500000e+000
      endloop
   endfacet
   facet normal -1.036287e-015 -7.590375e-017 1.000000e+000
      outer loop
         vertex -2.150522e+000 7.000000e-001 7.500000e+000
         vertex -3.942039e+000 1.000000e+000 7.500000e+000
         vertex -3.942039e+000 7.000000e-001 7.500000e+000
      endloop
   endfacet
   facet normal 6.427876e-001 -7.267093e-017 7.660444e-001
      outer loop
         vertex 5.000000e+000 1.000000e+000 1.500000e+000
         vertex -2.150522e+000 1.000000e+000 7.500000e+000
         vertex 5.000000e+000 7.000000e-001 1.500000e+000
      endloop
   endfacet
   facet normal 6.427876e-001 -7.267093e-017 7.660444e-001
      outer loop
         vertex 5.000000e+000 7.000000e-001 1.500000e+000
         vertex -2.150522e+000 1.000000e+000 7.500000e+000
         vertex -2.150522e+000 7.000000e-001 7.500000e+000
      endloop
   endfacet
   facet normal 2.259733e-017 1.000000e+000 7.590375e-017
      outer loop
         vertex -3.942039e+000 1.000000e+000 7.500000e+000
         vertex -2.150522e+000 1.000000e+000 7.500000e+000
         vertex -5.000000e+000 1.000000e+000 1.500000e+000
      endloop
   endfacet
   facet normal 2.259733e-017 1.000000e+000 7.590375e-017
      outer loop
         vertex -5.000000e+000 1.000000e+000 1.500000e+000
         vertex -2.150522e+000 1.000000e+000 7.500000e+000
         vertex 5.000000e+000 1.000000e+000 1.500000e+000
      endloop
   endfacet
   facet normal -2.259733e-017 -1.000000e+000 -7.590375e-017
      outer loop
         vertex -2.150522e+000 7.000000e-001 7.500000e+000
         vertex -3.942039e+000 7.000000e-001 7.500000e+000
         vertex 5.000000e+000 7.000000e-001 1.500000e+000
      endloop
   endfacet
   facet normal -2.259733e-017 -1.000000e+000 -7.590375e-017
      outer loop
         vertex 5.000000e+000 7.000000e-001 1.500000e+000
         vertex -3.942039e+000 7.000000e-001 7.500000e+000
         vertex -5.000000e+000 7.000000e-001 1.500000e+000
      endloop
   endfacet
endsolid