solid 1 - Консоль крыла^Самолёт_F22-1
   facet normal 1.883978e-016 0.000000e+000 1.000000e+000
      outer loop
         vertex -5.000000e+000 7.000000e-001 -1.500000e+000
         vertex 5.000000e+000 7.000000e-001 -1.500000e+000
         vertex -5.000000e+000 1.000000e+000 -1.500000e+000
      endloop
   endfacet
   facet normal 1.883978e-016 0.000000e+000 1.000000e+000
      outer loop
         vertex -5.000000e+000 1.000000e+000 -1.500000e+000
         vertex 5.000000e+000 7.000000e-001 -1.500000e+000
         vertex 5.000000e+000 1.000000e+000 -1.500000e+000
      endloop
   endfacet
   facet normal -9.848077e-001 0.000000e+000 -1.736482e-001
      outer loop
         vertex -3.942039e+000 7.000000e-001 -7.500000e+000
         vertex -5.000000e+000 7.000000e-001 -1.500000e+000
         vertex -3.942039e+000 1.000000e+000 -7.500000e+000
      endloop
   endfacet
   facet normal -9.848077e-001 0.000000e+000 -1.736482e-001
      outer loop
         vertex -3.942039e+000 1.000000e+000 -7.500000e+000
         vertex -5.000000e+000 7.000000e-001 -1.500000e+000
         vertex -5.000000e+000 1.000000e+000 -1.500000e+000
      endloop
   endfacet
   facet normal -1.002300e-015 0.000000e+000 -1.000000e+000
      outer loop
         vertex -2.150522e+000 7.000000e-001 -7.500000e+000
         vertex -3.942039e+000 7.000000e-001 -7.500000e+000
         vertex -2.150522e+000 1.000000e+000 -7.500000e+000
      endloop
   endfacet
   facet normal -1.002300e-015 0.000000e+000 -1.000000e+000
      outer loop
         vertex -2.150522e+000 1.000000e+000 -7.500000e+000
         vertex -3.942039e+000 7.000000e-001 -7.500000e+000
         vertex -3.942039e+000 1.000000e+000 -7.500000e+000
      endloop
   endfacet
   facet normal 6.427876e-001 0.000000e+000 -7.660444e-001
      outer loop
         vertex 5.000000e+000 7.000000e-001 -1.500000e+000
         vertex -2.150522e+000 7.000000e-001 -7.500000e+000
         vertex 5.000000e+000 1.000000e+000 -1.500000e+000
      endloop
   endfacet
   facet normal 6.427876e-001 0.000000e+000 -7.660444e-001
      outer loop
         vertex 5.000000e+000 1.000000e+000 -1.500000e+000
         vertex -2.150522e+000 7.000000e-001 -7.500000e+000
         vertex -2.150522e+000 1.000000e+000 -7.500000e+000
      endloop
   endfacet
   facet normal 0.000000e+000 -1.000000e+000 0.000000e+000
      outer loop
         vertex -3.942039e+000 7.000000e-001 -7.500000e+000
         vertex -2.150522e+000 7.000000e-001 -7.500000e+000
         vertex -5.000000e+000 7.000000e-001 -1.500000e+000
      endloop
   endfacet
   facet normal 0.000000e+000 -1.000000e+000 0.000000e+000
      outer loop
         vertex -5.000000e+000 7.000000e-001 -1.500000e+000
         vertex -2.150522e+000 7.000000e-001 -7.500000e+000
         vertex 5.000000e+000 7.000000e-001 -1.500000e+000
      endloop
   endfacet
   facet normal 0.000000e+000 1.000000e+000 0.000000e+000
      outer loop
         vertex -2.150522e+000 1.000000e+000 -7.500000e+000
         vertex -3.942039e+000 1.000000e+000 -7.500000e+000
         vertex 5.000000e+000 1.000000e+000 -1.500000e+000
      endloop
   endfacet
   facet normal 0.000000e+000 1.000000e+000 0.000000e+000
      outer loop
         vertex 5.000000e+000 1.000000e+000 -1.500000e+000
         vertex -3.942039e+000 1.000000e+000 -7.500000e+000
         vertex -5.000000e+000 1.000000e+000 -1.500000e+000
      endloop
   endfacet
endsolid