solid 1 - Ôþçåëÿæ^Ñàìîë¸ò_F22-1
   facet normal 1.000000e+000 0.000000e+000 -1.076208e-017
      outer loop
         vertex 9.000000e+000 -1.000000e+000 -5.000000e-001
         vertex 9.000000e+000 -2.000000e-001 -5.000000e-001
         vertex 9.000000e+000 -1.000000e+000 5.000000e-001
      endloop
   endfacet
   facet normal 1.000000e+000 0.000000e+000 -1.076208e-017
      outer loop
         vertex 9.000000e+000 -1.000000e+000 5.000000e-001
         vertex 9.000000e+000 -2.000000e-001 -5.000000e-001
         vertex 9.000000e+000 -2.000000e-001 5.000000e-001
      endloop
   endfacet
   facet normal 2.873479e-001 9.578263e-001 -3.092462e-018
      outer loop
         vertex 5.000000e+000 1.000000e+000 1.500000e+000
         vertex 9.000000e+000 -2.000000e-001 5.000000e-001
         vertex 5.000000e+000 1.000000e+000 -1.500000e+000
      endloop
   endfacet
   facet normal 2.873479e-001 9.578263e-001 -3.092462e-018
      outer loop
         vertex 5.000000e+000 1.000000e+000 -1.500000e+000
         vertex 9.000000e+000 -2.000000e-001 5.000000e-001
         vertex 9.000000e+000 -2.000000e-001 -5.000000e-001
      endloop
   endfacet
   facet normal 2.425356e-001 -1.077075e-016 9.701425e-001
      outer loop
         vertex 5.000000e+000 -1.000000e+000 1.500000e+000
         vertex 9.000000e+000 -1.000000e+000 5.000000e-001
         vertex 5.000000e+000 1.000000e+000 1.500000e+000
      endloop
   endfacet
   facet normal 2.425356e-001 -1.077075e-016 9.701425e-001
      outer loop
         vertex 5.000000e+000 1.000000e+000 1.500000e+000
         vertex 9.000000e+000 -1.000000e+000 5.000000e-001
         vertex 9.000000e+000 -2.000000e-001 5.000000e-001
      endloop
   endfacet
   facet normal 2.425356e-001 -1.077075e-016 -9.701425e-001
      outer loop
         vertex 5.000000e+000 1.000000e+000 -1.500000e+000
         vertex 9.000000e+000 -2.000000e-001 -5.000000e-001
         vertex 5.000000e+000 -1.000000e+000 -1.500000e+000
      endloop
   endfacet
   facet normal 2.425356e-001 -1.077075e-016 -9.701425e-001
      outer loop
         vertex 5.000000e+000 -1.000000e+000 -1.500000e+000
         vertex 9.000000e+000 -2.000000e-001 -5.000000e-001
         vertex 9.000000e+000 -1.000000e+000 -5.000000e-001
      endloop
   endfacet
   facet normal 0.000000e+000 -1.000000e+000 0.000000e+000
      outer loop
         vertex -5.000000e+000 -1.000000e+000 1.500000e+000
         vertex -5.000000e+000 -1.000000e+000 -1.500000e+000
         vertex 5.000000e+000 -1.000000e+000 1.500000e+000
      endloop
   endfacet
   facet normal 0.000000e+000 -1.000000e+000 0.000000e+000
      outer loop
         vertex 5.000000e+000 -1.000000e+000 1.500000e+000
         vertex -5.000000e+000 -1.000000e+000 -1.500000e+000
         vertex 5.000000e+000 -1.000000e+000 -1.500000e+000
      endloop
   endfacet
   facet normal 0.000000e+000 -1.000000e+000 0.000000e+000
      outer loop
         vertex 5.000000e+000 -1.000000e+000 1.500000e+000
         vertex 5.000000e+000 -1.000000e+000 -1.500000e+000
         vertex 9.000000e+000 -1.000000e+000 5.000000e-001
      endloop
   endfacet
   facet normal 0.000000e+000 -1.000000e+000 0.000000e+000
      outer loop
         vertex 9.000000e+000 -1.000000e+000 5.000000e-001
         vertex 5.000000e+000 -1.000000e+000 -1.500000e+000
         vertex 9.000000e+000 -1.000000e+000 -5.000000e-001
      endloop
   endfacet
   facet normal -1.439889e-016 -1.110223e-016 -1.000000e+000
      outer loop
         vertex -5.000000e+000 1.000000e+000 -1.500000e+000
         vertex 5.000000e+000 1.000000e+000 -1.500000e+000
         vertex -5.000000e+000 -1.000000e+000 -1.500000e+000
      endloop
   endfacet
   facet normal -1.439889e-016 -1.110223e-016 -1.000000e+000
      outer loop
         vertex -5.000000e+000 -1.000000e+000 -1.500000e+000
         vertex 5.000000e+000 1.000000e+000 -1.500000e+000
         vertex 5.000000e+000 -1.000000e+000 -1.500000e+000
      endloop
   endfacet
   facet normal 1.332268e-016 1.000000e+000 -1.433798e-033
      outer loop
         vertex -5.000000e+000 1.000000e+000 1.500000e+000
         vertex 5.000000e+000 1.000000e+000 1.500000e+000
         vertex -5.000000e+000 1.000000e+000 -1.500000e+000
      endloop
   endfacet
   facet normal 1.332268e-016 1.000000e+000 -1.433798e-033
      outer loop
         vertex -5.000000e+000 1.000000e+000 -1.500000e+000
         vertex 5.000000e+000 1.000000e+000 1.500000e+000
         vertex 5.000000e+000 1.000000e+000 -1.500000e+000
      endloop
   endfacet
   facet normal -1.224647e-016 -1.110223e-016 1.000000e+000
      outer loop
         vertex -5.000000e+000 -1.000000e+000 1.500000e+000
         vertex 5.000000e+000 -1.000000e+000 1.500000e+000
         vertex -5.000000e+000 1.000000e+000 1.500000e+000
      endloop
   endfacet
   facet normal -1.224647e-016 -1.110223e-016 1.000000e+000
      outer loop
         vertex -5.000000e+000 1.000000e+000 1.500000e+000
         vertex 5.000000e+000 -1.000000e+000 1.500000e+000
         vertex 5.000000e+000 1.000000e+000 1.500000e+000
      endloop
   endfacet
   facet normal -1.000000e+000 0.000000e+000 1.076208e-017
      outer loop
         vertex -1.000000e+001 9.000000e-001 -1.000000e+000
         vertex -1.000000e+001 1.000000e-001 -1.000000e+000
         vertex -1.000000e+001 9.000000e-001 1.000000e+000
      endloop
   endfacet
   facet normal -1.000000e+000 0.000000e+000 1.076208e-017
      outer loop
         vertex -1.000000e+001 9.000000e-001 1.000000e+000
         vertex -1.000000e+001 1.000000e-001 -1.000000e+000
         vertex -1.000000e+001 1.000000e-001 1.000000e+000
      endloop
   endfacet
   facet normal -9.950371e-002 -1.104713e-016 9.950372e-001
      outer loop
         vertex -5.000000e+000 1.000000e+000 1.500000e+000
         vertex -1.000000e+001 9.000000e-001 1.000000e+000
         vertex -5.000000e+000 -1.000000e+000 1.500000e+000
      endloop
   endfacet
   facet normal -9.950371e-002 -1.104713e-016 9.950372e-001
      outer loop
         vertex -5.000000e+000 -1.000000e+000 1.500000e+000
         vertex -1.000000e+001 9.000000e-001 1.000000e+000
         vertex -1.000000e+001 1.000000e-001 1.000000e+000
      endloop
   endfacet
   facet normal -1.999600e-002 9.998001e-001 2.151986e-019
      outer loop
         vertex -5.000000e+000 1.000000e+000 -1.500000e+000
         vertex -1.000000e+001 9.000000e-001 -1.000000e+000
         vertex -5.000000e+000 1.000000e+000 1.500000e+000
      endloop
   endfacet
   facet normal -1.999600e-002 9.998001e-001 2.151986e-019
      outer loop
         vertex -5.000000e+000 1.000000e+000 1.500000e+000
         vertex -1.000000e+001 9.000000e-001 -1.000000e+000
         vertex -1.000000e+001 9.000000e-001 1.000000e+000
      endloop
   endfacet
   facet normal -2.148618e-001 -9.766445e-001 2.312360e-018
      outer loop
         vertex -5.000000e+000 -1.000000e+000 1.500000e+000
         vertex -1.000000e+001 1.000000e-001 1.000000e+000
         vertex -5.000000e+000 -1.000000e+000 -1.500000e+000
      endloop
   endfacet
   facet normal -2.148618e-001 -9.766445e-001 2.312360e-018
      outer loop
         vertex -5.000000e+000 -1.000000e+000 -1.500000e+000
         vertex -1.000000e+001 1.000000e-001 1.000000e+000
         vertex -1.000000e+001 1.000000e-001 -1.000000e+000
      endloop
   endfacet
   facet normal -9.950371e-002 -1.104713e-016 -9.950372e-001
      outer loop
         vertex -5.000000e+000 -1.000000e+000 -1.500000e+000
         vertex -1.000000e+001 1.000000e-001 -1.000000e+000
         vertex -5.000000e+000 1.000000e+000 -1.500000e+000
      endloop
   endfacet
   facet normal -9.950371e-002 -1.104713e-016 -9.950372e-001
      outer loop
         vertex -5.000000e+000 1.000000e+000 -1.500000e+000
         vertex -1.000000e+001 1.000000e-001 -1.000000e+000
         vertex -1.000000e+001 9.000000e-001 -1.000000e+000
      endloop
   endfacet
endsolid