solid СамолётS - Двигатель^СамолётS-1
   facet normal 1.982541e-016 0.000000e+000 1.000000e+000
      outer loop
         vertex 1.301062e-001 -2.000000e-002 7.999988e-002
         vertex 1.248783e-001 -2.045738e-002 7.999988e-002
         vertex 1.198092e-001 -7.839669e-002 7.999988e-002
      endloop
   endfacet
   facet normal 1.982541e-016 0.000000e+000 1.000000e+000
      outer loop
         vertex 1.198092e-001 -7.839669e-002 7.999988e-002
         vertex 1.248783e-001 -2.045738e-002 7.999988e-002
         vertex 1.198092e-001 -2.181562e-002 7.999988e-002
      endloop
   endfacet
   facet normal 1.982541e-016 0.000000e+000 1.000000e+000
      outer loop
         vertex 1.198092e-001 -7.839669e-002 7.999988e-002
         vertex 1.198092e-001 -2.181562e-002 7.999988e-002
         vertex 1.150531e-001 -7.617886e-002 7.999988e-002
      endloop
   endfacet
   facet normal 1.982541e-016 0.000000e+000 1.000000e+000
      outer loop
         vertex 1.248783e-001 -7.975493e-002 7.999988e-002
         vertex 1.404031e-001 -2.181562e-002 7.999988e-002
         vertex 1.198092e-001 -7.839669e-002 7.999988e-002
      endloop
   endfacet
   facet normal 1.982541e-016 0.000000e+000 1.000000e+000
      outer loop
         vertex 1.198092e-001 -7.839669e-002 7.999988e-002
         vertex 1.404031e-001 -2.181562e-002 7.999988e-002
         vertex 1.353340e-001 -2.045738e-002 7.999988e-002
      endloop
   endfacet
   facet normal 1.982541e-016 0.000000e+000 1.000000e+000
      outer loop
         vertex 1.198092e-001 -7.839669e-002 7.999988e-002
         vertex 1.353340e-001 -2.045738e-002 7.999988e-002
         vertex 1.301062e-001 -2.000000e-002 7.999988e-002
      endloop
   endfacet
   facet normal 1.982541e-016 0.000000e+000 1.000000e+000
      outer loop
         vertex 1.070435e-001 -6.945802e-002 7.999988e-002
         vertex 1.107543e-001 -7.316881e-002 7.999988e-002
         vertex 1.150531e-001 -7.617886e-002 7.999988e-002
      endloop
   endfacet
   facet normal 1.982541e-016 0.000000e+000 1.000000e+000
      outer loop
         vertex 1.248783e-001 -7.975493e-002 7.999988e-002
         vertex 1.301062e-001 -8.021232e-002 7.999988e-002
         vertex 1.404031e-001 -2.181562e-002 7.999988e-002
      endloop
   endfacet
   facet normal 1.982541e-016 0.000000e+000 1.000000e+000
      outer loop
         vertex 1.404031e-001 -2.181562e-002 7.999988e-002
         vertex 1.301062e-001 -8.021232e-002 7.999988e-002
         vertex 1.353340e-001 -7.975493e-002 7.999988e-002
      endloop
   endfacet
   facet normal 1.982541e-016 0.000000e+000 1.000000e+000
      outer loop
         vertex 1.404031e-001 -2.181562e-002 7.999988e-002
         vertex 1.353340e-001 -7.975493e-002 7.999988e-002
         vertex 1.404031e-001 -7.839669e-002 7.999988e-002
      endloop
   endfacet
   facet normal 1.982541e-016 0.000000e+000 1.000000e+000
      outer loop
         vertex 1.404031e-001 -7.839669e-002 7.999988e-002
         vertex 1.451592e-001 -7.617886e-002 7.999988e-002
         vertex 1.404031e-001 -2.181562e-002 7.999988e-002
      endloop
   endfacet
   facet normal 1.982541e-016 0.000000e+000 1.000000e+000
      outer loop
         vertex 1.404031e-001 -2.181562e-002 7.999988e-002
         vertex 1.451592e-001 -7.617886e-002 7.999988e-002
         vertex 1.494580e-001 -7.316881e-002 7.999988e-002
      endloop
   endfacet
   facet normal 1.982541e-016 0.000000e+000 1.000000e+000
      outer loop
         vertex 1.404031e-001 -2.181562e-002 7.999988e-002
         vertex 1.494580e-001 -7.316881e-002 7.999988e-002
         vertex 1.531688e-001 -6.945802e-002 7.999988e-002
      endloop
   endfacet
   facet normal 1.982541e-016 0.000000e+000 1.000000e+000
      outer loop
         vertex 1.150531e-001 -7.617886e-002 7.999988e-002
         vertex 1.198092e-001 -2.181562e-002 7.999988e-002
         vertex 1.070435e-001 -6.945802e-002 7.999988e-002
      endloop
   endfacet
   facet normal 1.982541e-016 0.000000e+000 1.000000e+000
      outer loop
         vertex 1.070435e-001 -6.945802e-002 7.999988e-002
         vertex 1.198092e-001 -2.181562e-002 7.999988e-002
         vertex 1.150531e-001 -2.403346e-002 7.999988e-002
      endloop
   endfacet
   facet normal 1.982541e-016 0.000000e+000 1.000000e+000
      outer loop
         vertex 1.070435e-001 -6.945802e-002 7.999988e-002
         vertex 1.150531e-001 -2.403346e-002 7.999988e-002
         vertex 1.107543e-001 -2.704350e-002 7.999988e-002
      endloop
   endfacet
   facet normal 1.982541e-016 0.000000e+000 1.000000e+000
      outer loop
         vertex 1.531688e-001 -6.945802e-002 7.999988e-002
         vertex 1.561788e-001 -6.515923e-002 7.999988e-002
         vertex 1.404031e-001 -2.181562e-002 7.999988e-002
      endloop
   endfacet
   facet normal 1.982541e-016 0.000000e+000 1.000000e+000
      outer loop
         vertex 1.404031e-001 -2.181562e-002 7.999988e-002
         vertex 1.561788e-001 -6.515923e-002 7.999988e-002
         vertex 1.583967e-001 -6.040307e-002 7.999988e-002
      endloop
   endfacet
   facet normal 1.982541e-016 0.000000e+000 1.000000e+000
      outer loop
         vertex 1.404031e-001 -2.181562e-002 7.999988e-002
         vertex 1.583967e-001 -6.040307e-002 7.999988e-002
         vertex 1.597549e-001 -5.533404e-002 7.999988e-002
      endloop
   endfacet
   facet normal 1.982541e-016 0.000000e+000 1.000000e+000
      outer loop
         vertex 1.597549e-001 -5.533404e-002 7.999988e-002
         vertex 1.602123e-001 -5.010616e-002 7.999988e-002
         vertex 1.404031e-001 -2.181562e-002 7.999988e-002
      endloop
   endfacet
   facet normal 1.982541e-016 0.000000e+000 1.000000e+000
      outer loop
         vertex 1.404031e-001 -2.181562e-002 7.999988e-002
         vertex 1.602123e-001 -5.010616e-002 7.999988e-002
         vertex 1.597549e-001 -4.487828e-002 7.999988e-002
      endloop
   endfacet
   facet normal 1.982541e-016 0.000000e+000 1.000000e+000
      outer loop
         vertex 1.404031e-001 -2.181562e-002 7.999988e-002
         vertex 1.597549e-001 -4.487828e-002 7.999988e-002
         vertex 1.583967e-001 -3.980925e-002 7.999988e-002
      endloop
   endfacet
   facet normal 1.982541e-016 0.000000e+000 1.000000e+000
      outer loop
         vertex 1.583967e-001 -3.980925e-002 7.999988e-002
         vertex 1.561788e-001 -3.505308e-002 7.999988e-002
         vertex 1.404031e-001 -2.181562e-002 7.999988e-002
      endloop
   endfacet
   facet normal 1.982541e-016 0.000000e+000 1.000000e+000
      outer loop
         vertex 1.404031e-001 -2.181562e-002 7.999988e-002
         vertex 1.561788e-001 -3.505308e-002 7.999988e-002
         vertex 1.531688e-001 -3.075429e-002 7.999988e-002
      endloop
   endfacet
   facet normal 1.982541e-016 0.000000e+000 1.000000e+000
      outer loop
         vertex 1.404031e-001 -2.181562e-002 7.999988e-002
         vertex 1.531688e-001 -3.075429e-002 7.999988e-002
         vertex 1.451592e-001 -2.403346e-002 7.999988e-002
      endloop
   endfacet
   facet normal 1.982541e-016 0.000000e+000 1.000000e+000
      outer loop
         vertex 1.451592e-001 -2.403346e-002 7.999988e-002
         vertex 1.531688e-001 -3.075429e-002 7.999988e-002
         vertex 1.494580e-001 -2.704350e-002 7.999988e-002
      endloop
   endfacet
   facet normal 1.982541e-016 0.000000e+000 1.000000e+000
      outer loop
         vertex 1.107543e-001 -2.704350e-002 7.999988e-002
         vertex 1.070435e-001 -3.075429e-002 7.999988e-002
         vertex 1.070435e-001 -6.945802e-002 7.999988e-002
      endloop
   endfacet
   facet normal 1.982541e-016 0.000000e+000 1.000000e+000
      outer loop
         vertex 1.070435e-001 -6.945802e-002 7.999988e-002
         vertex 1.070435e-001 -3.075429e-002 7.999988e-002
         vertex 1.040335e-001 -3.505308e-002 7.999988e-002
      endloop
   endfacet
   facet normal 1.982541e-016 0.000000e+000 1.000000e+000
      outer loop
         vertex 1.070435e-001 -6.945802e-002 7.999988e-002
         vertex 1.040335e-001 -3.505308e-002 7.999988e-002
         vertex 1.018156e-001 -3.980925e-002 7.999988e-002
      endloop
   endfacet
   facet normal 1.982541e-016 0.000000e+000 1.000000e+000
      outer loop
         vertex 9.999999e-002 -5.010616e-002 7.999988e-002
         vertex 1.004574e-001 -5.533404e-002 7.999988e-002
         vertex 1.018156e-001 -6.040307e-002 7.999988e-002
      endloop
   endfacet
   facet normal 1.982541e-016 0.000000e+000 1.000000e+000
      outer loop
         vertex 1.018156e-001 -3.980925e-002 7.999988e-002
         vertex 1.004574e-001 -4.487828e-002 7.999988e-002
         vertex 1.070435e-001 -6.945802e-002 7.999988e-002
      endloop
   endfacet
   facet normal 1.982541e-016 0.000000e+000 1.000000e+000
      outer loop
         vertex 1.070435e-001 -6.945802e-002 7.999988e-002
         vertex 1.004574e-001 -4.487828e-002 7.999988e-002
         vertex 9.999999e-002 -5.010616e-002 7.999988e-002
      endloop
   endfacet
   facet normal 1.982541e-016 0.000000e+000 1.000000e+000
      outer loop
         vertex 1.070435e-001 -6.945802e-002 7.999988e-002
         vertex 9.999999e-002 -5.010616e-002 7.999988e-002
         vertex 1.040335e-001 -6.515923e-002 7.999988e-002
      endloop
   endfacet
   facet normal 1.982541e-016 0.000000e+000 1.000000e+000
      outer loop
         vertex 1.040335e-001 -6.515923e-002 7.999988e-002
         vertex 9.999999e-002 -5.010616e-002 7.999988e-002
         vertex 1.018156e-001 -6.040307e-002 7.999988e-002
      endloop
   endfacet
   facet normal -9.983120e-001 5.807914e-002 1.979195e-016
      outer loop
         vertex 1.004574e-001 -4.487828e-002 7.999988e-002
         vertex 9.999999e-002 -5.010616e-002 -1.199998e-001
         vertex 9.999999e-002 -5.010616e-002 7.999988e-002
      endloop
   endfacet
   facet normal -9.983120e-001 -5.807914e-002 1.979195e-016
      outer loop
         vertex 9.999999e-002 -5.010616e-002 7.999988e-002
         vertex 9.999999e-002 -5.010616e-002 -1.199998e-001
         vertex 1.004574e-001 -5.533404e-002 -1.199998e-001
      endloop
   endfacet
   facet normal -9.932307e-001 -1.161583e-001 1.969121e-016
      outer loop
         vertex 9.999999e-002 -5.010616e-002 7.999988e-002
         vertex 1.004574e-001 -5.533404e-002 -1.199998e-001
         vertex 1.004574e-001 -5.533404e-002 7.999988e-002
      endloop
   endfacet
   facet normal -9.730600e-001 -2.305519e-001 1.929132e-016
      outer loop
         vertex 1.004574e-001 -5.533404e-002 7.999988e-002
         vertex 1.004574e-001 -5.533404e-002 -1.199998e-001
         vertex 1.018156e-001 -6.040307e-002 -1.199998e-001
      endloop
   endfacet
   facet normal -9.579706e-001 -2.868663e-001 1.899216e-016
      outer loop
         vertex 1.004574e-001 -5.533404e-002 7.999988e-002
         vertex 1.018156e-001 -6.040307e-002 -1.199998e-001
         vertex 1.018156e-001 -6.040307e-002 7.999988e-002
      endloop
   endfacet
   facet normal -9.182422e-001 -3.960194e-001 1.820453e-016
      outer loop
         vertex 1.018156e-001 -6.040307e-002 7.999988e-002
         vertex 1.018156e-001 -6.040307e-002 -1.199998e-001
         vertex 1.040335e-001 -6.515923e-002 -1.199998e-001
      endloop
   endfacet
   facet normal -8.936031e-001 -4.488580e-001 1.771605e-016
      outer loop
         vertex 1.018156e-001 -6.040307e-002 7.999988e-002
         vertex 1.040335e-001 -6.515923e-002 -1.199998e-001
         vertex 1.040335e-001 -6.515923e-002 7.999988e-002
      endloop
   endfacet
   facet normal -8.355240e-001 -5.494540e-001 1.656461e-016
      outer loop
         vertex 1.040335e-001 -6.515923e-002 7.999988e-002
         vertex 1.040335e-001 -6.515923e-002 -1.199998e-001
         vertex 1.070435e-001 -6.945802e-002 -1.199998e-001
      endloop
   endfacet
   facet normal -8.020839e-001 -5.972114e-001 1.590164e-016
      outer loop
         vertex 1.040335e-001 -6.515923e-002 7.999988e-002
         vertex 1.070435e-001 -6.945802e-002 -1.199998e-001
         vertex 1.070435e-001 -6.945802e-002 7.999988e-002
      endloop
   endfacet
   facet normal -7.274188e-001 -6.861938e-001 1.442138e-016
      outer loop
         vertex 1.070435e-001 -6.945802e-002 7.999988e-002
         vertex 1.070435e-001 -6.945802e-002 -1.199998e-001
         vertex 1.107543e-001 -7.316881e-002 -1.199998e-001
      endloop
   endfacet
   facet normal -6.861938e-001 -7.274188e-001 1.360407e-016
      outer loop
         vertex 1.070435e-001 -6.945802e-002 7.999988e-002
         vertex 1.107543e-001 -7.316881e-002 -1.199998e-001
         vertex 1.107543e-001 -7.316881e-002 7.999988e-002
      endloop
   endfacet
   facet normal -5.972114e-001 -8.020839e-001 1.183996e-016
      outer loop
         vertex 1.107543e-001 -7.316881e-002 7.999988e-002
         vertex 1.107543e-001 -7.316881e-002 -1.199998e-001
         vertex 1.150531e-001 -7.617886e-002 -1.199998e-001
      endloop
   endfacet
   facet normal -5.494540e-001 -8.355240e-001 1.089315e-016
      outer loop
         vertex 1.107543e-001 -7.316881e-002 7.999988e-002
         vertex 1.150531e-001 -7.617886e-002 -1.199998e-001
         vertex 1.150531e-001 -7.617886e-002 7.999988e-002
      endloop
   endfacet
   facet normal -4.488580e-001 -8.936031e-001 8.898794e-017
      outer loop
         vertex 1.150531e-001 -7.617886e-002 7.999988e-002
         vertex 1.150531e-001 -7.617886e-002 -1.199998e-001
         vertex 1.198092e-001 -7.839669e-002 -1.199998e-001
      endloop
   endfacet
   facet normal -3.960194e-001 -9.182422e-001 7.851247e-017
      outer loop
         vertex 1.150531e-001 -7.617886e-002 7.999988e-002
         vertex 1.198092e-001 -7.839669e-002 -1.199998e-001
         vertex 1.198092e-001 -7.839669e-002 7.999988e-002
      endloop
   endfacet
   facet normal -2.868663e-001 -9.579706e-001 5.687242e-017
      outer loop
         vertex 1.198092e-001 -7.839669e-002 7.999988e-002
         vertex 1.198092e-001 -7.839669e-002 -1.199998e-001
         vertex 1.248783e-001 -7.975493e-002 -1.199998e-001
      endloop
   endfacet
   facet normal -2.305519e-001 -9.730600e-001 4.570785e-017
      outer loop
         vertex 1.198092e-001 -7.839669e-002 7.999988e-002
         vertex 1.248783e-001 -7.975493e-002 -1.199998e-001
         vertex 1.248783e-001 -7.975493e-002 7.999988e-002
      endloop
   endfacet
   facet normal -1.161583e-001 -9.932307e-001 2.302886e-017
      outer loop
         vertex 1.248783e-001 -7.975493e-002 7.999988e-002
         vertex 1.248783e-001 -7.975493e-002 -1.199998e-001
         vertex 1.301062e-001 -8.021232e-002 -1.199998e-001
      endloop
   endfacet
   facet normal -5.807914e-002 -9.983120e-001 1.151443e-017
      outer loop
         vertex 1.248783e-001 -7.975493e-002 7.999988e-002
         vertex 1.301062e-001 -8.021232e-002 -1.199998e-001
         vertex 1.301062e-001 -8.021232e-002 7.999988e-002
      endloop
   endfacet
   facet normal 5.807914e-002 -9.983120e-001 -1.151443e-017
      outer loop
         vertex 1.301062e-001 -8.021232e-002 7.999988e-002
         vertex 1.301062e-001 -8.021232e-002 -1.199998e-001
         vertex 1.353340e-001 -7.975493e-002 -1.199998e-001
      endloop
   endfacet
   facet normal 1.161583e-001 -9.932307e-001 -2.302886e-017
      outer loop
         vertex 1.301062e-001 -8.021232e-002 7.999988e-002
         vertex 1.353340e-001 -7.975493e-002 -1.199998e-001
         vertex 1.353340e-001 -7.975493e-002 7.999988e-002
      endloop
   endfacet
   facet normal 2.305519e-001 -9.730600e-001 -4.570785e-017
      outer loop
         vertex 1.353340e-001 -7.975493e-002 7.999988e-002
         vertex 1.353340e-001 -7.975493e-002 -1.199998e-001
         vertex 1.404031e-001 -7.839669e-002 -1.199998e-001
      endloop
   endfacet
   facet normal 2.868663e-001 -9.579706e-001 -5.687242e-017
      outer loop
         vertex 1.353340e-001 -7.975493e-002 7.999988e-002
         vertex 1.404031e-001 -7.839669e-002 -1.199998e-001
         vertex 1.404031e-001 -7.839669e-002 7.999988e-002
      endloop
   endfacet
   facet normal 3.960194e-001 -9.182422e-001 -7.851246e-017
      outer loop
         vertex 1.404031e-001 -7.839669e-002 7.999988e-002
         vertex 1.404031e-001 -7.839669e-002 -1.199998e-001
         vertex 1.451592e-001 -7.617886e-002 -1.199998e-001
      endloop
   endfacet
   facet normal 4.488580e-001 -8.936031e-001 -8.898794e-017
      outer loop
         vertex 1.404031e-001 -7.839669e-002 7.999988e-002
         vertex 1.451592e-001 -7.617886e-002 -1.199998e-001
         vertex 1.451592e-001 -7.617886e-002 7.999988e-002
      endloop
   endfacet
   facet normal 5.494540e-001 -8.355240e-001 -1.089315e-016
      outer loop
         vertex 1.451592e-001 -7.617886e-002 7.999988e-002
         vertex 1.451592e-001 -7.617886e-002 -1.199998e-001
         vertex 1.494580e-001 -7.316881e-002 -1.199998e-001
      endloop
   endfacet
   facet normal 5.972114e-001 -8.020839e-001 -1.183996e-016
      outer loop
         vertex 1.451592e-001 -7.617886e-002 7.999988e-002
         vertex 1.494580e-001 -7.316881e-002 -1.199998e-001
         vertex 1.494580e-001 -7.316881e-002 7.999988e-002
      endloop
   endfacet
   facet normal 6.861938e-001 -7.274188e-001 -1.360407e-016
      outer loop
         vertex 1.494580e-001 -7.316881e-002 7.999988e-002
         vertex 1.494580e-001 -7.316881e-002 -1.199998e-001
         vertex 1.531688e-001 -6.945802e-002 -1.199998e-001
      endloop
   endfacet
   facet normal 7.274188e-001 -6.861938e-001 -1.442138e-016
      outer loop
         vertex 1.494580e-001 -7.316881e-002 7.999988e-002
         vertex 1.531688e-001 -6.945802e-002 -1.199998e-001
         vertex 1.531688e-001 -6.945802e-002 7.999988e-002
      endloop
   endfacet
   facet normal 8.020839e-001 -5.972114e-001 -1.590164e-016
      outer loop
         vertex 1.531688e-001 -6.945802e-002 7.999988e-002
         vertex 1.531688e-001 -6.945802e-002 -1.199998e-001
         vertex 1.561788e-001 -6.515923e-002 -1.199998e-001
      endloop
   endfacet
   facet normal 8.355240e-001 -5.494540e-001 -1.656461e-016
      outer loop
         vertex 1.531688e-001 -6.945802e-002 7.999988e-002
         vertex 1.561788e-001 -6.515923e-002 -1.199998e-001
         vertex 1.561788e-001 -6.515923e-002 7.999988e-002
      endloop
   endfacet
   facet normal 8.936031e-001 -4.488580e-001 -1.771605e-016
      outer loop
         vertex 1.561788e-001 -6.515923e-002 7.999988e-002
         vertex 1.561788e-001 -6.515923e-002 -1.199998e-001
         vertex 1.583967e-001 -6.040307e-002 -1.199998e-001
      endloop
   endfacet
   facet normal 9.182422e-001 -3.960194e-001 -1.820453e-016
      outer loop
         vertex 1.561788e-001 -6.515923e-002 7.999988e-002
         vertex 1.583967e-001 -6.040307e-002 -1.199998e-001
         vertex 1.583967e-001 -6.040307e-002 7.999988e-002
      endloop
   endfacet
   facet normal 9.579706e-001 -2.868663e-001 -1.899216e-016
      outer loop
         vertex 1.583967e-001 -6.040307e-002 7.999988e-002
         vertex 1.583967e-001 -6.040307e-002 -1.199998e-001
         vertex 1.597549e-001 -5.533404e-002 -1.199998e-001
      endloop
   endfacet
   facet normal 9.730600e-001 -2.305519e-001 -1.929132e-016
      outer loop
         vertex 1.583967e-001 -6.040307e-002 7.999988e-002
         vertex 1.597549e-001 -5.533404e-002 -1.199998e-001
         vertex 1.597549e-001 -5.533404e-002 7.999988e-002
      endloop
   endfacet
   facet normal 9.932307e-001 -1.161583e-001 -1.969121e-016
      outer loop
         vertex 1.597549e-001 -5.533404e-002 7.999988e-002
         vertex 1.597549e-001 -5.533404e-002 -1.199998e-001
         vertex 1.602123e-001 -5.010616e-002 -1.199998e-001
      endloop
   endfacet
   facet normal 9.983120e-001 -5.807914e-002 -1.979195e-016
      outer loop
         vertex 1.597549e-001 -5.533404e-002 7.999988e-002
         vertex 1.602123e-001 -5.010616e-002 -1.199998e-001
         vertex 1.602123e-001 -5.010616e-002 7.999988e-002
      endloop
   endfacet
   facet normal 9.983120e-001 5.807914e-002 -1.979195e-016
      outer loop
         vertex 1.602123e-001 -5.010616e-002 7.999988e-002
         vertex 1.602123e-001 -5.010616e-002 -1.199998e-001
         vertex 1.597549e-001 -4.487828e-002 -1.199998e-001
      endloop
   endfacet
   facet normal 9.932307e-001 1.161583e-001 -1.969121e-016
      outer loop
         vertex 1.602123e-001 -5.010616e-002 7.999988e-002
         vertex 1.597549e-001 -4.487828e-002 -1.199998e-001
         vertex 1.597549e-001 -4.487828e-002 7.999988e-002
      endloop
   endfacet
   facet normal 9.730600e-001 2.305519e-001 -1.929132e-016
      outer loop
         vertex 1.597549e-001 -4.487828e-002 7.999988e-002
         vertex 1.597549e-001 -4.487828e-002 -1.199998e-001
         vertex 1.583967e-001 -3.980925e-002 -1.199998e-001
      endloop
   endfacet
   facet normal 9.579706e-001 2.868663e-001 -1.899216e-016
      outer loop
         vertex 1.597549e-001 -4.487828e-002 7.999988e-002
         vertex 1.583967e-001 -3.980925e-002 -1.199998e-001
         vertex 1.583967e-001 -3.980925e-002 7.999988e-002
      endloop
   endfacet
   facet normal 9.182422e-001 3.960194e-001 -1.820453e-016
      outer loop
         vertex 1.583967e-001 -3.980925e-002 7.999988e-002
         vertex 1.583967e-001 -3.980925e-002 -1.199998e-001
         vertex 1.561788e-001 -3.505308e-002 -1.199998e-001
      endloop
   endfacet
   facet normal 8.936031e-001 4.488580e-001 -1.771605e-016
      outer loop
         vertex 1.583967e-001 -3.980925e-002 7.999988e-002
         vertex 1.561788e-001 -3.505308e-002 -1.199998e-001
         vertex 1.561788e-001 -3.505308e-002 7.999988e-002
      endloop
   endfacet
   facet normal 8.355240e-001 5.494540e-001 -1.656461e-016
      outer loop
         vertex 1.561788e-001 -3.505308e-002 7.999988e-002
         vertex 1.561788e-001 -3.505308e-002 -1.199998e-001
         vertex 1.531688e-001 -3.075429e-002 -1.199998e-001
      endloop
   endfacet
   facet normal 8.020839e-001 5.972114e-001 -1.590164e-016
      outer loop
         vertex 1.561788e-001 -3.505308e-002 7.999988e-002
         vertex 1.531688e-001 -3.075429e-002 -1.199998e-001
         vertex 1.531688e-001 -3.075429e-002 7.999988e-002
      endloop
   endfacet
   facet normal 7.274188e-001 6.861938e-001 -1.442138e-016
      outer loop
         vertex 1.531688e-001 -3.075429e-002 7.999988e-002
         vertex 1.531688e-001 -3.075429e-002 -1.199998e-001
         vertex 1.494580e-001 -2.704350e-002 -1.199998e-001
      endloop
   endfacet
   facet normal 6.861938e-001 7.274188e-001 -1.360407e-016
      outer loop
         vertex 1.531688e-001 -3.075429e-002 7.999988e-002
         vertex 1.494580e-001 -2.704350e-002 -1.199998e-001
         vertex 1.494580e-001 -2.704350e-002 7.999988e-002
      endloop
   endfacet
   facet normal 5.972114e-001 8.020839e-001 -1.183996e-016
      outer loop
         vertex 1.494580e-001 -2.704350e-002 7.999988e-002
         vertex 1.494580e-001 -2.704350e-002 -1.199998e-001
         vertex 1.451592e-001 -2.403346e-002 -1.199998e-001
      endloop
   endfacet
   facet normal 5.494540e-001 8.355240e-001 -1.089315e-016
      outer loop
         vertex 1.494580e-001 -2.704350e-002 7.999988e-002
         vertex 1.451592e-001 -2.403346e-002 -1.199998e-001
         vertex 1.451592e-001 -2.403346e-002 7.999988e-002
      endloop
   endfacet
   facet normal 4.488580e-001 8.936031e-001 -8.898794e-017
      outer loop
         vertex 1.451592e-001 -2.403346e-002 7.999988e-002
         vertex 1.451592e-001 -2.403346e-002 -1.199998e-001
         vertex 1.404031e-001 -2.181562e-002 -1.199998e-001
      endloop
   endfacet
   facet normal 3.960194e-001 9.182422e-001 -7.851247e-017
      outer loop
         vertex 1.451592e-001 -2.403346e-002 7.999988e-002
         vertex 1.404031e-001 -2.181562e-002 -1.199998e-001
         vertex 1.404031e-001 -2.181562e-002 7.999988e-002
      endloop
   endfacet
   facet normal 2.868663e-001 9.579706e-001 -5.687242e-017
      outer loop
         vertex 1.404031e-001 -2.181562e-002 7.999988e-002
         vertex 1.404031e-001 -2.181562e-002 -1.199998e-001
         vertex 1.353340e-001 -2.045738e-002 -1.199998e-001
      endloop
   endfacet
   facet normal 2.305519e-001 9.730600e-001 -4.570785e-017
      outer loop
         vertex 1.404031e-001 -2.181562e-002 7.999988e-002
         vertex 1.353340e-001 -2.045738e-002 -1.199998e-001
         vertex 1.353340e-001 -2.045738e-002 7.999988e-002
      endloop
   endfacet
   facet normal 1.161583e-001 9.932307e-001 -2.302886e-017
      outer loop
         vertex 1.353340e-001 -2.045738e-002 7.999988e-002
         vertex 1.353340e-001 -2.045738e-002 -1.199998e-001
         vertex 1.301062e-001 -2.000000e-002 -1.199998e-001
      endloop
   endfacet
   facet normal 5.807914e-002 9.983120e-001 -1.151443e-017
      outer loop
         vertex 1.353340e-001 -2.045738e-002 7.999988e-002
         vertex 1.301062e-001 -2.000000e-002 -1.199998e-001
         vertex 1.301062e-001 -2.000000e-002 7.999988e-002
      endloop
   endfacet
   facet normal -5.807914e-002 9.983120e-001 1.151443e-017
      outer loop
         vertex 1.301062e-001 -2.000000e-002 7.999988e-002
         vertex 1.301062e-001 -2.000000e-002 -1.199998e-001
         vertex 1.248783e-001 -2.045738e-002 -1.199998e-001
      endloop
   endfacet
   facet normal -1.161583e-001 9.932307e-001 2.302886e-017
      outer loop
         vertex 1.301062e-001 -2.000000e-002 7.999988e-002
         vertex 1.248783e-001 -2.045738e-002 -1.199998e-001
         vertex 1.248783e-001 -2.045738e-002 7.999988e-002
      endloop
   endfacet
   facet normal -2.305519e-001 9.730600e-001 4.570785e-017
      outer loop
         vertex 1.248783e-001 -2.045738e-002 7.999988e-002
         vertex 1.248783e-001 -2.045738e-002 -1.199998e-001
         vertex 1.198092e-001 -2.181562e-002 -1.199998e-001
      endloop
   endfacet
   facet normal -2.868663e-001 9.579706e-001 5.687242e-017
      outer loop
         vertex 1.248783e-001 -2.045738e-002 7.999988e-002
         vertex 1.198092e-001 -2.181562e-002 -1.199998e-001
         vertex 1.198092e-001 -2.181562e-002 7.999988e-002
      endloop
   endfacet
   facet normal -3.960194e-001 9.182422e-001 7.851246e-017
      outer loop
         vertex 1.198092e-001 -2.181562e-002 7.999988e-002
         vertex 1.198092e-001 -2.181562e-002 -1.199998e-001
         vertex 1.150531e-001 -2.403346e-002 -1.199998e-001
      endloop
   endfacet
   facet normal -4.488580e-001 8.936031e-001 8.898794e-017
      outer loop
         vertex 1.198092e-001 -2.181562e-002 7.999988e-002
         vertex 1.150531e-001 -2.403346e-002 -1.199998e-001
         vertex 1.150531e-001 -2.403346e-002 7.999988e-002
      endloop
   endfacet
   facet normal -5.494540e-001 8.355240e-001 1.089315e-016
      outer loop
         vertex 1.150531e-001 -2.403346e-002 7.999988e-002
         vertex 1.150531e-001 -2.403346e-002 -1.199998e-001
         vertex 1.107543e-001 -2.704350e-002 -1.199998e-001
      endloop
   endfacet
   facet normal -5.972114e-001 8.020839e-001 1.183996e-016
      outer loop
         vertex 1.150531e-001 -2.403346e-002 7.999988e-002
         vertex 1.107543e-001 -2.704350e-002 -1.199998e-001
         vertex 1.107543e-001 -2.704350e-002 7.999988e-002
      endloop
   endfacet
   facet normal -6.861938e-001 7.274188e-001 1.360407e-016
      outer loop
         vertex 1.107543e-001 -2.704350e-002 7.999988e-002
         vertex 1.107543e-001 -2.704350e-002 -1.199998e-001
         vertex 1.070435e-001 -3.075429e-002 -1.199998e-001
      endloop
   endfacet
   facet normal -7.274188e-001 6.861938e-001 1.442138e-016
      outer loop
         vertex 1.107543e-001 -2.704350e-002 7.999988e-002
         vertex 1.070435e-001 -3.075429e-002 -1.199998e-001
         vertex 1.070435e-001 -3.075429e-002 7.999988e-002
      endloop
   endfacet
   facet normal -8.020839e-001 5.972114e-001 1.590164e-016
      outer loop
         vertex 1.070435e-001 -3.075429e-002 7.999988e-002
         vertex 1.070435e-001 -3.075429e-002 -1.199998e-001
         vertex 1.040335e-001 -3.505308e-002 -1.199998e-001
      endloop
   endfacet
   facet normal -8.355240e-001 5.494540e-001 1.656461e-016
      outer loop
         vertex 1.070435e-001 -3.075429e-002 7.999988e-002
         vertex 1.040335e-001 -3.505308e-002 -1.199998e-001
         vertex 1.040335e-001 -3.505308e-002 7.999988e-002
      endloop
   endfacet
   facet normal -8.936031e-001 4.488580e-001 1.771605e-016
      outer loop
         vertex 1.040335e-001 -3.505308e-002 7.999988e-002
         vertex 1.040335e-001 -3.505308e-002 -1.199998e-001
         vertex 1.018156e-001 -3.980925e-002 -1.199998e-001
      endloop
   endfacet
   facet normal -9.182422e-001 3.960194e-001 1.820453e-016
      outer loop
         vertex 1.040335e-001 -3.505308e-002 7.999988e-002
         vertex 1.018156e-001 -3.980925e-002 -1.199998e-001
         vertex 1.018156e-001 -3.980925e-002 7.999988e-002
      endloop
   endfacet
   facet normal -9.579706e-001 2.868663e-001 1.899216e-016
      outer loop
         vertex 1.018156e-001 -3.980925e-002 7.999988e-002
         vertex 1.018156e-001 -3.980925e-002 -1.199998e-001
         vertex 1.004574e-001 -4.487828e-002 -1.199998e-001
      endloop
   endfacet
   facet normal -9.730600e-001 2.305519e-001 1.929132e-016
      outer loop
         vertex 1.018156e-001 -3.980925e-002 7.999988e-002
         vertex 1.004574e-001 -4.487828e-002 -1.199998e-001
         vertex 1.004574e-001 -4.487828e-002 7.999988e-002
      endloop
   endfacet
   facet normal -9.932307e-001 1.161583e-001 1.969121e-016
      outer loop
         vertex 1.004574e-001 -4.487828e-002 7.999988e-002
         vertex 1.004574e-001 -4.487828e-002 -1.199998e-001
         vertex 9.999999e-002 -5.010616e-002 -1.199998e-001
      endloop
   endfacet
   facet normal 9.581789e-001 2.270260e-001 -1.742195e-001
      outer loop
         vertex 1.597549e-001 -4.487828e-002 -1.199998e-001
         vertex 1.458631e-001 -4.732779e-002 -2.000004e-001
         vertex 1.583967e-001 -3.980925e-002 -1.199998e-001
      endloop
   endfacet
   facet normal 9.433202e-001 2.824792e-001 -1.742195e-001
      outer loop
         vertex 1.583967e-001 -3.980925e-002 -1.199998e-001
         vertex 1.458631e-001 -4.732779e-002 -2.000004e-001
         vertex 1.451412e-001 -4.463384e-002 -2.000004e-001
      endloop
   endfacet
   facet normal 9.041994e-001 3.899630e-001 -1.742195e-001
      outer loop
         vertex 1.583967e-001 -3.980925e-002 -1.199998e-001
         vertex 1.451412e-001 -4.463384e-002 -2.000004e-001
         vertex 1.561788e-001 -3.505308e-002 -1.199998e-001
      endloop
   endfacet
   facet normal 8.799371e-001 4.419935e-001 -1.742196e-001
      outer loop
         vertex 1.561788e-001 -3.505308e-002 -1.199998e-001
         vertex 1.451412e-001 -4.463384e-002 -2.000004e-001
         vertex 1.439626e-001 -4.210616e-002 -2.000004e-001
      endloop
   endfacet
   facet normal 8.227462e-001 5.410511e-001 -1.742195e-001
      outer loop
         vertex 1.561788e-001 -3.505308e-002 -1.199998e-001
         vertex 1.439626e-001 -4.210616e-002 -2.000004e-001
         vertex 1.531688e-001 -3.075429e-002 -1.199998e-001
      endloop
   endfacet
   facet normal 7.898175e-001 5.880781e-001 -1.742195e-001
      outer loop
         vertex 1.531688e-001 -3.075429e-002 -1.199998e-001
         vertex 1.439626e-001 -4.210616e-002 -2.000004e-001
         vertex 1.423629e-001 -3.982156e-002 -2.000004e-001
      endloop
   endfacet
   facet normal 7.162943e-001 6.756997e-001 -1.742195e-001
      outer loop
         vertex 1.531688e-001 -3.075429e-002 -1.199998e-001
         vertex 1.423629e-001 -3.982156e-002 -2.000004e-001
         vertex 1.494580e-001 -2.704350e-002 -1.199998e-001
      endloop
   endfacet
   facet normal 6.756997e-001 7.162943e-001 -1.742195e-001
      outer loop
         vertex 1.494580e-001 -2.704350e-002 -1.199998e-001
         vertex 1.423629e-001 -3.982156e-002 -2.000004e-001
         vertex 1.403908e-001 -3.784945e-002 -2.000004e-001
      endloop
   endfacet
   facet normal 5.880781e-001 7.898175e-001 -1.742195e-001
      outer loop
         vertex 1.494580e-001 -2.704350e-002 -1.199998e-001
         vertex 1.403908e-001 -3.784945e-002 -2.000004e-001
         vertex 1.451592e-001 -2.403346e-002 -1.199998e-001
      endloop
   endfacet
   facet normal 5.410511e-001 8.227462e-001 -1.742195e-001
      outer loop
         vertex 1.451592e-001 -2.403346e-002 -1.199998e-001
         vertex 1.403908e-001 -3.784945e-002 -2.000004e-001
         vertex 1.381062e-001 -3.624975e-002 -2.000004e-001
      endloop
   endfacet
   facet normal 4.419935e-001 8.799371e-001 -1.742196e-001
      outer loop
         vertex 1.451592e-001 -2.403346e-002 -1.199998e-001
         vertex 1.381062e-001 -3.624975e-002 -2.000004e-001
         vertex 1.404031e-001 -2.181562e-002 -1.199998e-001
      endloop
   endfacet
   facet normal 3.899629e-001 9.041994e-001 -1.742195e-001
      outer loop
         vertex 1.404031e-001 -2.181562e-002 -1.199998e-001
         vertex 1.381062e-001 -3.624975e-002 -2.000004e-001
         vertex 1.355785e-001 -3.507107e-002 -2.000004e-001
      endloop
   endfacet
   facet normal 2.824792e-001 9.433202e-001 -1.742195e-001
      outer loop
         vertex 1.404031e-001 -2.181562e-002 -1.199998e-001
         vertex 1.355785e-001 -3.507107e-002 -2.000004e-001
         vertex 1.353340e-001 -2.045738e-002 -1.199998e-001
      endloop
   endfacet
   facet normal 2.270260e-001 9.581789e-001 -1.742195e-001
      outer loop
         vertex 1.353340e-001 -2.045738e-002 -1.199998e-001
         vertex 1.355785e-001 -3.507107e-002 -2.000004e-001
         vertex 1.328845e-001 -3.434923e-002 -2.000004e-001
      endloop
   endfacet
   facet normal 1.143818e-001 9.780411e-001 -1.742195e-001
      outer loop
         vertex 1.353340e-001 -2.045738e-002 -1.199998e-001
         vertex 1.328845e-001 -3.434923e-002 -2.000004e-001
         vertex 1.301062e-001 -2.000000e-002 -1.199998e-001
      endloop
   endfacet
   facet normal 5.719093e-002 9.830446e-001 -1.742196e-001
      outer loop
         vertex 1.301062e-001 -2.000000e-002 -1.199998e-001
         vertex 1.328845e-001 -3.434923e-002 -2.000004e-001
         vertex 1.301062e-001 -3.410616e-002 -2.000004e-001
      endloop
   endfacet
   facet normal -5.719093e-002 9.830446e-001 -1.742196e-001
      outer loop
         vertex 1.301062e-001 -2.000000e-002 -1.199998e-001
         vertex 1.301062e-001 -3.410616e-002 -2.000004e-001
         vertex 1.248783e-001 -2.045738e-002 -1.199998e-001
      endloop
   endfacet
   facet normal -1.143818e-001 9.780411e-001 -1.742196e-001
      outer loop
         vertex 1.248783e-001 -2.045738e-002 -1.199998e-001
         vertex 1.301062e-001 -3.410616e-002 -2.000004e-001
         vertex 1.273278e-001 -3.434923e-002 -2.000004e-001
      endloop
   endfacet
   facet normal -2.270260e-001 9.581789e-001 -1.742195e-001
      outer loop
         vertex 1.248783e-001 -2.045738e-002 -1.199998e-001
         vertex 1.273278e-001 -3.434923e-002 -2.000004e-001
         vertex 1.198092e-001 -2.181562e-002 -1.199998e-001
      endloop
   endfacet
   facet normal -2.824792e-001 9.433202e-001 -1.742195e-001
      outer loop
         vertex 1.198092e-001 -2.181562e-002 -1.199998e-001
         vertex 1.273278e-001 -3.434923e-002 -2.000004e-001
         vertex 1.246338e-001 -3.507107e-002 -2.000004e-001
      endloop
   endfacet
   facet normal -3.899630e-001 9.041994e-001 -1.742195e-001
      outer loop
         vertex 1.198092e-001 -2.181562e-002 -1.199998e-001
         vertex 1.246338e-001 -3.507107e-002 -2.000004e-001
         vertex 1.150531e-001 -2.403346e-002 -1.199998e-001
      endloop
   endfacet
   facet normal -4.419935e-001 8.799371e-001 -1.742196e-001
      outer loop
         vertex 1.150531e-001 -2.403346e-002 -1.199998e-001
         vertex 1.246338e-001 -3.507107e-002 -2.000004e-001
         vertex 1.221062e-001 -3.624975e-002 -2.000004e-001
      endloop
   endfacet
   facet normal -5.410511e-001 8.227462e-001 -1.742195e-001
      outer loop
         vertex 1.150531e-001 -2.403346e-002 -1.199998e-001
         vertex 1.221062e-001 -3.624975e-002 -2.000004e-001
         vertex 1.107543e-001 -2.704350e-002 -1.199998e-001
      endloop
   endfacet
   facet normal -5.880781e-001 7.898175e-001 -1.742195e-001
      outer loop
         vertex 1.107543e-001 -2.704350e-002 -1.199998e-001
         vertex 1.221062e-001 -3.624975e-002 -2.000004e-001
         vertex 1.198216e-001 -3.784945e-002 -2.000004e-001
      endloop
   endfacet
   facet normal -6.756997e-001 7.162943e-001 -1.742195e-001
      outer loop
         vertex 1.107543e-001 -2.704350e-002 -1.199998e-001
         vertex 1.198216e-001 -3.784945e-002 -2.000004e-001
         vertex 1.070435e-001 -3.075429e-002 -1.199998e-001
      endloop
   endfacet
   facet normal -7.162943e-001 6.756997e-001 -1.742195e-001
      outer loop
         vertex 1.070435e-001 -3.075429e-002 -1.199998e-001
         vertex 1.198216e-001 -3.784945e-002 -2.000004e-001
         vertex 1.178494e-001 -3.982156e-002 -2.000004e-001
      endloop
   endfacet
   facet normal -7.898175e-001 5.880781e-001 -1.742195e-001
      outer loop
         vertex 1.070435e-001 -3.075429e-002 -1.199998e-001
         vertex 1.178494e-001 -3.982156e-002 -2.000004e-001
         vertex 1.040335e-001 -3.505308e-002 -1.199998e-001
      endloop
   endfacet
   facet normal -8.227462e-001 5.410511e-001 -1.742195e-001
      outer loop
         vertex 1.040335e-001 -3.505308e-002 -1.199998e-001
         vertex 1.178494e-001 -3.982156e-002 -2.000004e-001
         vertex 1.162497e-001 -4.210616e-002 -2.000004e-001
      endloop
   endfacet
   facet normal -8.799371e-001 4.419935e-001 -1.742196e-001
      outer loop
         vertex 1.040335e-001 -3.505308e-002 -1.199998e-001
         vertex 1.162497e-001 -4.210616e-002 -2.000004e-001
         vertex 1.018156e-001 -3.980925e-002 -1.199998e-001
      endloop
   endfacet
   facet normal -9.041994e-001 3.899629e-001 -1.742195e-001
      outer loop
         vertex 1.018156e-001 -3.980925e-002 -1.199998e-001
         vertex 1.162497e-001 -4.210616e-002 -2.000004e-001
         vertex 1.150711e-001 -4.463384e-002 -2.000004e-001
      endloop
   endfacet
   facet normal -9.433202e-001 2.824792e-001 -1.742195e-001
      outer loop
         vertex 1.018156e-001 -3.980925e-002 -1.199998e-001
         vertex 1.150711e-001 -4.463384e-002 -2.000004e-001
         vertex 1.004574e-001 -4.487828e-002 -1.199998e-001
      endloop
   endfacet
   facet normal -9.581789e-001 2.270260e-001 -1.742195e-001
      outer loop
         vertex 1.004574e-001 -4.487828e-002 -1.199998e-001
         vertex 1.150711e-001 -4.463384e-002 -2.000004e-001
         vertex 1.143492e-001 -4.732779e-002 -2.000004e-001
      endloop
   endfacet
   facet normal -9.780411e-001 1.143818e-001 -1.742195e-001
      outer loop
         vertex 1.004574e-001 -4.487828e-002 -1.199998e-001
         vertex 1.143492e-001 -4.732779e-002 -2.000004e-001
         vertex 9.999999e-002 -5.010616e-002 -1.199998e-001
      endloop
   endfacet
   facet normal -9.830446e-001 5.719093e-002 -1.742196e-001
      outer loop
         vertex 9.999999e-002 -5.010616e-002 -1.199998e-001
         vertex 1.143492e-001 -4.732779e-002 -2.000004e-001
         vertex 1.141062e-001 -5.010616e-002 -2.000004e-001
      endloop
   endfacet
   facet normal -9.830446e-001 -5.719093e-002 -1.742196e-001
      outer loop
         vertex 9.999999e-002 -5.010616e-002 -1.199998e-001
         vertex 1.141062e-001 -5.010616e-002 -2.000004e-001
         vertex 1.004574e-001 -5.533404e-002 -1.199998e-001
      endloop
   endfacet
   facet normal -9.780411e-001 -1.143818e-001 -1.742196e-001
      outer loop
         vertex 1.004574e-001 -5.533404e-002 -1.199998e-001
         vertex 1.141062e-001 -5.010616e-002 -2.000004e-001
         vertex 1.143492e-001 -5.288453e-002 -2.000004e-001
      endloop
   endfacet
   facet normal -9.581789e-001 -2.270260e-001 -1.742195e-001
      outer loop
         vertex 1.004574e-001 -5.533404e-002 -1.199998e-001
         vertex 1.143492e-001 -5.288453e-002 -2.000004e-001
         vertex 1.018156e-001 -6.040307e-002 -1.199998e-001
      endloop
   endfacet
   facet normal -9.433202e-001 -2.824792e-001 -1.742195e-001
      outer loop
         vertex 1.018156e-001 -6.040307e-002 -1.199998e-001
         vertex 1.143492e-001 -5.288453e-002 -2.000004e-001
         vertex 1.150711e-001 -5.557848e-002 -2.000004e-001
      endloop
   endfacet
   facet normal -9.041994e-001 -3.899630e-001 -1.742195e-001
      outer loop
         vertex 1.018156e-001 -6.040307e-002 -1.199998e-001
         vertex 1.150711e-001 -5.557848e-002 -2.000004e-001
         vertex 1.040335e-001 -6.515923e-002 -1.199998e-001
      endloop
   endfacet
   facet normal -8.799371e-001 -4.419935e-001 -1.742196e-001
      outer loop
         vertex 1.040335e-001 -6.515923e-002 -1.199998e-001
         vertex 1.150711e-001 -5.557848e-002 -2.000004e-001
         vertex 1.162497e-001 -5.810616e-002 -2.000004e-001
      endloop
   endfacet
   facet normal -8.227462e-001 -5.410511e-001 -1.742195e-001
      outer loop
         vertex 1.040335e-001 -6.515923e-002 -1.199998e-001
         vertex 1.162497e-001 -5.810616e-002 -2.000004e-001
         vertex 1.070435e-001 -6.945802e-002 -1.199998e-001
      endloop
   endfacet
   facet normal -7.898175e-001 -5.880781e-001 -1.742195e-001
      outer loop
         vertex 1.070435e-001 -6.945802e-002 -1.199998e-001
         vertex 1.162497e-001 -5.810616e-002 -2.000004e-001
         vertex 1.178494e-001 -6.039076e-002 -2.000004e-001
      endloop
   endfacet
   facet normal -7.162943e-001 -6.756997e-001 -1.742195e-001
      outer loop
         vertex 1.070435e-001 -6.945802e-002 -1.199998e-001
         vertex 1.178494e-001 -6.039076e-002 -2.000004e-001
         vertex 1.107543e-001 -7.316881e-002 -1.199998e-001
      endloop
   endfacet
   facet normal -6.756997e-001 -7.162943e-001 -1.742195e-001
      outer loop
         vertex 1.107543e-001 -7.316881e-002 -1.199998e-001
         vertex 1.178494e-001 -6.039076e-002 -2.000004e-001
         vertex 1.198216e-001 -6.236286e-002 -2.000004e-001
      endloop
   endfacet
   facet normal -5.880781e-001 -7.898175e-001 -1.742195e-001
      outer loop
         vertex 1.107543e-001 -7.316881e-002 -1.199998e-001
         vertex 1.198216e-001 -6.236286e-002 -2.000004e-001
         vertex 1.150531e-001 -7.617886e-002 -1.199998e-001
      endloop
   endfacet
   facet normal -5.410511e-001 -8.227462e-001 -1.742195e-001
      outer loop
         vertex 1.150531e-001 -7.617886e-002 -1.199998e-001
         vertex 1.198216e-001 -6.236286e-002 -2.000004e-001
         vertex 1.221062e-001 -6.396256e-002 -2.000004e-001
      endloop
   endfacet
   facet normal -4.419935e-001 -8.799371e-001 -1.742196e-001
      outer loop
         vertex 1.150531e-001 -7.617886e-002 -1.199998e-001
         vertex 1.221062e-001 -6.396256e-002 -2.000004e-001
         vertex 1.198092e-001 -7.839669e-002 -1.199998e-001
      endloop
   endfacet
   facet normal -3.899629e-001 -9.041994e-001 -1.742195e-001
      outer loop
         vertex 1.198092e-001 -7.839669e-002 -1.199998e-001
         vertex 1.221062e-001 -6.396256e-002 -2.000004e-001
         vertex 1.246338e-001 -6.514124e-002 -2.000004e-001
      endloop
   endfacet
   facet normal -2.824792e-001 -9.433202e-001 -1.742195e-001
      outer loop
         vertex 1.198092e-001 -7.839669e-002 -1.199998e-001
         vertex 1.246338e-001 -6.514124e-002 -2.000004e-001
         vertex 1.248783e-001 -7.975493e-002 -1.199998e-001
      endloop
   endfacet
   facet normal -2.270260e-001 -9.581789e-001 -1.742195e-001
      outer loop
         vertex 1.248783e-001 -7.975493e-002 -1.199998e-001
         vertex 1.246338e-001 -6.514124e-002 -2.000004e-001
         vertex 1.273278e-001 -6.586308e-002 -2.000004e-001
      endloop
   endfacet
   facet normal -1.143818e-001 -9.780411e-001 -1.742195e-001
      outer loop
         vertex 1.248783e-001 -7.975493e-002 -1.199998e-001
         vertex 1.273278e-001 -6.586308e-002 -2.000004e-001
         vertex 1.301062e-001 -8.021232e-002 -1.199998e-001
      endloop
   endfacet
   facet normal -5.719093e-002 -9.830446e-001 -1.742196e-001
      outer loop
         vertex 1.301062e-001 -8.021232e-002 -1.199998e-001
         vertex 1.273278e-001 -6.586308e-002 -2.000004e-001
         vertex 1.301062e-001 -6.610616e-002 -2.000004e-001
      endloop
   endfacet
   facet normal 5.719093e-002 -9.830446e-001 -1.742196e-001
      outer loop
         vertex 1.301062e-001 -8.021232e-002 -1.199998e-001
         vertex 1.301062e-001 -6.610616e-002 -2.000004e-001
         vertex 1.353340e-001 -7.975493e-002 -1.199998e-001
      endloop
   endfacet
   facet normal 1.143818e-001 -9.780411e-001 -1.742196e-001
      outer loop
         vertex 1.353340e-001 -7.975493e-002 -1.199998e-001
         vertex 1.301062e-001 -6.610616e-002 -2.000004e-001
         vertex 1.328845e-001 -6.586308e-002 -2.000004e-001
      endloop
   endfacet
   facet normal 2.270260e-001 -9.581789e-001 -1.742195e-001
      outer loop
         vertex 1.353340e-001 -7.975493e-002 -1.199998e-001
         vertex 1.328845e-001 -6.586308e-002 -2.000004e-001
         vertex 1.404031e-001 -7.839669e-002 -1.199998e-001
      endloop
   endfacet
   facet normal 2.824792e-001 -9.433202e-001 -1.742195e-001
      outer loop
         vertex 1.404031e-001 -7.839669e-002 -1.199998e-001
         vertex 1.328845e-001 -6.586308e-002 -2.000004e-001
         vertex 1.355785e-001 -6.514124e-002 -2.000004e-001
      endloop
   endfacet
   facet normal 3.899630e-001 -9.041994e-001 -1.742195e-001
      outer loop
         vertex 1.404031e-001 -7.839669e-002 -1.199998e-001
         vertex 1.355785e-001 -6.514124e-002 -2.000004e-001
         vertex 1.451592e-001 -7.617886e-002 -1.199998e-001
      endloop
   endfacet
   facet normal 4.419935e-001 -8.799371e-001 -1.742196e-001
      outer loop
         vertex 1.451592e-001 -7.617886e-002 -1.199998e-001
         vertex 1.355785e-001 -6.514124e-002 -2.000004e-001
         vertex 1.381062e-001 -6.396256e-002 -2.000004e-001
      endloop
   endfacet
   facet normal 5.410511e-001 -8.227462e-001 -1.742195e-001
      outer loop
         vertex 1.451592e-001 -7.617886e-002 -1.199998e-001
         vertex 1.381062e-001 -6.396256e-002 -2.000004e-001
         vertex 1.494580e-001 -7.316881e-002 -1.199998e-001
      endloop
   endfacet
   facet normal 5.880781e-001 -7.898175e-001 -1.742195e-001
      outer loop
         vertex 1.494580e-001 -7.316881e-002 -1.199998e-001
         vertex 1.381062e-001 -6.396256e-002 -2.000004e-001
         vertex 1.403908e-001 -6.236286e-002 -2.000004e-001
      endloop
   endfacet
   facet normal 6.756997e-001 -7.162943e-001 -1.742195e-001
      outer loop
         vertex 1.494580e-001 -7.316881e-002 -1.199998e-001
         vertex 1.403908e-001 -6.236286e-002 -2.000004e-001
         vertex 1.531688e-001 -6.945802e-002 -1.199998e-001
      endloop
   endfacet
   facet normal 7.162943e-001 -6.756997e-001 -1.742195e-001
      outer loop
         vertex 1.531688e-001 -6.945802e-002 -1.199998e-001
         vertex 1.403908e-001 -6.236286e-002 -2.000004e-001
         vertex 1.423629e-001 -6.039076e-002 -2.000004e-001
      endloop
   endfacet
   facet normal 7.898175e-001 -5.880781e-001 -1.742195e-001
      outer loop
         vertex 1.531688e-001 -6.945802e-002 -1.199998e-001
         vertex 1.423629e-001 -6.039076e-002 -2.000004e-001
         vertex 1.561788e-001 -6.515923e-002 -1.199998e-001
      endloop
   endfacet
   facet normal 8.227462e-001 -5.410511e-001 -1.742195e-001
      outer loop
         vertex 1.561788e-001 -6.515923e-002 -1.199998e-001
         vertex 1.423629e-001 -6.039076e-002 -2.000004e-001
         vertex 1.439626e-001 -5.810616e-002 -2.000004e-001
      endloop
   endfacet
   facet normal 8.799371e-001 -4.419935e-001 -1.742196e-001
      outer loop
         vertex 1.561788e-001 -6.515923e-002 -1.199998e-001
         vertex 1.439626e-001 -5.810616e-002 -2.000004e-001
         vertex 1.583967e-001 -6.040307e-002 -1.199998e-001
      endloop
   endfacet
   facet normal 9.041994e-001 -3.899629e-001 -1.742195e-001
      outer loop
         vertex 1.583967e-001 -6.040307e-002 -1.199998e-001
         vertex 1.439626e-001 -5.810616e-002 -2.000004e-001
         vertex 1.451412e-001 -5.557848e-002 -2.000004e-001
      endloop
   endfacet
   facet normal 9.433202e-001 -2.824792e-001 -1.742195e-001
      outer loop
         vertex 1.583967e-001 -6.040307e-002 -1.199998e-001
         vertex 1.451412e-001 -5.557848e-002 -2.000004e-001
         vertex 1.597549e-001 -5.533404e-002 -1.199998e-001
      endloop
   endfacet
   facet normal 9.581789e-001 -2.270260e-001 -1.742195e-001
      outer loop
         vertex 1.597549e-001 -5.533404e-002 -1.199998e-001
         vertex 1.451412e-001 -5.557848e-002 -2.000004e-001
         vertex 1.458631e-001 -5.288453e-002 -2.000004e-001
      endloop
   endfacet
   facet normal 9.780411e-001 -1.143818e-001 -1.742195e-001
      outer loop
         vertex 1.597549e-001 -5.533404e-002 -1.199998e-001
         vertex 1.458631e-001 -5.288453e-002 -2.000004e-001
         vertex 1.602123e-001 -5.010616e-002 -1.199998e-001
      endloop
   endfacet
   facet normal 9.830446e-001 -5.719093e-002 -1.742196e-001
      outer loop
         vertex 1.602123e-001 -5.010616e-002 -1.199998e-001
         vertex 1.458631e-001 -5.288453e-002 -2.000004e-001
         vertex 1.461062e-001 -5.010616e-002 -2.000004e-001
      endloop
   endfacet
   facet normal 9.830446e-001 5.719093e-002 -1.742196e-001
      outer loop
         vertex 1.602123e-001 -5.010616e-002 -1.199998e-001
         vertex 1.461062e-001 -5.010616e-002 -2.000004e-001
         vertex 1.597549e-001 -4.487828e-002 -1.199998e-001
      endloop
   endfacet
   facet normal 9.780411e-001 1.143818e-001 -1.742196e-001
      outer loop
         vertex 1.597549e-001 -4.487828e-002 -1.199998e-001
         vertex 1.461062e-001 -5.010616e-002 -2.000004e-001
         vertex 1.458631e-001 -4.732779e-002 -2.000004e-001
      endloop
   endfacet
   facet normal -1.982541e-016 0.000000e+000 -1.000000e+000
      outer loop
         vertex 1.198216e-001 -3.784945e-002 -2.000004e-001
         vertex 1.221062e-001 -3.624975e-002 -2.000004e-001
         vertex 1.423629e-001 -6.039076e-002 -2.000004e-001
      endloop
   endfacet
   facet normal -1.982541e-016 0.000000e+000 -1.000000e+000
      outer loop
         vertex 1.198216e-001 -3.784945e-002 -2.000004e-001
         vertex 1.423629e-001 -6.039076e-002 -2.000004e-001
         vertex 1.178494e-001 -3.982156e-002 -2.000004e-001
      endloop
   endfacet
   facet normal -1.982541e-016 0.000000e+000 -1.000000e+000
      outer loop
         vertex 1.178494e-001 -3.982156e-002 -2.000004e-001
         vertex 1.423629e-001 -6.039076e-002 -2.000004e-001
         vertex 1.403908e-001 -6.236286e-002 -2.000004e-001
      endloop
   endfacet
   facet normal -1.982541e-016 0.000000e+000 -1.000000e+000
      outer loop
         vertex 1.178494e-001 -3.982156e-002 -2.000004e-001
         vertex 1.403908e-001 -6.236286e-002 -2.000004e-001
         vertex 1.381062e-001 -6.396256e-002 -2.000004e-001
      endloop
   endfacet
   facet normal -1.982541e-016 0.000000e+000 -1.000000e+000
      outer loop
         vertex 1.143492e-001 -5.288453e-002 -2.000004e-001
         vertex 1.141062e-001 -5.010616e-002 -2.000004e-001
         vertex 1.328845e-001 -6.586308e-002 -2.000004e-001
      endloop
   endfacet
   facet normal -1.982541e-016 0.000000e+000 -1.000000e+000
      outer loop
         vertex 1.328845e-001 -6.586308e-002 -2.000004e-001
         vertex 1.141062e-001 -5.010616e-002 -2.000004e-001
         vertex 1.143492e-001 -4.732779e-002 -2.000004e-001
      endloop
   endfacet
   facet normal -1.982541e-016 0.000000e+000 -1.000000e+000
      outer loop
         vertex 1.301062e-001 -6.610616e-002 -2.000004e-001
         vertex 1.273278e-001 -6.586308e-002 -2.000004e-001
         vertex 1.328845e-001 -6.586308e-002 -2.000004e-001
      endloop
   endfacet
   facet normal -1.982541e-016 0.000000e+000 -1.000000e+000
      outer loop
         vertex 1.328845e-001 -6.586308e-002 -2.000004e-001
         vertex 1.273278e-001 -6.586308e-002 -2.000004e-001
         vertex 1.246338e-001 -6.514124e-002 -2.000004e-001
      endloop
   endfacet
   facet normal -1.982541e-016 0.000000e+000 -1.000000e+000
      outer loop
         vertex 1.246338e-001 -6.514124e-002 -2.000004e-001
         vertex 1.221062e-001 -6.396256e-002 -2.000004e-001
         vertex 1.328845e-001 -6.586308e-002 -2.000004e-001
      endloop
   endfacet
   facet normal -1.982541e-016 0.000000e+000 -1.000000e+000
      outer loop
         vertex 1.328845e-001 -6.586308e-002 -2.000004e-001
         vertex 1.221062e-001 -6.396256e-002 -2.000004e-001
         vertex 1.198216e-001 -6.236286e-002 -2.000004e-001
      endloop
   endfacet
   facet normal -1.982541e-016 0.000000e+000 -1.000000e+000
      outer loop
         vertex 1.328845e-001 -6.586308e-002 -2.000004e-001
         vertex 1.198216e-001 -6.236286e-002 -2.000004e-001
         vertex 1.178494e-001 -6.039076e-002 -2.000004e-001
      endloop
   endfacet
   facet normal -1.982541e-016 0.000000e+000 -1.000000e+000
      outer loop
         vertex 1.178494e-001 -6.039076e-002 -2.000004e-001
         vertex 1.162497e-001 -5.810616e-002 -2.000004e-001
         vertex 1.328845e-001 -6.586308e-002 -2.000004e-001
      endloop
   endfacet
   facet normal -1.982541e-016 0.000000e+000 -1.000000e+000
      outer loop
         vertex 1.328845e-001 -6.586308e-002 -2.000004e-001
         vertex 1.162497e-001 -5.810616e-002 -2.000004e-001
         vertex 1.150711e-001 -5.557848e-002 -2.000004e-001
      endloop
   endfacet
   facet normal -1.982541e-016 0.000000e+000 -1.000000e+000
      outer loop
         vertex 1.328845e-001 -6.586308e-002 -2.000004e-001
         vertex 1.150711e-001 -5.557848e-002 -2.000004e-001
         vertex 1.143492e-001 -5.288453e-002 -2.000004e-001
      endloop
   endfacet
   facet normal -1.982541e-016 0.000000e+000 -1.000000e+000
      outer loop
         vertex 1.381062e-001 -6.396256e-002 -2.000004e-001
         vertex 1.355785e-001 -6.514124e-002 -2.000004e-001
         vertex 1.178494e-001 -3.982156e-002 -2.000004e-001
      endloop
   endfacet
   facet normal -1.982541e-016 0.000000e+000 -1.000000e+000
      outer loop
         vertex 1.178494e-001 -3.982156e-002 -2.000004e-001
         vertex 1.355785e-001 -6.514124e-002 -2.000004e-001
         vertex 1.328845e-001 -6.586308e-002 -2.000004e-001
      endloop
   endfacet
   facet normal -1.982541e-016 0.000000e+000 -1.000000e+000
      outer loop
         vertex 1.178494e-001 -3.982156e-002 -2.000004e-001
         vertex 1.328845e-001 -6.586308e-002 -2.000004e-001
         vertex 1.162497e-001 -4.210616e-002 -2.000004e-001
      endloop
   endfacet
   facet normal -1.982541e-016 0.000000e+000 -1.000000e+000
      outer loop
         vertex 1.162497e-001 -4.210616e-002 -2.000004e-001
         vertex 1.328845e-001 -6.586308e-002 -2.000004e-001
         vertex 1.143492e-001 -4.732779e-002 -2.000004e-001
      endloop
   endfacet
   facet normal -1.982541e-016 0.000000e+000 -1.000000e+000
      outer loop
         vertex 1.162497e-001 -4.210616e-002 -2.000004e-001
         vertex 1.143492e-001 -4.732779e-002 -2.000004e-001
         vertex 1.150711e-001 -4.463384e-002 -2.000004e-001
      endloop
   endfacet
   facet normal -1.982541e-016 0.000000e+000 -1.000000e+000
      outer loop
         vertex 1.246338e-001 -3.507107e-002 -2.000004e-001
         vertex 1.451412e-001 -5.557848e-002 -2.000004e-001
         vertex 1.221062e-001 -3.624975e-002 -2.000004e-001
      endloop
   endfacet
   facet normal -1.982541e-016 0.000000e+000 -1.000000e+000
      outer loop
         vertex 1.221062e-001 -3.624975e-002 -2.000004e-001
         vertex 1.451412e-001 -5.557848e-002 -2.000004e-001
         vertex 1.439626e-001 -5.810616e-002 -2.000004e-001
      endloop
   endfacet
   facet normal -1.982541e-016 0.000000e+000 -1.000000e+000
      outer loop
         vertex 1.221062e-001 -3.624975e-002 -2.000004e-001
         vertex 1.439626e-001 -5.810616e-002 -2.000004e-001
         vertex 1.423629e-001 -6.039076e-002 -2.000004e-001
      endloop
   endfacet
   facet normal -1.982541e-016 0.000000e+000 -1.000000e+000
      outer loop
         vertex 1.246338e-001 -3.507107e-002 -2.000004e-001
         vertex 1.273278e-001 -3.434923e-002 -2.000004e-001
         vertex 1.451412e-001 -5.557848e-002 -2.000004e-001
      endloop
   endfacet
   facet normal -1.982541e-016 0.000000e+000 -1.000000e+000
      outer loop
         vertex 1.451412e-001 -5.557848e-002 -2.000004e-001
         vertex 1.273278e-001 -3.434923e-002 -2.000004e-001
         vertex 1.301062e-001 -3.410616e-002 -2.000004e-001
      endloop
   endfacet
   facet normal -1.982541e-016 0.000000e+000 -1.000000e+000
      outer loop
         vertex 1.451412e-001 -5.557848e-002 -2.000004e-001
         vertex 1.301062e-001 -3.410616e-002 -2.000004e-001
         vertex 1.328845e-001 -3.434923e-002 -2.000004e-001
      endloop
   endfacet
   facet normal -1.982541e-016 0.000000e+000 -1.000000e+000
      outer loop
         vertex 1.403908e-001 -3.784945e-002 -2.000004e-001
         vertex 1.423629e-001 -3.982156e-002 -2.000004e-001
         vertex 1.451412e-001 -5.557848e-002 -2.000004e-001
      endloop
   endfacet
   facet normal -1.982541e-016 0.000000e+000 -1.000000e+000
      outer loop
         vertex 1.451412e-001 -5.557848e-002 -2.000004e-001
         vertex 1.423629e-001 -3.982156e-002 -2.000004e-001
         vertex 1.439626e-001 -4.210616e-002 -2.000004e-001
      endloop
   endfacet
   facet normal -1.982541e-016 0.000000e+000 -1.000000e+000
      outer loop
         vertex 1.328845e-001 -3.434923e-002 -2.000004e-001
         vertex 1.355785e-001 -3.507107e-002 -2.000004e-001
         vertex 1.451412e-001 -5.557848e-002 -2.000004e-001
      endloop
   endfacet
   facet normal -1.982541e-016 0.000000e+000 -1.000000e+000
      outer loop
         vertex 1.451412e-001 -5.557848e-002 -2.000004e-001
         vertex 1.355785e-001 -3.507107e-002 -2.000004e-001
         vertex 1.381062e-001 -3.624975e-002 -2.000004e-001
      endloop
   endfacet
   facet normal -1.982541e-016 0.000000e+000 -1.000000e+000
      outer loop
         vertex 1.451412e-001 -5.557848e-002 -2.000004e-001
         vertex 1.381062e-001 -3.624975e-002 -2.000004e-001
         vertex 1.403908e-001 -3.784945e-002 -2.000004e-001
      endloop
   endfacet
   facet normal -1.982541e-016 0.000000e+000 -1.000000e+000
      outer loop
         vertex 1.439626e-001 -4.210616e-002 -2.000004e-001
         vertex 1.451412e-001 -4.463384e-002 -2.000004e-001
         vertex 1.451412e-001 -5.557848e-002 -2.000004e-001
      endloop
   endfacet
   facet normal -1.982541e-016 0.000000e+000 -1.000000e+000
      outer loop
         vertex 1.451412e-001 -5.557848e-002 -2.000004e-001
         vertex 1.451412e-001 -4.463384e-002 -2.000004e-001
         vertex 1.458631e-001 -4.732779e-002 -2.000004e-001
      endloop
   endfacet
   facet normal -1.982541e-016 0.000000e+000 -1.000000e+000
      outer loop
         vertex 1.451412e-001 -5.557848e-002 -2.000004e-001
         vertex 1.458631e-001 -4.732779e-002 -2.000004e-001
         vertex 1.458631e-001 -5.288453e-002 -2.000004e-001
      endloop
   endfacet
   facet normal -1.982541e-016 0.000000e+000 -1.000000e+000
      outer loop
         vertex 1.458631e-001 -5.288453e-002 -2.000004e-001
         vertex 1.458631e-001 -4.732779e-002 -2.000004e-001
         vertex 1.461062e-001 -5.010616e-002 -2.000004e-001
      endloop
   endfacet
endsolid