solid Самолёт - Двигатель^Самолёт-1
   facet normal 1.982541e-016 0.000000e+000 1.000000e+000
      outer loop
         vertex 1.659347e+002 1.979939e+001 1.401442e+002
         vertex 1.656524e+002 2.053488e+001 1.401442e+002
         vertex 1.572117e+002 1.011150e+001 1.401442e+002
      endloop
   endfacet
   facet normal 1.982541e-016 0.000000e+000 1.000000e+000
      outer loop
         vertex 1.572117e+002 1.011150e+001 1.401442e+002
         vertex 1.656524e+002 2.053488e+001 1.401442e+002
         vertex 1.564507e+002 1.031540e+001 1.401442e+002
      endloop
   endfacet
   facet normal 1.982541e-016 0.000000e+000 1.000000e+000
      outer loop
         vertex 1.656524e+002 2.053488e+001 1.401442e+002
         vertex 1.522584e+002 1.371029e+001 1.401442e+002
         vertex 1.526874e+002 1.304957e+001 1.401442e+002
      endloop
   endfacet
   facet normal 1.982541e-016 0.000000e+000 1.000000e+000
      outer loop
         vertex 1.603414e+002 2.483563e+001 1.401442e+002
         vertex 1.595633e+002 2.495887e+001 1.401442e+002
         vertex 1.587765e+002 2.500010e+001 1.401442e+002
      endloop
   endfacet
   facet normal 1.982541e-016 0.000000e+000 1.000000e+000
      outer loop
         vertex 1.662619e+002 1.826030e+001 1.401442e+002
         vertex 1.661386e+002 1.903842e+001 1.401442e+002
         vertex 1.659347e+002 1.979939e+001 1.401442e+002
      endloop
   endfacet
   facet normal 1.982541e-016 0.000000e+000 1.000000e+000
      outer loop
         vertex 1.522584e+002 1.371029e+001 1.401442e+002
         vertex 1.656524e+002 2.053488e+001 1.401442e+002
         vertex 1.519007e+002 1.441224e+001 1.401442e+002
      endloop
   endfacet
   facet normal 1.982541e-016 0.000000e+000 1.000000e+000
      outer loop
         vertex 1.519007e+002 1.441224e+001 1.401442e+002
         vertex 1.656524e+002 2.053488e+001 1.401442e+002
         vertex 1.652947e+002 2.123683e+001 1.401442e+002
      endloop
   endfacet
   facet normal 1.982541e-016 0.000000e+000 1.000000e+000
      outer loop
         vertex 1.519007e+002 1.441224e+001 1.401442e+002
         vertex 1.652947e+002 2.123683e+001 1.401442e+002
         vertex 1.648656e+002 2.189755e+001 1.401442e+002
      endloop
   endfacet
   facet normal 1.982541e-016 0.000000e+000 1.000000e+000
      outer loop
         vertex 1.625398e+002 2.399174e+001 1.401442e+002
         vertex 1.519007e+002 1.441224e+001 1.401442e+002
         vertex 1.632005e+002 2.356266e+001 1.401442e+002
      endloop
   endfacet
   facet normal 1.982541e-016 0.000000e+000 1.000000e+000
      outer loop
         vertex 1.632005e+002 2.356266e+001 1.401442e+002
         vertex 1.519007e+002 1.441224e+001 1.401442e+002
         vertex 1.648656e+002 2.189755e+001 1.401442e+002
      endloop
   endfacet
   facet normal 1.982541e-016 0.000000e+000 1.000000e+000
      outer loop
         vertex 1.632005e+002 2.356266e+001 1.401442e+002
         vertex 1.648656e+002 2.189755e+001 1.401442e+002
         vertex 1.638128e+002 2.306687e+001 1.401442e+002
      endloop
   endfacet
   facet normal 1.982541e-016 0.000000e+000 1.000000e+000
      outer loop
         vertex 1.638128e+002 2.306687e+001 1.401442e+002
         vertex 1.648656e+002 2.189755e+001 1.401442e+002
         vertex 1.643699e+002 2.250980e+001 1.401442e+002
      endloop
   endfacet
   facet normal 1.982541e-016 0.000000e+000 1.000000e+000
      outer loop
         vertex 1.625398e+002 2.399174e+001 1.401442e+002
         vertex 1.618379e+002 2.434940e+001 1.401442e+002
         vertex 1.519007e+002 1.441224e+001 1.401442e+002
      endloop
   endfacet
   facet normal 1.982541e-016 0.000000e+000 1.000000e+000
      outer loop
         vertex 1.519007e+002 1.441224e+001 1.401442e+002
         vertex 1.618379e+002 2.434940e+001 1.401442e+002
         vertex 1.611024e+002 2.463173e+001 1.401442e+002
      endloop
   endfacet
   facet normal 1.982541e-016 0.000000e+000 1.000000e+000
      outer loop
         vertex 1.519007e+002 1.441224e+001 1.401442e+002
         vertex 1.611024e+002 2.463173e+001 1.401442e+002
         vertex 1.603414e+002 2.483563e+001 1.401442e+002
      endloop
   endfacet
   facet normal 1.982541e-016 0.000000e+000 1.000000e+000
      outer loop
         vertex 1.526874e+002 1.304957e+001 1.401442e+002
         vertex 1.531832e+002 1.243732e+001 1.401442e+002
         vertex 1.656524e+002 2.053488e+001 1.401442e+002
      endloop
   endfacet
   facet normal 1.982541e-016 0.000000e+000 1.000000e+000
      outer loop
         vertex 1.656524e+002 2.053488e+001 1.401442e+002
         vertex 1.531832e+002 1.243732e+001 1.401442e+002
         vertex 1.537403e+002 1.188025e+001 1.401442e+002
      endloop
   endfacet
   facet normal 1.982541e-016 0.000000e+000 1.000000e+000
      outer loop
         vertex 1.656524e+002 2.053488e+001 1.401442e+002
         vertex 1.537403e+002 1.188025e+001 1.401442e+002
         vertex 1.543525e+002 1.138446e+001 1.401442e+002
      endloop
   endfacet
   facet normal 1.982541e-016 0.000000e+000 1.000000e+000
      outer loop
         vertex 1.543525e+002 1.138446e+001 1.401442e+002
         vertex 1.550133e+002 1.095539e+001 1.401442e+002
         vertex 1.656524e+002 2.053488e+001 1.401442e+002
      endloop
   endfacet
   facet normal 1.982541e-016 0.000000e+000 1.000000e+000
      outer loop
         vertex 1.656524e+002 2.053488e+001 1.401442e+002
         vertex 1.550133e+002 1.095539e+001 1.401442e+002
         vertex 1.557152e+002 1.059773e+001 1.401442e+002
      endloop
   endfacet
   facet normal 1.982541e-016 0.000000e+000 1.000000e+000
      outer loop
         vertex 1.656524e+002 2.053488e+001 1.401442e+002
         vertex 1.557152e+002 1.059773e+001 1.401442e+002
         vertex 1.564507e+002 1.031540e+001 1.401442e+002
      endloop
   endfacet
   facet normal 1.982541e-016 0.000000e+000 1.000000e+000
      outer loop
         vertex 1.603414e+002 2.483563e+001 1.401442e+002
         vertex 1.587765e+002 2.500010e+001 1.401442e+002
         vertex 1.519007e+002 1.441224e+001 1.401442e+002
      endloop
   endfacet
   facet normal 1.982541e-016 0.000000e+000 1.000000e+000
      outer loop
         vertex 1.519007e+002 1.441224e+001 1.401442e+002
         vertex 1.587765e+002 2.500010e+001 1.401442e+002
         vertex 1.579898e+002 2.495887e+001 1.401442e+002
      endloop
   endfacet
   facet normal 1.982541e-016 0.000000e+000 1.000000e+000
      outer loop
         vertex 1.519007e+002 1.441224e+001 1.401442e+002
         vertex 1.579898e+002 2.495887e+001 1.401442e+002
         vertex 1.516184e+002 1.514773e+001 1.401442e+002
      endloop
   endfacet
   facet normal 1.982541e-016 0.000000e+000 1.000000e+000
      outer loop
         vertex 1.516184e+002 1.514773e+001 1.401442e+002
         vertex 1.579898e+002 2.495887e+001 1.401442e+002
         vertex 1.512912e+002 1.668682e+001 1.401442e+002
      endloop
   endfacet
   facet normal 1.982541e-016 0.000000e+000 1.000000e+000
      outer loop
         vertex 1.516184e+002 1.514773e+001 1.401442e+002
         vertex 1.512912e+002 1.668682e+001 1.401442e+002
         vertex 1.514145e+002 1.590870e+001 1.401442e+002
      endloop
   endfacet
   facet normal 1.982541e-016 0.000000e+000 1.000000e+000
      outer loop
         vertex 1.572117e+002 2.483563e+001 1.401442e+002
         vertex 1.512912e+002 1.826030e+001 1.401442e+002
         vertex 1.579898e+002 2.495887e+001 1.401442e+002
      endloop
   endfacet
   facet normal 1.982541e-016 0.000000e+000 1.000000e+000
      outer loop
         vertex 1.579898e+002 2.495887e+001 1.401442e+002
         vertex 1.512912e+002 1.826030e+001 1.401442e+002
         vertex 1.512500e+002 1.747356e+001 1.401442e+002
      endloop
   endfacet
   facet normal 1.982541e-016 0.000000e+000 1.000000e+000
      outer loop
         vertex 1.579898e+002 2.495887e+001 1.401442e+002
         vertex 1.512500e+002 1.747356e+001 1.401442e+002
         vertex 1.512912e+002 1.668682e+001 1.401442e+002
      endloop
   endfacet
   facet normal 1.982541e-016 0.000000e+000 1.000000e+000
      outer loop
         vertex 1.659347e+002 1.979939e+001 1.401442e+002
         vertex 1.572117e+002 1.011150e+001 1.401442e+002
         vertex 1.662619e+002 1.826030e+001 1.401442e+002
      endloop
   endfacet
   facet normal 1.982541e-016 0.000000e+000 1.000000e+000
      outer loop
         vertex 1.662619e+002 1.826030e+001 1.401442e+002
         vertex 1.572117e+002 1.011150e+001 1.401442e+002
         vertex 1.579898e+002 9.988253e+000 1.401442e+002
      endloop
   endfacet
   facet normal 1.982541e-016 0.000000e+000 1.000000e+000
      outer loop
         vertex 1.662619e+002 1.826030e+001 1.401442e+002
         vertex 1.579898e+002 9.988253e+000 1.401442e+002
         vertex 1.587765e+002 9.947021e+000 1.401442e+002
      endloop
   endfacet
   facet normal 1.982541e-016 0.000000e+000 1.000000e+000
      outer loop
         vertex 1.587765e+002 9.947021e+000 1.401442e+002
         vertex 1.595633e+002 9.988253e+000 1.401442e+002
         vertex 1.662619e+002 1.826030e+001 1.401442e+002
      endloop
   endfacet
   facet normal 1.982541e-016 0.000000e+000 1.000000e+000
      outer loop
         vertex 1.662619e+002 1.826030e+001 1.401442e+002
         vertex 1.595633e+002 9.988253e+000 1.401442e+002
         vertex 1.603414e+002 1.011150e+001 1.401442e+002
      endloop
   endfacet
   facet normal 1.982541e-016 0.000000e+000 1.000000e+000
      outer loop
         vertex 1.662619e+002 1.826030e+001 1.401442e+002
         vertex 1.603414e+002 1.011150e+001 1.401442e+002
         vertex 1.611024e+002 1.031540e+001 1.401442e+002
      endloop
   endfacet
   facet normal 1.982541e-016 0.000000e+000 1.000000e+000
      outer loop
         vertex 1.611024e+002 1.031540e+001 1.401442e+002
         vertex 1.618379e+002 1.059773e+001 1.401442e+002
         vertex 1.662619e+002 1.826030e+001 1.401442e+002
      endloop
   endfacet
   facet normal 1.982541e-016 0.000000e+000 1.000000e+000
      outer loop
         vertex 1.662619e+002 1.826030e+001 1.401442e+002
         vertex 1.618379e+002 1.059773e+001 1.401442e+002
         vertex 1.625398e+002 1.095539e+001 1.401442e+002
      endloop
   endfacet
   facet normal 1.982541e-016 0.000000e+000 1.000000e+000
      outer loop
         vertex 1.662619e+002 1.826030e+001 1.401442e+002
         vertex 1.625398e+002 1.095539e+001 1.401442e+002
         vertex 1.632005e+002 1.138446e+001 1.401442e+002
      endloop
   endfacet
   facet normal 1.982541e-016 0.000000e+000 1.000000e+000
      outer loop
         vertex 1.572117e+002 2.483563e+001 1.401442e+002
         vertex 1.564507e+002 2.463173e+001 1.401442e+002
         vertex 1.512912e+002 1.826030e+001 1.401442e+002
      endloop
   endfacet
   facet normal 1.982541e-016 0.000000e+000 1.000000e+000
      outer loop
         vertex 1.512912e+002 1.826030e+001 1.401442e+002
         vertex 1.564507e+002 2.463173e+001 1.401442e+002
         vertex 1.557152e+002 2.434940e+001 1.401442e+002
      endloop
   endfacet
   facet normal 1.982541e-016 0.000000e+000 1.000000e+000
      outer loop
         vertex 1.512912e+002 1.826030e+001 1.401442e+002
         vertex 1.557152e+002 2.434940e+001 1.401442e+002
         vertex 1.550133e+002 2.399174e+001 1.401442e+002
      endloop
   endfacet
   facet normal 1.982541e-016 0.000000e+000 1.000000e+000
      outer loop
         vertex 1.522584e+002 2.123683e+001 1.401442e+002
         vertex 1.519007e+002 2.053488e+001 1.401442e+002
         vertex 1.526874e+002 2.189755e+001 1.401442e+002
      endloop
   endfacet
   facet normal 1.982541e-016 0.000000e+000 1.000000e+000
      outer loop
         vertex 1.526874e+002 2.189755e+001 1.401442e+002
         vertex 1.519007e+002 2.053488e+001 1.401442e+002
         vertex 1.516184e+002 1.979939e+001 1.401442e+002
      endloop
   endfacet
   facet normal 1.982541e-016 0.000000e+000 1.000000e+000
      outer loop
         vertex 1.526874e+002 2.189755e+001 1.401442e+002
         vertex 1.516184e+002 1.979939e+001 1.401442e+002
         vertex 1.531832e+002 2.250980e+001 1.401442e+002
      endloop
   endfacet
   facet normal 1.982541e-016 0.000000e+000 1.000000e+000
      outer loop
         vertex 1.531832e+002 2.250980e+001 1.401442e+002
         vertex 1.516184e+002 1.979939e+001 1.401442e+002
         vertex 1.514145e+002 1.903842e+001 1.401442e+002
      endloop
   endfacet
   facet normal 1.982541e-016 0.000000e+000 1.000000e+000
      outer loop
         vertex 1.531832e+002 2.250980e+001 1.401442e+002
         vertex 1.514145e+002 1.903842e+001 1.401442e+002
         vertex 1.537403e+002 2.306687e+001 1.401442e+002
      endloop
   endfacet
   facet normal 1.982541e-016 0.000000e+000 1.000000e+000
      outer loop
         vertex 1.537403e+002 2.306687e+001 1.401442e+002
         vertex 1.514145e+002 1.903842e+001 1.401442e+002
         vertex 1.512912e+002 1.826030e+001 1.401442e+002
      endloop
   endfacet
   facet normal 1.982541e-016 0.000000e+000 1.000000e+000
      outer loop
         vertex 1.537403e+002 2.306687e+001 1.401442e+002
         vertex 1.512912e+002 1.826030e+001 1.401442e+002
         vertex 1.543525e+002 2.356266e+001 1.401442e+002
      endloop
   endfacet
   facet normal 1.982541e-016 0.000000e+000 1.000000e+000
      outer loop
         vertex 1.543525e+002 2.356266e+001 1.401442e+002
         vertex 1.512912e+002 1.826030e+001 1.401442e+002
         vertex 1.550133e+002 2.399174e+001 1.401442e+002
      endloop
   endfacet
   facet normal 1.982541e-016 0.000000e+000 1.000000e+000
      outer loop
         vertex 1.632005e+002 1.138446e+001 1.401442e+002
         vertex 1.638128e+002 1.188025e+001 1.401442e+002
         vertex 1.662619e+002 1.826030e+001 1.401442e+002
      endloop
   endfacet
   facet normal 1.982541e-016 0.000000e+000 1.000000e+000
      outer loop
         vertex 1.662619e+002 1.826030e+001 1.401442e+002
         vertex 1.638128e+002 1.188025e+001 1.401442e+002
         vertex 1.643699e+002 1.243732e+001 1.401442e+002
      endloop
   endfacet
   facet normal 1.982541e-016 0.000000e+000 1.000000e+000
      outer loop
         vertex 1.662619e+002 1.826030e+001 1.401442e+002
         vertex 1.643699e+002 1.243732e+001 1.401442e+002
         vertex 1.648656e+002 1.304957e+001 1.401442e+002
      endloop
   endfacet
   facet normal 1.982541e-016 0.000000e+000 1.000000e+000
      outer loop
         vertex 1.648656e+002 1.304957e+001 1.401442e+002
         vertex 1.652947e+002 1.371029e+001 1.401442e+002
         vertex 1.662619e+002 1.826030e+001 1.401442e+002
      endloop
   endfacet
   facet normal 1.982541e-016 0.000000e+000 1.000000e+000
      outer loop
         vertex 1.662619e+002 1.826030e+001 1.401442e+002
         vertex 1.652947e+002 1.371029e+001 1.401442e+002
         vertex 1.656524e+002 1.441224e+001 1.401442e+002
      endloop
   endfacet
   facet normal 1.982541e-016 0.000000e+000 1.000000e+000
      outer loop
         vertex 1.662619e+002 1.826030e+001 1.401442e+002
         vertex 1.656524e+002 1.441224e+001 1.401442e+002
         vertex 1.659347e+002 1.514773e+001 1.401442e+002
      endloop
   endfacet
   facet normal 1.982541e-016 0.000000e+000 1.000000e+000
      outer loop
         vertex 1.659347e+002 1.514773e+001 1.401442e+002
         vertex 1.661386e+002 1.590870e+001 1.401442e+002
         vertex 1.662619e+002 1.826030e+001 1.401442e+002
      endloop
   endfacet
   facet normal 1.982541e-016 0.000000e+000 1.000000e+000
      outer loop
         vertex 1.662619e+002 1.826030e+001 1.401442e+002
         vertex 1.661386e+002 1.590870e+001 1.401442e+002
         vertex 1.662619e+002 1.668682e+001 1.401442e+002
      endloop
   endfacet
   facet normal 1.982541e-016 0.000000e+000 1.000000e+000
      outer loop
         vertex 1.662619e+002 1.826030e+001 1.401442e+002
         vertex 1.662619e+002 1.668682e+001 1.401442e+002
         vertex 1.663031e+002 1.747356e+001 1.401442e+002
      endloop
   endfacet
   facet normal -9.993913e-001 3.488532e-002 1.981334e-016
      outer loop
         vertex 1.512912e+002 1.826030e+001 1.401442e+002
         vertex 1.512500e+002 1.747356e+001 9.014422e+001
         vertex 1.512500e+002 1.747356e+001 1.401442e+002
      endloop
   endfacet
   facet normal -9.993913e-001 -3.488532e-002 1.981334e-016
      outer loop
         vertex 1.512500e+002 1.747356e+001 1.401442e+002
         vertex 1.512500e+002 1.747356e+001 9.014422e+001
         vertex 1.512912e+002 1.668682e+001 9.014422e+001
      endloop
   endfacet
   facet normal -9.975631e-001 -6.977064e-002 1.977710e-016
      outer loop
         vertex 1.512500e+002 1.747356e+001 1.401442e+002
         vertex 1.512912e+002 1.668682e+001 9.014422e+001
         vertex 1.512912e+002 1.668682e+001 1.401442e+002
      endloop
   endfacet
   facet normal -9.902700e-001 -1.391590e-001 1.963251e-016
      outer loop
         vertex 1.512912e+002 1.668682e+001 1.401442e+002
         vertex 1.512912e+002 1.668682e+001 9.014422e+001
         vertex 1.514145e+002 1.590870e+001 9.014422e+001
      endloop
   endfacet
   facet normal -9.848053e-001 -1.736622e-001 1.952417e-016
      outer loop
         vertex 1.512912e+002 1.668682e+001 1.401442e+002
         vertex 1.514145e+002 1.590870e+001 9.014422e+001
         vertex 1.514145e+002 1.590870e+001 1.401442e+002
      endloop
   endfacet
   facet normal -9.702992e-001 -2.419081e-001 1.923658e-016
      outer loop
         vertex 1.514145e+002 1.590870e+001 1.401442e+002
         vertex 1.514145e+002 1.590870e+001 9.014422e+001
         vertex 1.516184e+002 1.514773e+001 9.014422e+001
      endloop
   endfacet
   facet normal -9.612578e-001 -2.756510e-001 1.905733e-016
      outer loop
         vertex 1.514145e+002 1.590870e+001 1.401442e+002
         vertex 1.516184e+002 1.514773e+001 9.014422e+001
         vertex 1.516184e+002 1.514773e+001 1.401442e+002
      endloop
   endfacet
   facet normal -9.396975e-001 -3.420068e-001 1.862989e-016
      outer loop
         vertex 1.516184e+002 1.514773e+001 1.401442e+002
         vertex 1.516184e+002 1.514773e+001 9.014422e+001
         vertex 1.519007e+002 1.441224e+001 9.014422e+001
      endloop
   endfacet
   facet normal -9.271786e-001 -3.746197e-001 1.838170e-016
      outer loop
         vertex 1.516184e+002 1.514773e+001 1.401442e+002
         vertex 1.519007e+002 1.441224e+001 9.014422e+001
         vertex 1.519007e+002 1.441224e+001 1.401442e+002
      endloop
   endfacet
   facet normal -8.988003e-001 -4.383584e-001 1.781909e-016
      outer loop
         vertex 1.519007e+002 1.441224e+001 1.401442e+002
         vertex 1.519007e+002 1.441224e+001 9.014422e+001
         vertex 1.522584e+002 1.371029e+001 9.014422e+001
      endloop
   endfacet
   facet normal -8.829409e-001 -4.694841e-001 1.750467e-016
      outer loop
         vertex 1.519007e+002 1.441224e+001 1.401442e+002
         vertex 1.522584e+002 1.371029e+001 9.014422e+001
         vertex 1.522584e+002 1.371029e+001 1.401442e+002
      endloop
   endfacet
   facet normal -8.480556e-001 -5.299072e-001 1.681305e-016
      outer loop
         vertex 1.522584e+002 1.371029e+001 1.401442e+002
         vertex 1.522584e+002 1.371029e+001 9.014422e+001
         vertex 1.526874e+002 1.304957e+001 9.014422e+001
      endloop
   endfacet
   facet normal -8.290296e-001 -5.592046e-001 1.643585e-016
      outer loop
         vertex 1.522584e+002 1.371029e+001 1.401442e+002
         vertex 1.526874e+002 1.304957e+001 9.014422e+001
         vertex 1.526874e+002 1.304957e+001 1.401442e+002
      endloop
   endfacet
   facet normal -7.880195e-001 -6.156502e-001 1.562281e-016
      outer loop
         vertex 1.526874e+002 1.304957e+001 1.401442e+002
         vertex 1.526874e+002 1.304957e+001 9.014422e+001
         vertex 1.531832e+002 1.243732e+001 9.014422e+001
      endloop
   endfacet
   facet normal -7.660353e-001 -6.427984e-001 1.518696e-016
      outer loop
         vertex 1.526874e+002 1.304957e+001 1.401442e+002
         vertex 1.531832e+002 1.243732e+001 9.014422e+001
         vertex 1.531832e+002 1.243732e+001 1.401442e+002
      endloop
   endfacet
   facet normal -7.193496e-001 -6.946481e-001 1.426140e-016
      outer loop
         vertex 1.531832e+002 1.243732e+001 1.401442e+002
         vertex 1.531832e+002 1.243732e+001 9.014422e+001
         vertex 1.537403e+002 1.188025e+001 9.014422e+001
      endloop
   endfacet
   facet normal -6.946481e-001 -7.193496e-001 1.377168e-016
      outer loop
         vertex 1.531832e+002 1.243732e+001 1.401442e+002
         vertex 1.537403e+002 1.188025e+001 9.014422e+001
         vertex 1.537403e+002 1.188025e+001 1.401442e+002
      endloop
   endfacet
   facet normal -6.427985e-001 -7.660353e-001 1.274374e-016
      outer loop
         vertex 1.537403e+002 1.188025e+001 1.401442e+002
         vertex 1.537403e+002 1.188025e+001 9.014422e+001
         vertex 1.543525e+002 1.138446e+001 9.014422e+001
      endloop
   endfacet
   facet normal -6.156502e-001 -7.880195e-001 1.220552e-016
      outer loop
         vertex 1.537403e+002 1.188025e+001 1.401442e+002
         vertex 1.543525e+002 1.138446e+001 9.014422e+001
         vertex 1.543525e+002 1.138446e+001 1.401442e+002
      endloop
   endfacet
   facet normal -5.592046e-001 -8.290296e-001 1.108646e-016
      outer loop
         vertex 1.543525e+002 1.138446e+001 1.401442e+002
         vertex 1.543525e+002 1.138446e+001 9.014422e+001
         vertex 1.550133e+002 1.095539e+001 9.014422e+001
      endloop
   endfacet
   facet normal -5.299072e-001 -8.480556e-001 1.050563e-016
      outer loop
         vertex 1.543525e+002 1.138446e+001 1.401442e+002
         vertex 1.550133e+002 1.095539e+001 9.014422e+001
         vertex 1.550133e+002 1.095539e+001 1.401442e+002
      endloop
   endfacet
   facet normal -4.694841e-001 -8.829409e-001 9.307715e-017
      outer loop
         vertex 1.550133e+002 1.095539e+001 1.401442e+002
         vertex 1.550133e+002 1.095539e+001 9.014422e+001
         vertex 1.557152e+002 1.059773e+001 9.014422e+001
      endloop
   endfacet
   facet normal -4.383584e-001 -8.988003e-001 8.690636e-017
      outer loop
         vertex 1.550133e+002 1.095539e+001 1.401442e+002
         vertex 1.557152e+002 1.059773e+001 9.014422e+001
         vertex 1.557152e+002 1.059773e+001 1.401442e+002
      endloop
   endfacet
   facet normal -3.746197e-001 -9.271786e-001 7.426991e-017
      outer loop
         vertex 1.557152e+002 1.059773e+001 1.401442e+002
         vertex 1.557152e+002 1.059773e+001 9.014422e+001
         vertex 1.564507e+002 1.031540e+001 9.014422e+001
      endloop
   endfacet
   facet normal -3.420068e-001 -9.396974e-001 6.780425e-017
      outer loop
         vertex 1.557152e+002 1.059773e+001 1.401442e+002
         vertex 1.564507e+002 1.031540e+001 9.014422e+001
         vertex 1.564507e+002 1.031540e+001 1.401442e+002
      endloop
   endfacet
   facet normal -2.756510e-001 -9.612578e-001 5.464895e-017
      outer loop
         vertex 1.564507e+002 1.031540e+001 1.401442e+002
         vertex 1.564507e+002 1.031540e+001 9.014422e+001
         vertex 1.572117e+002 1.011150e+001 9.014422e+001
      endloop
   endfacet
   facet normal -2.419081e-001 -9.702992e-001 4.795928e-017
      outer loop
         vertex 1.564507e+002 1.031540e+001 1.401442e+002
         vertex 1.572117e+002 1.011150e+001 9.014422e+001
         vertex 1.572117e+002 1.011150e+001 1.401442e+002
      endloop
   endfacet
   facet normal -1.736622e-001 -9.848053e-001 3.442924e-017
      outer loop
         vertex 1.572117e+002 1.011150e+001 1.401442e+002
         vertex 1.572117e+002 1.011150e+001 9.014422e+001
         vertex 1.579898e+002 9.988253e+000 9.014422e+001
      endloop
   endfacet
   facet normal -1.391590e-001 -9.902700e-001 2.758885e-017
      outer loop
         vertex 1.572117e+002 1.011150e+001 1.401442e+002
         vertex 1.579898e+002 9.988253e+000 9.014422e+001
         vertex 1.579898e+002 9.988253e+000 1.401442e+002
      endloop
   endfacet
   facet normal -6.977064e-002 -9.975631e-001 1.383231e-017
      outer loop
         vertex 1.579898e+002 9.988253e+000 1.401442e+002
         vertex 1.579898e+002 9.988253e+000 9.014422e+001
         vertex 1.587765e+002 9.947021e+000 9.014422e+001
      endloop
   endfacet
   facet normal -3.488532e-002 -9.993913e-001 6.916157e-018
      outer loop
         vertex 1.579898e+002 9.988253e+000 1.401442e+002
         vertex 1.587765e+002 9.947021e+000 9.014422e+001
         vertex 1.587765e+002 9.947021e+000 1.401442e+002
      endloop
   endfacet
   facet normal 3.488532e-002 -9.993913e-001 -6.916157e-018
      outer loop
         vertex 1.587765e+002 9.947021e+000 1.401442e+002
         vertex 1.587765e+002 9.947021e+000 9.014422e+001
         vertex 1.595633e+002 9.988253e+000 9.014422e+001
      endloop
   endfacet
   facet normal 6.977064e-002 -9.975631e-001 -1.383231e-017
      outer loop
         vertex 1.587765e+002 9.947021e+000 1.401442e+002
         vertex 1.595633e+002 9.988253e+000 9.014422e+001
         vertex 1.595633e+002 9.988253e+000 1.401442e+002
      endloop
   endfacet
   facet normal 1.391590e-001 -9.902700e-001 -2.758885e-017
      outer loop
         vertex 1.595633e+002 9.988253e+000 1.401442e+002
         vertex 1.595633e+002 9.988253e+000 9.014422e+001
         vertex 1.603414e+002 1.011150e+001 9.014422e+001
      endloop
   endfacet
   facet normal 1.736622e-001 -9.848053e-001 -3.442924e-017
      outer loop
         vertex 1.595633e+002 9.988253e+000 1.401442e+002
         vertex 1.603414e+002 1.011150e+001 9.014422e+001
         vertex 1.603414e+002 1.011150e+001 1.401442e+002
      endloop
   endfacet
   facet normal 2.419081e-001 -9.702992e-001 -4.795928e-017
      outer loop
         vertex 1.603414e+002 1.011150e+001 1.401442e+002
         vertex 1.603414e+002 1.011150e+001 9.014422e+001
         vertex 1.611024e+002 1.031540e+001 9.014422e+001
      endloop
   endfacet
   facet normal 2.756510e-001 -9.612578e-001 -5.464894e-017
      outer loop
         vertex 1.603414e+002 1.011150e+001 1.401442e+002
         vertex 1.611024e+002 1.031540e+001 9.014422e+001
         vertex 1.611024e+002 1.031540e+001 1.401442e+002
      endloop
   endfacet
   facet normal 3.420068e-001 -9.396975e-001 -6.780425e-017
      outer loop
         vertex 1.611024e+002 1.031540e+001 1.401442e+002
         vertex 1.611024e+002 1.031540e+001 9.014422e+001
         vertex 1.618379e+002 1.059773e+001 9.014422e+001
      endloop
   endfacet
   facet normal 3.746197e-001 -9.271786e-001 -7.426991e-017
      outer loop
         vertex 1.611024e+002 1.031540e+001 1.401442e+002
         vertex 1.618379e+002 1.059773e+001 9.014422e+001
         vertex 1.618379e+002 1.059773e+001 1.401442e+002
      endloop
   endfacet
   facet normal 4.383584e-001 -8.988003e-001 -8.690636e-017
      outer loop
         vertex 1.618379e+002 1.059773e+001 1.401442e+002
         vertex 1.618379e+002 1.059773e+001 9.014422e+001
         vertex 1.625398e+002 1.095539e+001 9.014422e+001
      endloop
   endfacet
   facet normal 4.694841e-001 -8.829409e-001 -9.307715e-017
      outer loop
         vertex 1.618379e+002 1.059773e+001 1.401442e+002
         vertex 1.625398e+002 1.095539e+001 9.014422e+001
         vertex 1.625398e+002 1.095539e+001 1.401442e+002
      endloop
   endfacet
   facet normal 5.299072e-001 -8.480556e-001 -1.050563e-016
      outer loop
         vertex 1.625398e+002 1.095539e+001 1.401442e+002
         vertex 1.625398e+002 1.095539e+001 9.014422e+001
         vertex 1.632005e+002 1.138446e+001 9.014422e+001
      endloop
   endfacet
   facet normal 5.592046e-001 -8.290296e-001 -1.108646e-016
      outer loop
         vertex 1.625398e+002 1.095539e+001 1.401442e+002
         vertex 1.632005e+002 1.138446e+001 9.014422e+001
         vertex 1.632005e+002 1.138446e+001 1.401442e+002
      endloop
   endfacet
   facet normal 6.156502e-001 -7.880195e-001 -1.220552e-016
      outer loop
         vertex 1.632005e+002 1.138446e+001 1.401442e+002
         vertex 1.632005e+002 1.138446e+001 9.014422e+001
         vertex 1.638128e+002 1.188025e+001 9.014422e+001
      endloop
   endfacet
   facet normal 6.427984e-001 -7.660353e-001 -1.274374e-016
      outer loop
         vertex 1.632005e+002 1.138446e+001 1.401442e+002
         vertex 1.638128e+002 1.188025e+001 9.014422e+001
         vertex 1.638128e+002 1.188025e+001 1.401442e+002
      endloop
   endfacet
   facet normal 6.946481e-001 -7.193496e-001 -1.377168e-016
      outer loop
         vertex 1.638128e+002 1.188025e+001 1.401442e+002
         vertex 1.638128e+002 1.188025e+001 9.014422e+001
         vertex 1.643699e+002 1.243732e+001 9.014422e+001
      endloop
   endfacet
   facet normal 7.193496e-001 -6.946481e-001 -1.426140e-016
      outer loop
         vertex 1.638128e+002 1.188025e+001 1.401442e+002
         vertex 1.643699e+002 1.243732e+001 9.014422e+001
         vertex 1.643699e+002 1.243732e+001 1.401442e+002
      endloop
   endfacet
   facet normal 7.660353e-001 -6.427985e-001 -1.518696e-016
      outer loop
         vertex 1.643699e+002 1.243732e+001 1.401442e+002
         vertex 1.643699e+002 1.243732e+001 9.014422e+001
         vertex 1.648656e+002 1.304957e+001 9.014422e+001
      endloop
   endfacet
   facet normal 7.880195e-001 -6.156502e-001 -1.562281e-016
      outer loop
         vertex 1.643699e+002 1.243732e+001 1.401442e+002
         vertex 1.648656e+002 1.304957e+001 9.014422e+001
         vertex 1.648656e+002 1.304957e+001 1.401442e+002
      endloop
   endfacet
   facet normal 8.290296e-001 -5.592046e-001 -1.643585e-016
      outer loop
         vertex 1.648656e+002 1.304957e+001 1.401442e+002
         vertex 1.648656e+002 1.304957e+001 9.014422e+001
         vertex 1.652947e+002 1.371029e+001 9.014422e+001
      endloop
   endfacet
   facet normal 8.480556e-001 -5.299072e-001 -1.681305e-016
      outer loop
         vertex 1.648656e+002 1.304957e+001 1.401442e+002
         vertex 1.652947e+002 1.371029e+001 9.014422e+001
         vertex 1.652947e+002 1.371029e+001 1.401442e+002
      endloop
   endfacet
   facet normal 8.829409e-001 -4.694841e-001 -1.750467e-016
      outer loop
         vertex 1.652947e+002 1.371029e+001 1.401442e+002
         vertex 1.652947e+002 1.371029e+001 9.014422e+001
         vertex 1.656524e+002 1.441224e+001 9.014422e+001
      endloop
   endfacet
   facet normal 8.988003e-001 -4.383584e-001 -1.781909e-016
      outer loop
         vertex 1.652947e+002 1.371029e+001 1.401442e+002
         vertex 1.656524e+002 1.441224e+001 9.014422e+001
         vertex 1.656524e+002 1.441224e+001 1.401442e+002
      endloop
   endfacet
   facet normal 9.271786e-001 -3.746197e-001 -1.838170e-016
      outer loop
         vertex 1.656524e+002 1.441224e+001 1.401442e+002
         vertex 1.656524e+002 1.441224e+001 9.014422e+001
         vertex 1.659347e+002 1.514773e+001 9.014422e+001
      endloop
   endfacet
   facet normal 9.396974e-001 -3.420068e-001 -1.862989e-016
      outer loop
         vertex 1.656524e+002 1.441224e+001 1.401442e+002
         vertex 1.659347e+002 1.514773e+001 9.014422e+001
         vertex 1.659347e+002 1.514773e+001 1.401442e+002
      endloop
   endfacet
   facet normal 9.612578e-001 -2.756510e-001 -1.905733e-016
      outer loop
         vertex 1.659347e+002 1.514773e+001 1.401442e+002
         vertex 1.659347e+002 1.514773e+001 9.014422e+001
         vertex 1.661386e+002 1.590870e+001 9.014422e+001
      endloop
   endfacet
   facet normal 9.702992e-001 -2.419081e-001 -1.923658e-016
      outer loop
         vertex 1.659347e+002 1.514773e+001 1.401442e+002
         vertex 1.661386e+002 1.590870e+001 9.014422e+001
         vertex 1.661386e+002 1.590870e+001 1.401442e+002
      endloop
   endfacet
   facet normal 9.848053e-001 -1.736622e-001 -1.952417e-016
      outer loop
         vertex 1.661386e+002 1.590870e+001 1.401442e+002
         vertex 1.661386e+002 1.590870e+001 9.014422e+001
         vertex 1.662619e+002 1.668682e+001 9.014422e+001
      endloop
   endfacet
   facet normal 9.902700e-001 -1.391590e-001 -1.963251e-016
      outer loop
         vertex 1.661386e+002 1.590870e+001 1.401442e+002
         vertex 1.662619e+002 1.668682e+001 9.014422e+001
         vertex 1.662619e+002 1.668682e+001 1.401442e+002
      endloop
   endfacet
   facet normal 9.975631e-001 -6.977064e-002 -1.977710e-016
      outer loop
         vertex 1.662619e+002 1.668682e+001 1.401442e+002
         vertex 1.662619e+002 1.668682e+001 9.014422e+001
         vertex 1.663031e+002 1.747356e+001 9.014422e+001
      endloop
   endfacet
   facet normal 9.993913e-001 -3.488532e-002 -1.981334e-016
      outer loop
         vertex 1.662619e+002 1.668682e+001 1.401442e+002
         vertex 1.663031e+002 1.747356e+001 9.014422e+001
         vertex 1.663031e+002 1.747356e+001 1.401442e+002
      endloop
   endfacet
   facet normal 9.993913e-001 3.488532e-002 -1.981334e-016
      outer loop
         vertex 1.663031e+002 1.747356e+001 1.401442e+002
         vertex 1.663031e+002 1.747356e+001 9.014422e+001
         vertex 1.662619e+002 1.826030e+001 9.014422e+001
      endloop
   endfacet
   facet normal 9.975631e-001 6.977064e-002 -1.977710e-016
      outer loop
         vertex 1.663031e+002 1.747356e+001 1.401442e+002
         vertex 1.662619e+002 1.826030e+001 9.014422e+001
         vertex 1.662619e+002 1.826030e+001 1.401442e+002
      endloop
   endfacet
   facet normal 9.902700e-001 1.391590e-001 -1.963251e-016
      outer loop
         vertex 1.662619e+002 1.826030e+001 1.401442e+002
         vertex 1.662619e+002 1.826030e+001 9.014422e+001
         vertex 1.661386e+002 1.903842e+001 9.014422e+001
      endloop
   endfacet
   facet normal 9.848053e-001 1.736622e-001 -1.952417e-016
      outer loop
         vertex 1.662619e+002 1.826030e+001 1.401442e+002
         vertex 1.661386e+002 1.903842e+001 9.014422e+001
         vertex 1.661386e+002 1.903842e+001 1.401442e+002
      endloop
   endfacet
   facet normal 9.702992e-001 2.419081e-001 -1.923658e-016
      outer loop
         vertex 1.661386e+002 1.903842e+001 1.401442e+002
         vertex 1.661386e+002 1.903842e+001 9.014422e+001
         vertex 1.659347e+002 1.979939e+001 9.014422e+001
      endloop
   endfacet
   facet normal 9.612578e-001 2.756510e-001 -1.905733e-016
      outer loop
         vertex 1.661386e+002 1.903842e+001 1.401442e+002
         vertex 1.659347e+002 1.979939e+001 9.014422e+001
         vertex 1.659347e+002 1.979939e+001 1.401442e+002
      endloop
   endfacet
   facet normal 9.396975e-001 3.420068e-001 -1.862989e-016
      outer loop
         vertex 1.659347e+002 1.979939e+001 1.401442e+002
         vertex 1.659347e+002 1.979939e+001 9.014422e+001
         vertex 1.656524e+002 2.053488e+001 9.014422e+001
      endloop
   endfacet
   facet normal 9.271786e-001 3.746197e-001 -1.838170e-016
      outer loop
         vertex 1.659347e+002 1.979939e+001 1.401442e+002
         vertex 1.656524e+002 2.053488e+001 9.014422e+001
         vertex 1.656524e+002 2.053488e+001 1.401442e+002
      endloop
   endfacet
   facet normal 8.988003e-001 4.383584e-001 -1.781909e-016
      outer loop
         vertex 1.656524e+002 2.053488e+001 1.401442e+002
         vertex 1.656524e+002 2.053488e+001 9.014422e+001
         vertex 1.652947e+002 2.123683e+001 9.014422e+001
      endloop
   endfacet
   facet normal 8.829409e-001 4.694841e-001 -1.750467e-016
      outer loop
         vertex 1.656524e+002 2.053488e+001 1.401442e+002
         vertex 1.652947e+002 2.123683e+001 9.014422e+001
         vertex 1.652947e+002 2.123683e+001 1.401442e+002
      endloop
   endfacet
   facet normal 8.480556e-001 5.299072e-001 -1.681305e-016
      outer loop
         vertex 1.652947e+002 2.123683e+001 1.401442e+002
         vertex 1.652947e+002 2.123683e+001 9.014422e+001
         vertex 1.648656e+002 2.189755e+001 9.014422e+001
      endloop
   endfacet
   facet normal 8.290296e-001 5.592046e-001 -1.643585e-016
      outer loop
         vertex 1.652947e+002 2.123683e+001 1.401442e+002
         vertex 1.648656e+002 2.189755e+001 9.014422e+001
         vertex 1.648656e+002 2.189755e+001 1.401442e+002
      endloop
   endfacet
   facet normal 7.880195e-001 6.156502e-001 -1.562281e-016
      outer loop
         vertex 1.648656e+002 2.189755e+001 1.401442e+002
         vertex 1.648656e+002 2.189755e+001 9.014422e+001
         vertex 1.643699e+002 2.250980e+001 9.014422e+001
      endloop
   endfacet
   facet normal 7.660353e-001 6.427984e-001 -1.518696e-016
      outer loop
         vertex 1.648656e+002 2.189755e+001 1.401442e+002
         vertex 1.643699e+002 2.250980e+001 9.014422e+001
         vertex 1.643699e+002 2.250980e+001 1.401442e+002
      endloop
   endfacet
   facet normal 7.193496e-001 6.946481e-001 -1.426140e-016
      outer loop
         vertex 1.643699e+002 2.250980e+001 1.401442e+002
         vertex 1.643699e+002 2.250980e+001 9.014422e+001
         vertex 1.638128e+002 2.306687e+001 9.014422e+001
      endloop
   endfacet
   facet normal 6.946481e-001 7.193496e-001 -1.377168e-016
      outer loop
         vertex 1.643699e+002 2.250980e+001 1.401442e+002
         vertex 1.638128e+002 2.306687e+001 9.014422e+001
         vertex 1.638128e+002 2.306687e+001 1.401442e+002
      endloop
   endfacet
   facet normal 6.427985e-001 7.660353e-001 -1.274374e-016
      outer loop
         vertex 1.638128e+002 2.306687e+001 1.401442e+002
         vertex 1.638128e+002 2.306687e+001 9.014422e+001
         vertex 1.632005e+002 2.356266e+001 9.014422e+001
      endloop
   endfacet
   facet normal 6.156502e-001 7.880195e-001 -1.220552e-016
      outer loop
         vertex 1.638128e+002 2.306687e+001 1.401442e+002
         vertex 1.632005e+002 2.356266e+001 9.014422e+001
         vertex 1.632005e+002 2.356266e+001 1.401442e+002
      endloop
   endfacet
   facet normal 5.592046e-001 8.290296e-001 -1.108646e-016
      outer loop
         vertex 1.632005e+002 2.356266e+001 1.401442e+002
         vertex 1.632005e+002 2.356266e+001 9.014422e+001
         vertex 1.625398e+002 2.399174e+001 9.014422e+001
      endloop
   endfacet
   facet normal 5.299072e-001 8.480556e-001 -1.050563e-016
      outer loop
         vertex 1.632005e+002 2.356266e+001 1.401442e+002
         vertex 1.625398e+002 2.399174e+001 9.014422e+001
         vertex 1.625398e+002 2.399174e+001 1.401442e+002
      endloop
   endfacet
   facet normal 4.694841e-001 8.829409e-001 -9.307715e-017
      outer loop
         vertex 1.625398e+002 2.399174e+001 1.401442e+002
         vertex 1.625398e+002 2.399174e+001 9.014422e+001
         vertex 1.618379e+002 2.434940e+001 9.014422e+001
      endloop
   endfacet
   facet normal 4.383584e-001 8.988003e-001 -8.690636e-017
      outer loop
         vertex 1.625398e+002 2.399174e+001 1.401442e+002
         vertex 1.618379e+002 2.434940e+001 9.014422e+001
         vertex 1.618379e+002 2.434940e+001 1.401442e+002
      endloop
   endfacet
   facet normal 3.746197e-001 9.271786e-001 -7.426991e-017
      outer loop
         vertex 1.618379e+002 2.434940e+001 1.401442e+002
         vertex 1.618379e+002 2.434940e+001 9.014422e+001
         vertex 1.611024e+002 2.463173e+001 9.014422e+001
      endloop
   endfacet
   facet normal 3.420068e-001 9.396974e-001 -6.780425e-017
      outer loop
         vertex 1.618379e+002 2.434940e+001 1.401442e+002
         vertex 1.611024e+002 2.463173e+001 9.014422e+001
         vertex 1.611024e+002 2.463173e+001 1.401442e+002
      endloop
   endfacet
   facet normal 2.756510e-001 9.612578e-001 -5.464895e-017
      outer loop
         vertex 1.611024e+002 2.463173e+001 1.401442e+002
         vertex 1.611024e+002 2.463173e+001 9.014422e+001
         vertex 1.603414e+002 2.483563e+001 9.014422e+001
      endloop
   endfacet
   facet normal 2.419081e-001 9.702992e-001 -4.795928e-017
      outer loop
         vertex 1.611024e+002 2.463173e+001 1.401442e+002
         vertex 1.603414e+002 2.483563e+001 9.014422e+001
         vertex 1.603414e+002 2.483563e+001 1.401442e+002
      endloop
   endfacet
   facet normal 1.736622e-001 9.848053e-001 -3.442924e-017
      outer loop
         vertex 1.603414e+002 2.483563e+001 1.401442e+002
         vertex 1.603414e+002 2.483563e+001 9.014422e+001
         vertex 1.595633e+002 2.495887e+001 9.014422e+001
      endloop
   endfacet
   facet normal 1.391590e-001 9.902700e-001 -2.758885e-017
      outer loop
         vertex 1.603414e+002 2.483563e+001 1.401442e+002
         vertex 1.595633e+002 2.495887e+001 9.014422e+001
         vertex 1.595633e+002 2.495887e+001 1.401442e+002
      endloop
   endfacet
   facet normal 6.977064e-002 9.975631e-001 -1.383231e-017
      outer loop
         vertex 1.595633e+002 2.495887e+001 1.401442e+002
         vertex 1.595633e+002 2.495887e+001 9.014422e+001
         vertex 1.587765e+002 2.500010e+001 9.014422e+001
      endloop
   endfacet
   facet normal 3.488532e-002 9.993913e-001 -6.916157e-018
      outer loop
         vertex 1.595633e+002 2.495887e+001 1.401442e+002
         vertex 1.587765e+002 2.500010e+001 9.014422e+001
         vertex 1.587765e+002 2.500010e+001 1.401442e+002
      endloop
   endfacet
   facet normal -3.488532e-002 9.993913e-001 6.916157e-018
      outer loop
         vertex 1.587765e+002 2.500010e+001 1.401442e+002
         vertex 1.587765e+002 2.500010e+001 9.014422e+001
         vertex 1.579898e+002 2.495887e+001 9.014422e+001
      endloop
   endfacet
   facet normal -6.977064e-002 9.975631e-001 1.383231e-017
      outer loop
         vertex 1.587765e+002 2.500010e+001 1.401442e+002
         vertex 1.579898e+002 2.495887e+001 9.014422e+001
         vertex 1.579898e+002 2.495887e+001 1.401442e+002
      endloop
   endfacet
   facet normal -1.391590e-001 9.902700e-001 2.758885e-017
      outer loop
         vertex 1.579898e+002 2.495887e+001 1.401442e+002
         vertex 1.579898e+002 2.495887e+001 9.014422e+001
         vertex 1.572117e+002 2.483563e+001 9.014422e+001
      endloop
   endfacet
   facet normal -1.736622e-001 9.848053e-001 3.442924e-017
      outer loop
         vertex 1.579898e+002 2.495887e+001 1.401442e+002
         vertex 1.572117e+002 2.483563e+001 9.014422e+001
         vertex 1.572117e+002 2.483563e+001 1.401442e+002
      endloop
   endfacet
   facet normal -2.419081e-001 9.702992e-001 4.795928e-017
      outer loop
         vertex 1.572117e+002 2.483563e+001 1.401442e+002
         vertex 1.572117e+002 2.483563e+001 9.014422e+001
         vertex 1.564507e+002 2.463173e+001 9.014422e+001
      endloop
   endfacet
   facet normal -2.756510e-001 9.612578e-001 5.464894e-017
      outer loop
         vertex 1.572117e+002 2.483563e+001 1.401442e+002
         vertex 1.564507e+002 2.463173e+001 9.014422e+001
         vertex 1.564507e+002 2.463173e+001 1.401442e+002
      endloop
   endfacet
   facet normal -3.420068e-001 9.396975e-001 6.780425e-017
      outer loop
         vertex 1.564507e+002 2.463173e+001 1.401442e+002
         vertex 1.564507e+002 2.463173e+001 9.014422e+001
         vertex 1.557152e+002 2.434940e+001 9.014422e+001
      endloop
   endfacet
   facet normal -3.746197e-001 9.271786e-001 7.426991e-017
      outer loop
         vertex 1.564507e+002 2.463173e+001 1.401442e+002
         vertex 1.557152e+002 2.434940e+001 9.014422e+001
         vertex 1.557152e+002 2.434940e+001 1.401442e+002
      endloop
   endfacet
   facet normal -4.383584e-001 8.988003e-001 8.690636e-017
      outer loop
         vertex 1.557152e+002 2.434940e+001 1.401442e+002
         vertex 1.557152e+002 2.434940e+001 9.014422e+001
         vertex 1.550133e+002 2.399174e+001 9.014422e+001
      endloop
   endfacet
   facet normal -4.694841e-001 8.829409e-001 9.307715e-017
      outer loop
         vertex 1.557152e+002 2.434940e+001 1.401442e+002
         vertex 1.550133e+002 2.399174e+001 9.014422e+001
         vertex 1.550133e+002 2.399174e+001 1.401442e+002
      endloop
   endfacet
   facet normal -5.299072e-001 8.480556e-001 1.050563e-016
      outer loop
         vertex 1.550133e+002 2.399174e+001 1.401442e+002
         vertex 1.550133e+002 2.399174e+001 9.014422e+001
         vertex 1.543525e+002 2.356266e+001 9.014422e+001
      endloop
   endfacet
   facet normal -5.592046e-001 8.290296e-001 1.108646e-016
      outer loop
         vertex 1.550133e+002 2.399174e+001 1.401442e+002
         vertex 1.543525e+002 2.356266e+001 9.014422e+001
         vertex 1.543525e+002 2.356266e+001 1.401442e+002
      endloop
   endfacet
   facet normal -6.156502e-001 7.880195e-001 1.220552e-016
      outer loop
         vertex 1.543525e+002 2.356266e+001 1.401442e+002
         vertex 1.543525e+002 2.356266e+001 9.014422e+001
         vertex 1.537403e+002 2.306687e+001 9.014422e+001
      endloop
   endfacet
   facet normal -6.427984e-001 7.660353e-001 1.274374e-016
      outer loop
         vertex 1.543525e+002 2.356266e+001 1.401442e+002
         vertex 1.537403e+002 2.306687e+001 9.014422e+001
         vertex 1.537403e+002 2.306687e+001 1.401442e+002
      endloop
   endfacet
   facet normal -6.946481e-001 7.193496e-001 1.377168e-016
      outer loop
         vertex 1.537403e+002 2.306687e+001 1.401442e+002
         vertex 1.537403e+002 2.306687e+001 9.014422e+001
         vertex 1.531832e+002 2.250980e+001 9.014422e+001
      endloop
   endfacet
   facet normal -7.193496e-001 6.946481e-001 1.426140e-016
      outer loop
         vertex 1.537403e+002 2.306687e+001 1.401442e+002
         vertex 1.531832e+002 2.250980e+001 9.014422e+001
         vertex 1.531832e+002 2.250980e+001 1.401442e+002
      endloop
   endfacet
   facet normal -7.660353e-001 6.427985e-001 1.518696e-016
      outer loop
         vertex 1.531832e+002 2.250980e+001 1.401442e+002
         vertex 1.531832e+002 2.250980e+001 9.014422e+001
         vertex 1.526874e+002 2.189755e+001 9.014422e+001
      endloop
   endfacet
   facet normal -7.880195e-001 6.156502e-001 1.562281e-016
      outer loop
         vertex 1.531832e+002 2.250980e+001 1.401442e+002
         vertex 1.526874e+002 2.189755e+001 9.014422e+001
         vertex 1.526874e+002 2.189755e+001 1.401442e+002
      endloop
   endfacet
   facet normal -8.290296e-001 5.592046e-001 1.643585e-016
      outer loop
         vertex 1.526874e+002 2.189755e+001 1.401442e+002
         vertex 1.526874e+002 2.189755e+001 9.014422e+001
         vertex 1.522584e+002 2.123683e+001 9.014422e+001
      endloop
   endfacet
   facet normal -8.480556e-001 5.299072e-001 1.681305e-016
      outer loop
         vertex 1.526874e+002 2.189755e+001 1.401442e+002
         vertex 1.522584e+002 2.123683e+001 9.014422e+001
         vertex 1.522584e+002 2.123683e+001 1.401442e+002
      endloop
   endfacet
   facet normal -8.829409e-001 4.694841e-001 1.750467e-016
      outer loop
         vertex 1.522584e+002 2.123683e+001 1.401442e+002
         vertex 1.522584e+002 2.123683e+001 9.014422e+001
         vertex 1.519007e+002 2.053488e+001 9.014422e+001
      endloop
   endfacet
   facet normal -8.988003e-001 4.383584e-001 1.781909e-016
      outer loop
         vertex 1.522584e+002 2.123683e+001 1.401442e+002
         vertex 1.519007e+002 2.053488e+001 9.014422e+001
         vertex 1.519007e+002 2.053488e+001 1.401442e+002
      endloop
   endfacet
   facet normal -9.271786e-001 3.746197e-001 1.838170e-016
      outer loop
         vertex 1.519007e+002 2.053488e+001 1.401442e+002
         vertex 1.519007e+002 2.053488e+001 9.014422e+001
         vertex 1.516184e+002 1.979939e+001 9.014422e+001
      endloop
   endfacet
   facet normal -9.396974e-001 3.420068e-001 1.862989e-016
      outer loop
         vertex 1.519007e+002 2.053488e+001 1.401442e+002
         vertex 1.516184e+002 1.979939e+001 9.014422e+001
         vertex 1.516184e+002 1.979939e+001 1.401442e+002
      endloop
   endfacet
   facet normal -9.612578e-001 2.756510e-001 1.905733e-016
      outer loop
         vertex 1.516184e+002 1.979939e+001 1.401442e+002
         vertex 1.516184e+002 1.979939e+001 9.014422e+001
         vertex 1.514145e+002 1.903842e+001 9.014422e+001
      endloop
   endfacet
   facet normal -9.702992e-001 2.419081e-001 1.923658e-016
      outer loop
         vertex 1.516184e+002 1.979939e+001 1.401442e+002
         vertex 1.514145e+002 1.903842e+001 9.014422e+001
         vertex 1.514145e+002 1.903842e+001 1.401442e+002
      endloop
   endfacet
   facet normal -9.848053e-001 1.736622e-001 1.952417e-016
      outer loop
         vertex 1.514145e+002 1.903842e+001 1.401442e+002
         vertex 1.514145e+002 1.903842e+001 9.014422e+001
         vertex 1.512912e+002 1.826030e+001 9.014422e+001
      endloop
   endfacet
   facet normal -9.902700e-001 1.391590e-001 1.963251e-016
      outer loop
         vertex 1.514145e+002 1.903842e+001 1.401442e+002
         vertex 1.512912e+002 1.826030e+001 9.014422e+001
         vertex 1.512912e+002 1.826030e+001 1.401442e+002
      endloop
   endfacet
   facet normal -9.975631e-001 6.977064e-002 1.977710e-016
      outer loop
         vertex 1.512912e+002 1.826030e+001 1.401442e+002
         vertex 1.512912e+002 1.826030e+001 9.014422e+001
         vertex 1.512500e+002 1.747356e+001 9.014422e+001
      endloop
   endfacet
   facet normal 9.751897e-001 1.370399e-001 -1.738536e-001
      outer loop
         vertex 1.662619e+002 1.826030e+001 9.014422e+001
         vertex 1.627546e+002 1.789168e+001 7.014421e+001
         vertex 1.661386e+002 1.903842e+001 9.014422e+001
      endloop
   endfacet
   facet normal 9.698082e-001 1.710175e-001 -1.738536e-001
      outer loop
         vertex 1.661386e+002 1.903842e+001 9.014422e+001
         vertex 1.627546e+002 1.789168e+001 7.014421e+001
         vertex 1.626891e+002 1.830521e+001 7.014421e+001
      endloop
   endfacet
   facet normal 9.555230e-001 2.382242e-001 -1.738536e-001
      outer loop
         vertex 1.661386e+002 1.903842e+001 9.014422e+001
         vertex 1.626891e+002 1.830521e+001 7.014421e+001
         vertex 1.659347e+002 1.979939e+001 9.014422e+001
      endloop
   endfacet
   facet normal 9.466193e-001 2.714533e-001 -1.738535e-001
      outer loop
         vertex 1.659347e+002 1.979939e+001 9.014422e+001
         vertex 1.626891e+002 1.830521e+001 7.014421e+001
         vertex 1.625808e+002 1.870963e+001 7.014421e+001
      endloop
   endfacet
   facet normal 9.253873e-001 3.367985e-001 -1.738535e-001
      outer loop
         vertex 1.659347e+002 1.979939e+001 9.014422e+001
         vertex 1.625808e+002 1.870963e+001 7.014421e+001
         vertex 1.656524e+002 2.053488e+001 9.014422e+001
      endloop
   endfacet
   facet normal 9.130590e-001 3.689148e-001 -1.738535e-001
      outer loop
         vertex 1.656524e+002 2.053488e+001 9.014422e+001
         vertex 1.625808e+002 1.870963e+001 7.014421e+001
         vertex 1.624307e+002 1.910051e+001 7.014421e+001
      endloop
   endfacet
   facet normal 8.851129e-001 4.316829e-001 -1.738536e-001
      outer loop
         vertex 1.656524e+002 2.053488e+001 9.014422e+001
         vertex 1.624307e+002 1.910051e+001 7.014421e+001
         vertex 1.652947e+002 2.123683e+001 9.014422e+001
      endloop
   endfacet
   facet normal 8.694951e-001 4.623345e-001 -1.738535e-001
      outer loop
         vertex 1.652947e+002 2.123683e+001 9.014422e+001
         vertex 1.624307e+002 1.910051e+001 7.014421e+001
         vertex 1.622406e+002 1.947356e+001 7.014421e+001
      endloop
   endfacet
   facet normal 8.351410e-001 5.218375e-001 -1.738535e-001
      outer loop
         vertex 1.652947e+002 2.123683e+001 9.014422e+001
         vertex 1.622406e+002 1.947356e+001 7.014421e+001
         vertex 1.648656e+002 2.189755e+001 9.014422e+001
      endloop
   endfacet
   facet normal 8.164048e-001 5.506888e-001 -1.738535e-001
      outer loop
         vertex 1.648656e+002 2.189755e+001 9.014422e+001
         vertex 1.622406e+002 1.947356e+001 7.014421e+001
         vertex 1.620126e+002 1.982470e+001 7.014421e+001
      endloop
   endfacet
   facet normal 7.760192e-001 6.062748e-001 -1.738536e-001
      outer loop
         vertex 1.648656e+002 2.189755e+001 9.014422e+001
         vertex 1.620126e+002 1.982470e+001 7.014421e+001
         vertex 1.643699e+002 2.250980e+001 9.014422e+001
      endloop
   endfacet
   facet normal 7.543698e-001 6.330096e-001 -1.738536e-001
      outer loop
         vertex 1.643699e+002 2.250980e+001 9.014422e+001
         vertex 1.620126e+002 1.982470e+001 7.014421e+001
         vertex 1.617491e+002 2.015008e+001 7.014421e+001
      endloop
   endfacet
   facet normal 7.083951e-001 6.840698e-001 -1.738536e-001
      outer loop
         vertex 1.643699e+002 2.250980e+001 9.014422e+001
         vertex 1.617491e+002 2.015008e+001 7.014421e+001
         vertex 1.638128e+002 2.306687e+001 9.014422e+001
      endloop
   endfacet
   facet normal 6.840698e-001 7.083951e-001 -1.738536e-001
      outer loop
         vertex 1.638128e+002 2.306687e+001 9.014422e+001
         vertex 1.617491e+002 2.015008e+001 7.014421e+001
         vertex 1.614530e+002 2.044614e+001 7.014421e+001
      endloop
   endfacet
   facet normal 6.330096e-001 7.543698e-001 -1.738536e-001
      outer loop
         vertex 1.638128e+002 2.306687e+001 9.014422e+001
         vertex 1.614530e+002 2.044614e+001 7.014421e+001
         vertex 1.632005e+002 2.356266e+001 9.014422e+001
      endloop
   endfacet
   facet normal 6.062748e-001 7.760192e-001 -1.738536e-001
      outer loop
         vertex 1.632005e+002 2.356266e+001 9.014422e+001
         vertex 1.614530e+002 2.044614e+001 7.014421e+001
         vertex 1.611277e+002 2.070963e+001 7.014421e+001
      endloop
   endfacet
   facet normal 5.506888e-001 8.164048e-001 -1.738535e-001
      outer loop
         vertex 1.632005e+002 2.356266e+001 9.014422e+001
         vertex 1.611277e+002 2.070963e+001 7.014421e+001
         vertex 1.625398e+002 2.399174e+001 9.014422e+001
      endloop
   endfacet
   facet normal 5.218375e-001 8.351410e-001 -1.738536e-001
      outer loop
         vertex 1.625398e+002 2.399174e+001 9.014422e+001
         vertex 1.611277e+002 2.070963e+001 7.014421e+001
         vertex 1.607765e+002 2.093766e+001 7.014421e+001
      endloop
   endfacet
   facet normal 4.623345e-001 8.694951e-001 -1.738535e-001
      outer loop
         vertex 1.625398e+002 2.399174e+001 9.014422e+001
         vertex 1.607765e+002 2.093766e+001 7.014421e+001
         vertex 1.618379e+002 2.434940e+001 9.014422e+001
      endloop
   endfacet
   facet normal 4.316829e-001 8.851129e-001 -1.738536e-001
      outer loop
         vertex 1.618379e+002 2.434940e+001 9.014422e+001
         vertex 1.607765e+002 2.093766e+001 7.014421e+001
         vertex 1.604035e+002 2.112774e+001 7.014421e+001
      endloop
   endfacet
   facet normal 3.689148e-001 9.130590e-001 -1.738535e-001
      outer loop
         vertex 1.618379e+002 2.434940e+001 9.014422e+001
         vertex 1.604035e+002 2.112774e+001 7.014421e+001
         vertex 1.611024e+002 2.463173e+001 9.014422e+001
      endloop
   endfacet
   facet normal 3.367986e-001 9.253873e-001 -1.738535e-001
      outer loop
         vertex 1.611024e+002 2.463173e+001 9.014422e+001
         vertex 1.604035e+002 2.112774e+001 7.014421e+001
         vertex 1.600126e+002 2.127779e+001 7.014421e+001
      endloop
   endfacet
   facet normal 2.714532e-001 9.466193e-001 -1.738535e-001
      outer loop
         vertex 1.611024e+002 2.463173e+001 9.014422e+001
         vertex 1.600126e+002 2.127779e+001 7.014421e+001
         vertex 1.603414e+002 2.483563e+001 9.014422e+001
      endloop
   endfacet
   facet normal 2.382242e-001 9.555230e-001 -1.738536e-001
      outer loop
         vertex 1.603414e+002 2.483563e+001 9.014422e+001
         vertex 1.600126e+002 2.127779e+001 7.014421e+001
         vertex 1.596082e+002 2.138615e+001 7.014421e+001
      endloop
   endfacet
   facet normal 1.710175e-001 9.698082e-001 -1.738536e-001
      outer loop
         vertex 1.603414e+002 2.483563e+001 9.014422e+001
         vertex 1.596082e+002 2.138615e+001 7.014421e+001
         vertex 1.595633e+002 2.495887e+001 9.014422e+001
      endloop
   endfacet
   facet normal 1.370399e-001 9.751897e-001 -1.738536e-001
      outer loop
         vertex 1.595633e+002 2.495887e+001 9.014422e+001
         vertex 1.596082e+002 2.138615e+001 7.014421e+001
         vertex 1.591946e+002 2.145165e+001 7.014421e+001
      endloop
   endfacet
   facet normal 6.870813e-002 9.823717e-001 -1.738535e-001
      outer loop
         vertex 1.595633e+002 2.495887e+001 9.014422e+001
         vertex 1.591946e+002 2.145165e+001 7.014421e+001
         vertex 1.587765e+002 2.500010e+001 9.014422e+001
      endloop
   endfacet
   facet normal 3.435407e-002 9.841721e-001 -1.738536e-001
      outer loop
         vertex 1.587765e+002 2.500010e+001 9.014422e+001
         vertex 1.591946e+002 2.145165e+001 7.014421e+001
         vertex 1.587765e+002 2.147356e+001 7.014421e+001
      endloop
   endfacet
   facet normal -3.435407e-002 9.841721e-001 -1.738536e-001
      outer loop
         vertex 1.587765e+002 2.500010e+001 9.014422e+001
         vertex 1.587765e+002 2.147356e+001 7.014421e+001
         vertex 1.579898e+002 2.495887e+001 9.014422e+001
      endloop
   endfacet
   facet normal -6.870813e-002 9.823717e-001 -1.738536e-001
      outer loop
         vertex 1.579898e+002 2.495887e+001 9.014422e+001
         vertex 1.587765e+002 2.147356e+001 7.014421e+001
         vertex 1.583584e+002 2.145165e+001 7.014421e+001
      endloop
   endfacet
   facet normal -1.370399e-001 9.751897e-001 -1.738536e-001
      outer loop
         vertex 1.579898e+002 2.495887e+001 9.014422e+001
         vertex 1.583584e+002 2.145165e+001 7.014421e+001
         vertex 1.572117e+002 2.483563e+001 9.014422e+001
      endloop
   endfacet
   facet normal -1.710175e-001 9.698082e-001 -1.738536e-001
      outer loop
         vertex 1.572117e+002 2.483563e+001 9.014422e+001
         vertex 1.583584e+002 2.145165e+001 7.014421e+001
         vertex 1.579449e+002 2.138615e+001 7.014421e+001
      endloop
   endfacet
   facet normal -2.382242e-001 9.555230e-001 -1.738536e-001
      outer loop
         vertex 1.572117e+002 2.483563e+001 9.014422e+001
         vertex 1.579449e+002 2.138615e+001 7.014421e+001
         vertex 1.564507e+002 2.463173e+001 9.014422e+001
      endloop
   endfacet
   facet normal -2.714533e-001 9.466193e-001 -1.738535e-001
      outer loop
         vertex 1.564507e+002 2.463173e+001 9.014422e+001
         vertex 1.579449e+002 2.138615e+001 7.014421e+001
         vertex 1.575405e+002 2.127779e+001 7.014421e+001
      endloop
   endfacet
   facet normal -3.367985e-001 9.253873e-001 -1.738535e-001
      outer loop
         vertex 1.564507e+002 2.463173e+001 9.014422e+001
         vertex 1.575405e+002 2.127779e+001 7.014421e+001
         vertex 1.557152e+002 2.434940e+001 9.014422e+001
      endloop
   endfacet
   facet normal -3.689148e-001 9.130590e-001 -1.738535e-001
      outer loop
         vertex 1.557152e+002 2.434940e+001 9.014422e+001
         vertex 1.575405e+002 2.127779e+001 7.014421e+001
         vertex 1.571496e+002 2.112774e+001 7.014421e+001
      endloop
   endfacet
   facet normal -4.316829e-001 8.851129e-001 -1.738536e-001
      outer loop
         vertex 1.557152e+002 2.434940e+001 9.014422e+001
         vertex 1.571496e+002 2.112774e+001 7.014421e+001
         vertex 1.550133e+002 2.399174e+001 9.014422e+001
      endloop
   endfacet
   facet normal -4.623345e-001 8.694951e-001 -1.738535e-001
      outer loop
         vertex 1.550133e+002 2.399174e+001 9.014422e+001
         vertex 1.571496e+002 2.112774e+001 7.014421e+001
         vertex 1.567765e+002 2.093766e+001 7.014421e+001
      endloop
   endfacet
   facet normal -5.218375e-001 8.351410e-001 -1.738535e-001
      outer loop
         vertex 1.550133e+002 2.399174e+001 9.014422e+001
         vertex 1.567765e+002 2.093766e+001 7.014421e+001
         vertex 1.543525e+002 2.356266e+001 9.014422e+001
      endloop
   endfacet
   facet normal -5.506888e-001 8.164048e-001 -1.738535e-001
      outer loop
         vertex 1.543525e+002 2.356266e+001 9.014422e+001
         vertex 1.567765e+002 2.093766e+001 7.014421e+001
         vertex 1.564254e+002 2.070963e+001 7.014421e+001
      endloop
   endfacet
   facet normal -6.062748e-001 7.760192e-001 -1.738536e-001
      outer loop
         vertex 1.543525e+002 2.356266e+001 9.014422e+001
         vertex 1.564254e+002 2.070963e+001 7.014421e+001
         vertex 1.537403e+002 2.306687e+001 9.014422e+001
      endloop
   endfacet
   facet normal -6.330096e-001 7.543698e-001 -1.738536e-001
      outer loop
         vertex 1.537403e+002 2.306687e+001 9.014422e+001
         vertex 1.564254e+002 2.070963e+001 7.014421e+001
         vertex 1.561000e+002 2.044614e+001 7.014421e+001
      endloop
   endfacet
   facet normal -6.840698e-001 7.083951e-001 -1.738536e-001
      outer loop
         vertex 1.537403e+002 2.306687e+001 9.014422e+001
         vertex 1.561000e+002 2.044614e+001 7.014421e+001
         vertex 1.531832e+002 2.250980e+001 9.014422e+001
      endloop
   endfacet
   facet normal -7.083951e-001 6.840698e-001 -1.738536e-001
      outer loop
         vertex 1.531832e+002 2.250980e+001 9.014422e+001
         vertex 1.561000e+002 2.044614e+001 7.014421e+001
         vertex 1.558040e+002 2.015008e+001 7.014421e+001
      endloop
   endfacet
   facet normal -7.543698e-001 6.330096e-001 -1.738536e-001
      outer loop
         vertex 1.531832e+002 2.250980e+001 9.014422e+001
         vertex 1.558040e+002 2.015008e+001 7.014421e+001
         vertex 1.526874e+002 2.189755e+001 9.014422e+001
      endloop
   endfacet
   facet normal -7.760192e-001 6.062748e-001 -1.738536e-001
      outer loop
         vertex 1.526874e+002 2.189755e+001 9.014422e+001
         vertex 1.558040e+002 2.015008e+001 7.014421e+001
         vertex 1.555405e+002 1.982470e+001 7.014421e+001
      endloop
   endfacet
   facet normal -8.164048e-001 5.506888e-001 -1.738535e-001
      outer loop
         vertex 1.526874e+002 2.189755e+001 9.014422e+001
         vertex 1.555405e+002 1.982470e+001 7.014421e+001
         vertex 1.522584e+002 2.123683e+001 9.014422e+001
      endloop
   endfacet
   facet normal -8.351410e-001 5.218375e-001 -1.738536e-001
      outer loop
         vertex 1.522584e+002 2.123683e+001 9.014422e+001
         vertex 1.555405e+002 1.982470e+001 7.014421e+001
         vertex 1.553124e+002 1.947356e+001 7.014421e+001
      endloop
   endfacet
   facet normal -8.694951e-001 4.623345e-001 -1.738535e-001
      outer loop
         vertex 1.522584e+002 2.123683e+001 9.014422e+001
         vertex 1.553124e+002 1.947356e+001 7.014421e+001
         vertex 1.519007e+002 2.053488e+001 9.014422e+001
      endloop
   endfacet
   facet normal -8.851129e-001 4.316829e-001 -1.738536e-001
      outer loop
         vertex 1.519007e+002 2.053488e+001 9.014422e+001
         vertex 1.553124e+002 1.947356e+001 7.014421e+001
         vertex 1.551224e+002 1.910051e+001 7.014421e+001
      endloop
   endfacet
   facet normal -9.130590e-001 3.689148e-001 -1.738535e-001
      outer loop
         vertex 1.519007e+002 2.053488e+001 9.014422e+001
         vertex 1.551224e+002 1.910051e+001 7.014421e+001
         vertex 1.516184e+002 1.979939e+001 9.014422e+001
      endloop
   endfacet
   facet normal -9.253873e-001 3.367986e-001 -1.738535e-001
      outer loop
         vertex 1.516184e+002 1.979939e+001 9.014422e+001
         vertex 1.551224e+002 1.910051e+001 7.014421e+001
         vertex 1.549723e+002 1.870963e+001 7.014421e+001
      endloop
   endfacet
   facet normal -9.466193e-001 2.714532e-001 -1.738535e-001
      outer loop
         vertex 1.516184e+002 1.979939e+001 9.014422e+001
         vertex 1.549723e+002 1.870963e+001 7.014421e+001
         vertex 1.514145e+002 1.903842e+001 9.014422e+001
      endloop
   endfacet
   facet normal -9.555230e-001 2.382242e-001 -1.738536e-001
      outer loop
         vertex 1.514145e+002 1.903842e+001 9.014422e+001
         vertex 1.549723e+002 1.870963e+001 7.014421e+001
         vertex 1.548640e+002 1.830521e+001 7.014421e+001
      endloop
   endfacet
   facet normal -9.698082e-001 1.710175e-001 -1.738536e-001
      outer loop
         vertex 1.514145e+002 1.903842e+001 9.014422e+001
         vertex 1.548640e+002 1.830521e+001 7.014421e+001
         vertex 1.512912e+002 1.826030e+001 9.014422e+001
      endloop
   endfacet
   facet normal -9.751897e-001 1.370399e-001 -1.738536e-001
      outer loop
         vertex 1.512912e+002 1.826030e+001 9.014422e+001
         vertex 1.548640e+002 1.830521e+001 7.014421e+001
         vertex 1.547984e+002 1.789168e+001 7.014421e+001
      endloop
   endfacet
   facet normal -9.823717e-001 6.870813e-002 -1.738535e-001
      outer loop
         vertex 1.512912e+002 1.826030e+001 9.014422e+001
         vertex 1.547984e+002 1.789168e+001 7.014421e+001
         vertex 1.512500e+002 1.747356e+001 9.014422e+001
      endloop
   endfacet
   facet normal -9.841721e-001 3.435407e-002 -1.738536e-001
      outer loop
         vertex 1.512500e+002 1.747356e+001 9.014422e+001
         vertex 1.547984e+002 1.789168e+001 7.014421e+001
         vertex 1.547766e+002 1.747356e+001 7.014421e+001
      endloop
   endfacet
   facet normal -9.841721e-001 -3.435407e-002 -1.738536e-001
      outer loop
         vertex 1.512500e+002 1.747356e+001 9.014422e+001
         vertex 1.547766e+002 1.747356e+001 7.014421e+001
         vertex 1.512912e+002 1.668682e+001 9.014422e+001
      endloop
   endfacet
   facet normal -9.823717e-001 -6.870813e-002 -1.738536e-001
      outer loop
         vertex 1.512912e+002 1.668682e+001 9.014422e+001
         vertex 1.547766e+002 1.747356e+001 7.014421e+001
         vertex 1.547984e+002 1.705545e+001 7.014421e+001
      endloop
   endfacet
   facet normal -9.751897e-001 -1.370399e-001 -1.738536e-001
      outer loop
         vertex 1.512912e+002 1.668682e+001 9.014422e+001
         vertex 1.547984e+002 1.705545e+001 7.014421e+001
         vertex 1.514145e+002 1.590870e+001 9.014422e+001
      endloop
   endfacet
   facet normal -9.698082e-001 -1.710175e-001 -1.738536e-001
      outer loop
         vertex 1.514145e+002 1.590870e+001 9.014422e+001
         vertex 1.547984e+002 1.705545e+001 7.014421e+001
         vertex 1.548640e+002 1.664191e+001 7.014421e+001
      endloop
   endfacet
   facet normal -9.555230e-001 -2.382242e-001 -1.738536e-001
      outer loop
         vertex 1.514145e+002 1.590870e+001 9.014422e+001
         vertex 1.548640e+002 1.664191e+001 7.014421e+001
         vertex 1.516184e+002 1.514773e+001 9.014422e+001
      endloop
   endfacet
   facet normal -9.466193e-001 -2.714533e-001 -1.738535e-001
      outer loop
         vertex 1.516184e+002 1.514773e+001 9.014422e+001
         vertex 1.548640e+002 1.664191e+001 7.014421e+001
         vertex 1.549723e+002 1.623749e+001 7.014421e+001
      endloop
   endfacet
   facet normal -9.253873e-001 -3.367985e-001 -1.738535e-001
      outer loop
         vertex 1.516184e+002 1.514773e+001 9.014422e+001
         vertex 1.549723e+002 1.623749e+001 7.014421e+001
         vertex 1.519007e+002 1.441224e+001 9.014422e+001
      endloop
   endfacet
   facet normal -9.130590e-001 -3.689148e-001 -1.738535e-001
      outer loop
         vertex 1.519007e+002 1.441224e+001 9.014422e+001
         vertex 1.549723e+002 1.623749e+001 7.014421e+001
         vertex 1.551224e+002 1.584662e+001 7.014421e+001
      endloop
   endfacet
   facet normal -8.851129e-001 -4.316829e-001 -1.738536e-001
      outer loop
         vertex 1.519007e+002 1.441224e+001 9.014422e+001
         vertex 1.551224e+002 1.584662e+001 7.014421e+001
         vertex 1.522584e+002 1.371029e+001 9.014422e+001
      endloop
   endfacet
   facet normal -8.694951e-001 -4.623345e-001 -1.738535e-001
      outer loop
         vertex 1.522584e+002 1.371029e+001 9.014422e+001
         vertex 1.551224e+002 1.584662e+001 7.014421e+001
         vertex 1.553124e+002 1.547356e+001 7.014421e+001
      endloop
   endfacet
   facet normal -8.351410e-001 -5.218375e-001 -1.738535e-001
      outer loop
         vertex 1.522584e+002 1.371029e+001 9.014422e+001
         vertex 1.553124e+002 1.547356e+001 7.014421e+001
         vertex 1.526874e+002 1.304957e+001 9.014422e+001
      endloop
   endfacet
   facet normal -8.164048e-001 -5.506888e-001 -1.738535e-001
      outer loop
         vertex 1.526874e+002 1.304957e+001 9.014422e+001
         vertex 1.553124e+002 1.547356e+001 7.014421e+001
         vertex 1.555405e+002 1.512242e+001 7.014421e+001
      endloop
   endfacet
   facet normal -7.760192e-001 -6.062748e-001 -1.738536e-001
      outer loop
         vertex 1.526874e+002 1.304957e+001 9.014422e+001
         vertex 1.555405e+002 1.512242e+001 7.014421e+001
         vertex 1.531832e+002 1.243732e+001 9.014422e+001
      endloop
   endfacet
   facet normal -7.543698e-001 -6.330096e-001 -1.738536e-001
      outer loop
         vertex 1.531832e+002 1.243732e+001 9.014422e+001
         vertex 1.555405e+002 1.512242e+001 7.014421e+001
         vertex 1.558040e+002 1.479704e+001 7.014421e+001
      endloop
   endfacet
   facet normal -7.083951e-001 -6.840698e-001 -1.738536e-001
      outer loop
         vertex 1.531832e+002 1.243732e+001 9.014422e+001
         vertex 1.558040e+002 1.479704e+001 7.014421e+001
         vertex 1.537403e+002 1.188025e+001 9.014422e+001
      endloop
   endfacet
   facet normal -6.840698e-001 -7.083951e-001 -1.738536e-001
      outer loop
         vertex 1.537403e+002 1.188025e+001 9.014422e+001
         vertex 1.558040e+002 1.479704e+001 7.014421e+001
         vertex 1.561000e+002 1.450098e+001 7.014421e+001
      endloop
   endfacet
   facet normal -6.330096e-001 -7.543698e-001 -1.738536e-001
      outer loop
         vertex 1.537403e+002 1.188025e+001 9.014422e+001
         vertex 1.561000e+002 1.450098e+001 7.014421e+001
         vertex 1.543525e+002 1.138446e+001 9.014422e+001
      endloop
   endfacet
   facet normal -6.062748e-001 -7.760192e-001 -1.738536e-001
      outer loop
         vertex 1.543525e+002 1.138446e+001 9.014422e+001
         vertex 1.561000e+002 1.450098e+001 7.014421e+001
         vertex 1.564254e+002 1.423749e+001 7.014421e+001
      endloop
   endfacet
   facet normal -5.506888e-001 -8.164048e-001 -1.738535e-001
      outer loop
         vertex 1.543525e+002 1.138446e+001 9.014422e+001
         vertex 1.564254e+002 1.423749e+001 7.014421e+001
         vertex 1.550133e+002 1.095539e+001 9.014422e+001
      endloop
   endfacet
   facet normal -5.218375e-001 -8.351410e-001 -1.738536e-001
      outer loop
         vertex 1.550133e+002 1.095539e+001 9.014422e+001
         vertex 1.564254e+002 1.423749e+001 7.014421e+001
         vertex 1.567765e+002 1.400946e+001 7.014421e+001
      endloop
   endfacet
   facet normal -4.623345e-001 -8.694951e-001 -1.738535e-001
      outer loop
         vertex 1.550133e+002 1.095539e+001 9.014422e+001
         vertex 1.567765e+002 1.400946e+001 7.014421e+001
         vertex 1.557152e+002 1.059773e+001 9.014422e+001
      endloop
   endfacet
   facet normal -4.316829e-001 -8.851129e-001 -1.738536e-001
      outer loop
         vertex 1.557152e+002 1.059773e+001 9.014422e+001
         vertex 1.567765e+002 1.400946e+001 7.014421e+001
         vertex 1.571496e+002 1.381938e+001 7.014421e+001
      endloop
   endfacet
   facet normal -3.689148e-001 -9.130590e-001 -1.738535e-001
      outer loop
         vertex 1.557152e+002 1.059773e+001 9.014422e+001
         vertex 1.571496e+002 1.381938e+001 7.014421e+001
         vertex 1.564507e+002 1.031540e+001 9.014422e+001
      endloop
   endfacet
   facet normal -3.367986e-001 -9.253873e-001 -1.738535e-001
      outer loop
         vertex 1.564507e+002 1.031540e+001 9.014422e+001
         vertex 1.571496e+002 1.381938e+001 7.014421e+001
         vertex 1.575405e+002 1.366934e+001 7.014421e+001
      endloop
   endfacet
   facet normal -2.714532e-001 -9.466193e-001 -1.738535e-001
      outer loop
         vertex 1.564507e+002 1.031540e+001 9.014422e+001
         vertex 1.575405e+002 1.366934e+001 7.014421e+001
         vertex 1.572117e+002 1.011150e+001 9.014422e+001
      endloop
   endfacet
   facet normal -2.382242e-001 -9.555230e-001 -1.738536e-001
      outer loop
         vertex 1.572117e+002 1.011150e+001 9.014422e+001
         vertex 1.575405e+002 1.366934e+001 7.014421e+001
         vertex 1.579449e+002 1.356097e+001 7.014421e+001
      endloop
   endfacet
   facet normal -1.710175e-001 -9.698082e-001 -1.738536e-001
      outer loop
         vertex 1.572117e+002 1.011150e+001 9.014422e+001
         vertex 1.579449e+002 1.356097e+001 7.014421e+001
         vertex 1.579898e+002 9.988253e+000 9.014422e+001
      endloop
   endfacet
   facet normal -1.370399e-001 -9.751897e-001 -1.738536e-001
      outer loop
         vertex 1.579898e+002 9.988253e+000 9.014422e+001
         vertex 1.579449e+002 1.356097e+001 7.014421e+001
         vertex 1.583584e+002 1.349547e+001 7.014421e+001
      endloop
   endfacet
   facet normal -6.870813e-002 -9.823717e-001 -1.738535e-001
      outer loop
         vertex 1.579898e+002 9.988253e+000 9.014422e+001
         vertex 1.583584e+002 1.349547e+001 7.014421e+001
         vertex 1.587765e+002 9.947021e+000 9.014422e+001
      endloop
   endfacet
   facet normal -3.435407e-002 -9.841721e-001 -1.738536e-001
      outer loop
         vertex 1.587765e+002 9.947021e+000 9.014422e+001
         vertex 1.583584e+002 1.349547e+001 7.014421e+001
         vertex 1.587765e+002 1.347356e+001 7.014421e+001
      endloop
   endfacet
   facet normal 3.435407e-002 -9.841721e-001 -1.738536e-001
      outer loop
         vertex 1.587765e+002 9.947021e+000 9.014422e+001
         vertex 1.587765e+002 1.347356e+001 7.014421e+001
         vertex 1.595633e+002 9.988253e+000 9.014422e+001
      endloop
   endfacet
   facet normal 6.870813e-002 -9.823717e-001 -1.738536e-001
      outer loop
         vertex 1.595633e+002 9.988253e+000 9.014422e+001
         vertex 1.587765e+002 1.347356e+001 7.014421e+001
         vertex 1.591946e+002 1.349547e+001 7.014421e+001
      endloop
   endfacet
   facet normal 1.370399e-001 -9.751897e-001 -1.738536e-001
      outer loop
         vertex 1.595633e+002 9.988253e+000 9.014422e+001
         vertex 1.591946e+002 1.349547e+001 7.014421e+001
         vertex 1.603414e+002 1.011150e+001 9.014422e+001
      endloop
   endfacet
   facet normal 1.710175e-001 -9.698082e-001 -1.738536e-001
      outer loop
         vertex 1.603414e+002 1.011150e+001 9.014422e+001
         vertex 1.591946e+002 1.349547e+001 7.014421e+001
         vertex 1.596082e+002 1.356097e+001 7.014421e+001
      endloop
   endfacet
   facet normal 2.382242e-001 -9.555230e-001 -1.738536e-001
      outer loop
         vertex 1.603414e+002 1.011150e+001 9.014422e+001
         vertex 1.596082e+002 1.356097e+001 7.014421e+001
         vertex 1.611024e+002 1.031540e+001 9.014422e+001
      endloop
   endfacet
   facet normal 2.714533e-001 -9.466193e-001 -1.738535e-001
      outer loop
         vertex 1.611024e+002 1.031540e+001 9.014422e+001
         vertex 1.596082e+002 1.356097e+001 7.014421e+001
         vertex 1.600126e+002 1.366934e+001 7.014421e+001
      endloop
   endfacet
   facet normal 3.367985e-001 -9.253873e-001 -1.738535e-001
      outer loop
         vertex 1.611024e+002 1.031540e+001 9.014422e+001
         vertex 1.600126e+002 1.366934e+001 7.014421e+001
         vertex 1.618379e+002 1.059773e+001 9.014422e+001
      endloop
   endfacet
   facet normal 3.689148e-001 -9.130590e-001 -1.738535e-001
      outer loop
         vertex 1.618379e+002 1.059773e+001 9.014422e+001
         vertex 1.600126e+002 1.366934e+001 7.014421e+001
         vertex 1.604035e+002 1.381938e+001 7.014421e+001
      endloop
   endfacet
   facet normal 4.316829e-001 -8.851129e-001 -1.738536e-001
      outer loop
         vertex 1.618379e+002 1.059773e+001 9.014422e+001
         vertex 1.604035e+002 1.381938e+001 7.014421e+001
         vertex 1.625398e+002 1.095539e+001 9.014422e+001
      endloop
   endfacet
   facet normal 4.623345e-001 -8.694951e-001 -1.738535e-001
      outer loop
         vertex 1.625398e+002 1.095539e+001 9.014422e+001
         vertex 1.604035e+002 1.381938e+001 7.014421e+001
         vertex 1.607765e+002 1.400946e+001 7.014421e+001
      endloop
   endfacet
   facet normal 5.218375e-001 -8.351410e-001 -1.738535e-001
      outer loop
         vertex 1.625398e+002 1.095539e+001 9.014422e+001
         vertex 1.607765e+002 1.400946e+001 7.014421e+001
         vertex 1.632005e+002 1.138446e+001 9.014422e+001
      endloop
   endfacet
   facet normal 5.506888e-001 -8.164048e-001 -1.738535e-001
      outer loop
         vertex 1.632005e+002 1.138446e+001 9.014422e+001
         vertex 1.607765e+002 1.400946e+001 7.014421e+001
         vertex 1.611277e+002 1.423749e+001 7.014421e+001
      endloop
   endfacet
   facet normal 6.062748e-001 -7.760192e-001 -1.738536e-001
      outer loop
         vertex 1.632005e+002 1.138446e+001 9.014422e+001
         vertex 1.611277e+002 1.423749e+001 7.014421e+001
         vertex 1.638128e+002 1.188025e+001 9.014422e+001
      endloop
   endfacet
   facet normal 6.330096e-001 -7.543698e-001 -1.738536e-001
      outer loop
         vertex 1.638128e+002 1.188025e+001 9.014422e+001
         vertex 1.611277e+002 1.423749e+001 7.014421e+001
         vertex 1.614530e+002 1.450098e+001 7.014421e+001
      endloop
   endfacet
   facet normal 6.840698e-001 -7.083951e-001 -1.738536e-001
      outer loop
         vertex 1.638128e+002 1.188025e+001 9.014422e+001
         vertex 1.614530e+002 1.450098e+001 7.014421e+001
         vertex 1.643699e+002 1.243732e+001 9.014422e+001
      endloop
   endfacet
   facet normal 7.083951e-001 -6.840698e-001 -1.738536e-001
      outer loop
         vertex 1.643699e+002 1.243732e+001 9.014422e+001
         vertex 1.614530e+002 1.450098e+001 7.014421e+001
         vertex 1.617491e+002 1.479704e+001 7.014421e+001
      endloop
   endfacet
   facet normal 7.543698e-001 -6.330096e-001 -1.738536e-001
      outer loop
         vertex 1.643699e+002 1.243732e+001 9.014422e+001
         vertex 1.617491e+002 1.479704e+001 7.014421e+001
         vertex 1.648656e+002 1.304957e+001 9.014422e+001
      endloop
   endfacet
   facet normal 7.760192e-001 -6.062748e-001 -1.738536e-001
      outer loop
         vertex 1.648656e+002 1.304957e+001 9.014422e+001
         vertex 1.617491e+002 1.479704e+001 7.014421e+001
         vertex 1.620126e+002 1.512242e+001 7.014421e+001
      endloop
   endfacet
   facet normal 8.164048e-001 -5.506888e-001 -1.738535e-001
      outer loop
         vertex 1.648656e+002 1.304957e+001 9.014422e+001
         vertex 1.620126e+002 1.512242e+001 7.014421e+001
         vertex 1.652947e+002 1.371029e+001 9.014422e+001
      endloop
   endfacet
   facet normal 8.351410e-001 -5.218375e-001 -1.738536e-001
      outer loop
         vertex 1.652947e+002 1.371029e+001 9.014422e+001
         vertex 1.620126e+002 1.512242e+001 7.014421e+001
         vertex 1.622406e+002 1.547356e+001 7.014421e+001
      endloop
   endfacet
   facet normal 8.694951e-001 -4.623345e-001 -1.738535e-001
      outer loop
         vertex 1.652947e+002 1.371029e+001 9.014422e+001
         vertex 1.622406e+002 1.547356e+001 7.014421e+001
         vertex 1.656524e+002 1.441224e+001 9.014422e+001
      endloop
   endfacet
   facet normal 8.851129e-001 -4.316829e-001 -1.738536e-001
      outer loop
         vertex 1.656524e+002 1.441224e+001 9.014422e+001
         vertex 1.622406e+002 1.547356e+001 7.014421e+001
         vertex 1.624307e+002 1.584662e+001 7.014421e+001
      endloop
   endfacet
   facet normal 9.130590e-001 -3.689148e-001 -1.738535e-001
      outer loop
         vertex 1.656524e+002 1.441224e+001 9.014422e+001
         vertex 1.624307e+002 1.584662e+001 7.014421e+001
         vertex 1.659347e+002 1.514773e+001 9.014422e+001
      endloop
   endfacet
   facet normal 9.253873e-001 -3.367986e-001 -1.738535e-001
      outer loop
         vertex 1.659347e+002 1.514773e+001 9.014422e+001
         vertex 1.624307e+002 1.584662e+001 7.014421e+001
         vertex 1.625808e+002 1.623749e+001 7.014421e+001
      endloop
   endfacet
   facet normal 9.466193e-001 -2.714532e-001 -1.738535e-001
      outer loop
         vertex 1.659347e+002 1.514773e+001 9.014422e+001
         vertex 1.625808e+002 1.623749e+001 7.014421e+001
         vertex 1.661386e+002 1.590870e+001 9.014422e+001
      endloop
   endfacet
   facet normal 9.555230e-001 -2.382242e-001 -1.738536e-001
      outer loop
         vertex 1.661386e+002 1.590870e+001 9.014422e+001
         vertex 1.625808e+002 1.623749e+001 7.014421e+001
         vertex 1.626891e+002 1.664191e+001 7.014421e+001
      endloop
   endfacet
   facet normal 9.698082e-001 -1.710175e-001 -1.738536e-001
      outer loop
         vertex 1.661386e+002 1.590870e+001 9.014422e+001
         vertex 1.626891e+002 1.664191e+001 7.014421e+001
         vertex 1.662619e+002 1.668682e+001 9.014422e+001
      endloop
   endfacet
   facet normal 9.751897e-001 -1.370399e-001 -1.738536e-001
      outer loop
         vertex 1.662619e+002 1.668682e+001 9.014422e+001
         vertex 1.626891e+002 1.664191e+001 7.014421e+001
         vertex 1.627546e+002 1.705545e+001 7.014421e+001
      endloop
   endfacet
   facet normal 9.823717e-001 -6.870813e-002 -1.738535e-001
      outer loop
         vertex 1.662619e+002 1.668682e+001 9.014422e+001
         vertex 1.627546e+002 1.705545e+001 7.014421e+001
         vertex 1.663031e+002 1.747356e+001 9.014422e+001
      endloop
   endfacet
   facet normal 9.841721e-001 -3.435407e-002 -1.738536e-001
      outer loop
         vertex 1.663031e+002 1.747356e+001 9.014422e+001
         vertex 1.627546e+002 1.705545e+001 7.014421e+001
         vertex 1.627766e+002 1.747356e+001 7.014421e+001
      endloop
   endfacet
   facet normal 9.841721e-001 3.435407e-002 -1.738536e-001
      outer loop
         vertex 1.663031e+002 1.747356e+001 9.014422e+001
         vertex 1.627766e+002 1.747356e+001 7.014421e+001
         vertex 1.662619e+002 1.826030e+001 9.014422e+001
      endloop
   endfacet
   facet normal 9.823717e-001 6.870813e-002 -1.738536e-001
      outer loop
         vertex 1.662619e+002 1.826030e+001 9.014422e+001
         vertex 1.627766e+002 1.747356e+001 7.014421e+001
         vertex 1.627546e+002 1.789168e+001 7.014421e+001
      endloop
   endfacet
   facet normal -1.982541e-016 0.000000e+000 -1.000000e+000
      outer loop
         vertex 1.587765e+002 2.147356e+001 7.014421e+001
         vertex 1.591946e+002 2.145165e+001 7.014421e+001
         vertex 1.596082e+002 2.138615e+001 7.014421e+001
      endloop
   endfacet
   facet normal -1.982541e-016 0.000000e+000 -1.000000e+000
      outer loop
         vertex 1.553124e+002 1.947356e+001 7.014421e+001
         vertex 1.555405e+002 1.982470e+001 7.014421e+001
         vertex 1.596082e+002 2.138615e+001 7.014421e+001
      endloop
   endfacet
   facet normal -1.982541e-016 0.000000e+000 -1.000000e+000
      outer loop
         vertex 1.567765e+002 2.093766e+001 7.014421e+001
         vertex 1.571496e+002 2.112774e+001 7.014421e+001
         vertex 1.596082e+002 2.138615e+001 7.014421e+001
      endloop
   endfacet
   facet normal -1.982541e-016 0.000000e+000 -1.000000e+000
      outer loop
         vertex 1.596082e+002 2.138615e+001 7.014421e+001
         vertex 1.625808e+002 1.623749e+001 7.014421e+001
         vertex 1.624307e+002 1.584662e+001 7.014421e+001
      endloop
   endfacet
   facet normal -1.982541e-016 0.000000e+000 -1.000000e+000
      outer loop
         vertex 1.548640e+002 1.664191e+001 7.014421e+001
         vertex 1.547984e+002 1.705545e+001 7.014421e+001
         vertex 1.596082e+002 2.138615e+001 7.014421e+001
      endloop
   endfacet
   facet normal -1.982541e-016 0.000000e+000 -1.000000e+000
      outer loop
         vertex 1.596082e+002 2.138615e+001 7.014421e+001
         vertex 1.547984e+002 1.705545e+001 7.014421e+001
         vertex 1.547766e+002 1.747356e+001 7.014421e+001
      endloop
   endfacet
   facet normal -1.982541e-016 0.000000e+000 -1.000000e+000
      outer loop
         vertex 1.596082e+002 2.138615e+001 7.014421e+001
         vertex 1.547766e+002 1.747356e+001 7.014421e+001
         vertex 1.547984e+002 1.789168e+001 7.014421e+001
      endloop
   endfacet
   facet normal -1.982541e-016 0.000000e+000 -1.000000e+000
      outer loop
         vertex 1.547984e+002 1.789168e+001 7.014421e+001
         vertex 1.548640e+002 1.830521e+001 7.014421e+001
         vertex 1.549723e+002 1.870963e+001 7.014421e+001
      endloop
   endfacet
   facet normal -1.982541e-016 0.000000e+000 -1.000000e+000
      outer loop
         vertex 1.547984e+002 1.789168e+001 7.014421e+001
         vertex 1.549723e+002 1.870963e+001 7.014421e+001
         vertex 1.596082e+002 2.138615e+001 7.014421e+001
      endloop
   endfacet
   facet normal -1.982541e-016 0.000000e+000 -1.000000e+000
      outer loop
         vertex 1.596082e+002 2.138615e+001 7.014421e+001
         vertex 1.549723e+002 1.870963e+001 7.014421e+001
         vertex 1.551224e+002 1.910051e+001 7.014421e+001
      endloop
   endfacet
   facet normal -1.982541e-016 0.000000e+000 -1.000000e+000
      outer loop
         vertex 1.596082e+002 2.138615e+001 7.014421e+001
         vertex 1.551224e+002 1.910051e+001 7.014421e+001
         vertex 1.553124e+002 1.947356e+001 7.014421e+001
      endloop
   endfacet
   facet normal -1.982541e-016 0.000000e+000 -1.000000e+000
      outer loop
         vertex 1.614530e+002 2.044614e+001 7.014421e+001
         vertex 1.617491e+002 2.015008e+001 7.014421e+001
         vertex 1.625808e+002 1.623749e+001 7.014421e+001
      endloop
   endfacet
   facet normal -1.982541e-016 0.000000e+000 -1.000000e+000
      outer loop
         vertex 1.596082e+002 1.356097e+001 7.014421e+001
         vertex 1.591946e+002 1.349547e+001 7.014421e+001
         vertex 1.596082e+002 2.138615e+001 7.014421e+001
      endloop
   endfacet
   facet normal -1.982541e-016 0.000000e+000 -1.000000e+000
      outer loop
         vertex 1.596082e+002 2.138615e+001 7.014421e+001
         vertex 1.591946e+002 1.349547e+001 7.014421e+001
         vertex 1.587765e+002 1.347356e+001 7.014421e+001
      endloop
   endfacet
   facet normal -1.982541e-016 0.000000e+000 -1.000000e+000
      outer loop
         vertex 1.596082e+002 2.138615e+001 7.014421e+001
         vertex 1.587765e+002 1.347356e+001 7.014421e+001
         vertex 1.583584e+002 1.349547e+001 7.014421e+001
      endloop
   endfacet
   facet normal -1.982541e-016 0.000000e+000 -1.000000e+000
      outer loop
         vertex 1.583584e+002 1.349547e+001 7.014421e+001
         vertex 1.579449e+002 1.356097e+001 7.014421e+001
         vertex 1.596082e+002 2.138615e+001 7.014421e+001
      endloop
   endfacet
   facet normal -1.982541e-016 0.000000e+000 -1.000000e+000
      outer loop
         vertex 1.596082e+002 2.138615e+001 7.014421e+001
         vertex 1.579449e+002 1.356097e+001 7.014421e+001
         vertex 1.575405e+002 1.366934e+001 7.014421e+001
      endloop
   endfacet
   facet normal -1.982541e-016 0.000000e+000 -1.000000e+000
      outer loop
         vertex 1.596082e+002 2.138615e+001 7.014421e+001
         vertex 1.575405e+002 1.366934e+001 7.014421e+001
         vertex 1.571496e+002 1.381938e+001 7.014421e+001
      endloop
   endfacet
   facet normal -1.982541e-016 0.000000e+000 -1.000000e+000
      outer loop
         vertex 1.571496e+002 1.381938e+001 7.014421e+001
         vertex 1.567765e+002 1.400946e+001 7.014421e+001
         vertex 1.596082e+002 2.138615e+001 7.014421e+001
      endloop
   endfacet
   facet normal -1.982541e-016 0.000000e+000 -1.000000e+000
      outer loop
         vertex 1.596082e+002 2.138615e+001 7.014421e+001
         vertex 1.567765e+002 1.400946e+001 7.014421e+001
         vertex 1.564254e+002 1.423749e+001 7.014421e+001
      endloop
   endfacet
   facet normal -1.982541e-016 0.000000e+000 -1.000000e+000
      outer loop
         vertex 1.596082e+002 2.138615e+001 7.014421e+001
         vertex 1.564254e+002 1.423749e+001 7.014421e+001
         vertex 1.561000e+002 1.450098e+001 7.014421e+001
      endloop
   endfacet
   facet normal -1.982541e-016 0.000000e+000 -1.000000e+000
      outer loop
         vertex 1.555405e+002 1.982470e+001 7.014421e+001
         vertex 1.558040e+002 2.015008e+001 7.014421e+001
         vertex 1.561000e+002 2.044614e+001 7.014421e+001
      endloop
   endfacet
   facet normal -1.982541e-016 0.000000e+000 -1.000000e+000
      outer loop
         vertex 1.555405e+002 1.982470e+001 7.014421e+001
         vertex 1.561000e+002 2.044614e+001 7.014421e+001
         vertex 1.596082e+002 2.138615e+001 7.014421e+001
      endloop
   endfacet
   facet normal -1.982541e-016 0.000000e+000 -1.000000e+000
      outer loop
         vertex 1.596082e+002 2.138615e+001 7.014421e+001
         vertex 1.561000e+002 2.044614e+001 7.014421e+001
         vertex 1.564254e+002 2.070963e+001 7.014421e+001
      endloop
   endfacet
   facet normal -1.982541e-016 0.000000e+000 -1.000000e+000
      outer loop
         vertex 1.596082e+002 2.138615e+001 7.014421e+001
         vertex 1.564254e+002 2.070963e+001 7.014421e+001
         vertex 1.567765e+002 2.093766e+001 7.014421e+001
      endloop
   endfacet
   facet normal -1.982541e-016 0.000000e+000 -1.000000e+000
      outer loop
         vertex 1.583584e+002 2.145165e+001 7.014421e+001
         vertex 1.587765e+002 2.147356e+001 7.014421e+001
         vertex 1.579449e+002 2.138615e+001 7.014421e+001
      endloop
   endfacet
   facet normal -1.982541e-016 0.000000e+000 -1.000000e+000
      outer loop
         vertex 1.579449e+002 2.138615e+001 7.014421e+001
         vertex 1.587765e+002 2.147356e+001 7.014421e+001
         vertex 1.596082e+002 2.138615e+001 7.014421e+001
      endloop
   endfacet
   facet normal -1.982541e-016 0.000000e+000 -1.000000e+000
      outer loop
         vertex 1.579449e+002 2.138615e+001 7.014421e+001
         vertex 1.596082e+002 2.138615e+001 7.014421e+001
         vertex 1.575405e+002 2.127779e+001 7.014421e+001
      endloop
   endfacet
   facet normal -1.982541e-016 0.000000e+000 -1.000000e+000
      outer loop
         vertex 1.575405e+002 2.127779e+001 7.014421e+001
         vertex 1.596082e+002 2.138615e+001 7.014421e+001
         vertex 1.571496e+002 2.112774e+001 7.014421e+001
      endloop
   endfacet
   facet normal -1.982541e-016 0.000000e+000 -1.000000e+000
      outer loop
         vertex 1.611277e+002 2.070963e+001 7.014421e+001
         vertex 1.614530e+002 2.044614e+001 7.014421e+001
         vertex 1.607765e+002 2.093766e+001 7.014421e+001
      endloop
   endfacet
   facet normal -1.982541e-016 0.000000e+000 -1.000000e+000
      outer loop
         vertex 1.607765e+002 2.093766e+001 7.014421e+001
         vertex 1.614530e+002 2.044614e+001 7.014421e+001
         vertex 1.625808e+002 1.623749e+001 7.014421e+001
      endloop
   endfacet
   facet normal -1.982541e-016 0.000000e+000 -1.000000e+000
      outer loop
         vertex 1.607765e+002 2.093766e+001 7.014421e+001
         vertex 1.625808e+002 1.623749e+001 7.014421e+001
         vertex 1.604035e+002 2.112774e+001 7.014421e+001
      endloop
   endfacet
   facet normal -1.982541e-016 0.000000e+000 -1.000000e+000
      outer loop
         vertex 1.604035e+002 2.112774e+001 7.014421e+001
         vertex 1.625808e+002 1.623749e+001 7.014421e+001
         vertex 1.596082e+002 2.138615e+001 7.014421e+001
      endloop
   endfacet
   facet normal -1.982541e-016 0.000000e+000 -1.000000e+000
      outer loop
         vertex 1.604035e+002 2.112774e+001 7.014421e+001
         vertex 1.596082e+002 2.138615e+001 7.014421e+001
         vertex 1.600126e+002 2.127779e+001 7.014421e+001
      endloop
   endfacet
   facet normal -1.982541e-016 0.000000e+000 -1.000000e+000
      outer loop
         vertex 1.624307e+002 1.584662e+001 7.014421e+001
         vertex 1.622406e+002 1.547356e+001 7.014421e+001
         vertex 1.596082e+002 2.138615e+001 7.014421e+001
      endloop
   endfacet
   facet normal -1.982541e-016 0.000000e+000 -1.000000e+000
      outer loop
         vertex 1.596082e+002 2.138615e+001 7.014421e+001
         vertex 1.622406e+002 1.547356e+001 7.014421e+001
         vertex 1.620126e+002 1.512242e+001 7.014421e+001
      endloop
   endfacet
   facet normal -1.982541e-016 0.000000e+000 -1.000000e+000
      outer loop
         vertex 1.596082e+002 2.138615e+001 7.014421e+001
         vertex 1.620126e+002 1.512242e+001 7.014421e+001
         vertex 1.617491e+002 1.479704e+001 7.014421e+001
      endloop
   endfacet
   facet normal -1.982541e-016 0.000000e+000 -1.000000e+000
      outer loop
         vertex 1.561000e+002 1.450098e+001 7.014421e+001
         vertex 1.558040e+002 1.479704e+001 7.014421e+001
         vertex 1.596082e+002 2.138615e+001 7.014421e+001
      endloop
   endfacet
   facet normal -1.982541e-016 0.000000e+000 -1.000000e+000
      outer loop
         vertex 1.596082e+002 2.138615e+001 7.014421e+001
         vertex 1.558040e+002 1.479704e+001 7.014421e+001
         vertex 1.555405e+002 1.512242e+001 7.014421e+001
      endloop
   endfacet
   facet normal -1.982541e-016 0.000000e+000 -1.000000e+000
      outer loop
         vertex 1.596082e+002 2.138615e+001 7.014421e+001
         vertex 1.555405e+002 1.512242e+001 7.014421e+001
         vertex 1.553124e+002 1.547356e+001 7.014421e+001
      endloop
   endfacet
   facet normal -1.982541e-016 0.000000e+000 -1.000000e+000
      outer loop
         vertex 1.617491e+002 2.015008e+001 7.014421e+001
         vertex 1.620126e+002 1.982470e+001 7.014421e+001
         vertex 1.622406e+002 1.947356e+001 7.014421e+001
      endloop
   endfacet
   facet normal -1.982541e-016 0.000000e+000 -1.000000e+000
      outer loop
         vertex 1.617491e+002 2.015008e+001 7.014421e+001
         vertex 1.622406e+002 1.947356e+001 7.014421e+001
         vertex 1.625808e+002 1.623749e+001 7.014421e+001
      endloop
   endfacet
   facet normal -1.982541e-016 0.000000e+000 -1.000000e+000
      outer loop
         vertex 1.625808e+002 1.623749e+001 7.014421e+001
         vertex 1.622406e+002 1.947356e+001 7.014421e+001
         vertex 1.624307e+002 1.910051e+001 7.014421e+001
      endloop
   endfacet
   facet normal -1.982541e-016 0.000000e+000 -1.000000e+000
      outer loop
         vertex 1.625808e+002 1.623749e+001 7.014421e+001
         vertex 1.624307e+002 1.910051e+001 7.014421e+001
         vertex 1.625808e+002 1.870963e+001 7.014421e+001
      endloop
   endfacet
   facet normal -1.982541e-016 0.000000e+000 -1.000000e+000
      outer loop
         vertex 1.617491e+002 1.479704e+001 7.014421e+001
         vertex 1.614530e+002 1.450098e+001 7.014421e+001
         vertex 1.596082e+002 2.138615e+001 7.014421e+001
      endloop
   endfacet
   facet normal -1.982541e-016 0.000000e+000 -1.000000e+000
      outer loop
         vertex 1.596082e+002 2.138615e+001 7.014421e+001
         vertex 1.614530e+002 1.450098e+001 7.014421e+001
         vertex 1.611277e+002 1.423749e+001 7.014421e+001
      endloop
   endfacet
   facet normal -1.982541e-016 0.000000e+000 -1.000000e+000
      outer loop
         vertex 1.596082e+002 2.138615e+001 7.014421e+001
         vertex 1.611277e+002 1.423749e+001 7.014421e+001
         vertex 1.607765e+002 1.400946e+001 7.014421e+001
      endloop
   endfacet
   facet normal -1.982541e-016 0.000000e+000 -1.000000e+000
      outer loop
         vertex 1.553124e+002 1.547356e+001 7.014421e+001
         vertex 1.551224e+002 1.584662e+001 7.014421e+001
         vertex 1.596082e+002 2.138615e+001 7.014421e+001
      endloop
   endfacet
   facet normal -1.982541e-016 0.000000e+000 -1.000000e+000
      outer loop
         vertex 1.596082e+002 2.138615e+001 7.014421e+001
         vertex 1.551224e+002 1.584662e+001 7.014421e+001
         vertex 1.549723e+002 1.623749e+001 7.014421e+001
      endloop
   endfacet
   facet normal -1.982541e-016 0.000000e+000 -1.000000e+000
      outer loop
         vertex 1.596082e+002 2.138615e+001 7.014421e+001
         vertex 1.549723e+002 1.623749e+001 7.014421e+001
         vertex 1.548640e+002 1.664191e+001 7.014421e+001
      endloop
   endfacet
   facet normal -1.982541e-016 0.000000e+000 -1.000000e+000
      outer loop
         vertex 1.607765e+002 1.400946e+001 7.014421e+001
         vertex 1.604035e+002 1.381938e+001 7.014421e+001
         vertex 1.596082e+002 2.138615e+001 7.014421e+001
      endloop
   endfacet
   facet normal -1.982541e-016 0.000000e+000 -1.000000e+000
      outer loop
         vertex 1.596082e+002 2.138615e+001 7.014421e+001
         vertex 1.604035e+002 1.381938e+001 7.014421e+001
         vertex 1.600126e+002 1.366934e+001 7.014421e+001
      endloop
   endfacet
   facet normal -1.982541e-016 0.000000e+000 -1.000000e+000
      outer loop
         vertex 1.596082e+002 2.138615e+001 7.014421e+001
         vertex 1.600126e+002 1.366934e+001 7.014421e+001
         vertex 1.596082e+002 1.356097e+001 7.014421e+001
      endloop
   endfacet
   facet normal -1.982541e-016 0.000000e+000 -1.000000e+000
      outer loop
         vertex 1.625808e+002 1.870963e+001 7.014421e+001
         vertex 1.626891e+002 1.830521e+001 7.014421e+001
         vertex 1.625808e+002 1.623749e+001 7.014421e+001
      endloop
   endfacet
   facet normal -1.982541e-016 0.000000e+000 -1.000000e+000
      outer loop
         vertex 1.625808e+002 1.623749e+001 7.014421e+001
         vertex 1.626891e+002 1.830521e+001 7.014421e+001
         vertex 1.627546e+002 1.789168e+001 7.014421e+001
      endloop
   endfacet
   facet normal -1.982541e-016 0.000000e+000 -1.000000e+000
      outer loop
         vertex 1.625808e+002 1.623749e+001 7.014421e+001
         vertex 1.627546e+002 1.789168e+001 7.014421e+001
         vertex 1.626891e+002 1.664191e+001 7.014421e+001
      endloop
   endfacet
   facet normal -1.982541e-016 0.000000e+000 -1.000000e+000
      outer loop
         vertex 1.626891e+002 1.664191e+001 7.014421e+001
         vertex 1.627546e+002 1.789168e+001 7.014421e+001
         vertex 1.627766e+002 1.747356e+001 7.014421e+001
      endloop
   endfacet
   facet normal -1.982541e-016 0.000000e+000 -1.000000e+000
      outer loop
         vertex 1.626891e+002 1.664191e+001 7.014421e+001
         vertex 1.627766e+002 1.747356e+001 7.014421e+001
         vertex 1.627546e+002 1.705545e+001 7.014421e+001
      endloop
   endfacet
endsolid