solid 1 - Двигатель^Самолёт_F22-1
   facet normal 1.000000e+000 0.000000e+000 -2.823702e-016
      outer loop
         vertex 2.000000e+000 -7.532798e-001 -1.977679e+000
         vertex 2.000000e+000 5.952329e-002 -2.996902e+000
         vertex 2.000000e+000 2.739103e-001 -2.930772e+000
      endloop
   endfacet
   facet normal 1.000000e+000 0.000000e+000 -2.823702e-016
      outer loop
         vertex 2.000000e+000 3.713311e-001 -1.630782e+000
         vertex 2.000000e+000 1.691947e-001 -1.533438e+000
         vertex 2.000000e+000 5.357946e-001 -1.783382e+000
      endloop
   endfacet
   facet normal 1.000000e+000 0.000000e+000 -2.823702e-016
      outer loop
         vertex 2.000000e+000 5.357946e-001 -1.783382e+000
         vertex 2.000000e+000 1.691947e-001 -1.533438e+000
         vertex 2.000000e+000 6.479719e-001 -1.977679e+000
      endloop
   endfacet
   facet normal 1.000000e+000 0.000000e+000 -2.823702e-016
      outer loop
         vertex 2.000000e+000 6.479719e-001 -1.977679e+000
         vertex 2.000000e+000 1.691947e-001 -1.533438e+000
         vertex 2.000000e+000 6.978954e-001 -2.196408e+000
      endloop
   endfacet
   facet normal 1.000000e+000 0.000000e+000 -2.823702e-016
      outer loop
         vertex 2.000000e+000 6.978954e-001 -2.196408e+000
         vertex 2.000000e+000 1.691947e-001 -1.533438e+000
         vertex 2.000000e+000 -5.265396e-002 -1.500000e+000
      endloop
   endfacet
   facet normal 1.000000e+000 0.000000e+000 -2.823702e-016
      outer loop
         vertex 2.000000e+000 6.978954e-001 -2.196408e+000
         vertex 2.000000e+000 -5.265396e-002 -1.500000e+000
         vertex 2.000000e+000 -2.745026e-001 -1.533438e+000
      endloop
   endfacet
   facet normal 1.000000e+000 0.000000e+000 -2.823702e-016
      outer loop
         vertex 2.000000e+000 5.952329e-002 -2.996902e+000
         vertex 2.000000e+000 -7.532798e-001 -1.977679e+000
         vertex 2.000000e+000 -1.648312e-001 -2.996902e+000
      endloop
   endfacet
   facet normal 1.000000e+000 0.000000e+000 -2.823702e-016
      outer loop
         vertex 2.000000e+000 -1.648312e-001 -2.996902e+000
         vertex 2.000000e+000 -7.532798e-001 -1.977679e+000
         vertex 2.000000e+000 -8.032033e-001 -2.196408e+000
      endloop
   endfacet
   facet normal 1.000000e+000 0.000000e+000 -2.823702e-016
      outer loop
         vertex 2.000000e+000 -1.648312e-001 -2.996902e+000
         vertex 2.000000e+000 -8.032033e-001 -2.196408e+000
         vertex 2.000000e+000 -7.864373e-001 -2.420135e+000
      endloop
   endfacet
   facet normal 1.000000e+000 0.000000e+000 -2.823702e-016
      outer loop
         vertex 2.000000e+000 -7.864373e-001 -2.420135e+000
         vertex 2.000000e+000 -7.044714e-001 -2.628981e+000
         vertex 2.000000e+000 -1.648312e-001 -2.996902e+000
      endloop
   endfacet
   facet normal 1.000000e+000 0.000000e+000 -2.823702e-016
      outer loop
         vertex 2.000000e+000 -1.648312e-001 -2.996902e+000
         vertex 2.000000e+000 -7.044714e-001 -2.628981e+000
         vertex 2.000000e+000 -5.645887e-001 -2.804388e+000
      endloop
   endfacet
   facet normal 1.000000e+000 0.000000e+000 -2.823702e-016
      outer loop
         vertex 2.000000e+000 -1.648312e-001 -2.996902e+000
         vertex 2.000000e+000 -5.645887e-001 -2.804388e+000
         vertex 2.000000e+000 -3.792183e-001 -2.930772e+000
      endloop
   endfacet
   facet normal 1.000000e+000 0.000000e+000 -2.823702e-016
      outer loop
         vertex 2.000000e+000 2.739103e-001 -2.930772e+000
         vertex 2.000000e+000 4.592807e-001 -2.804388e+000
         vertex 2.000000e+000 -7.532798e-001 -1.977679e+000
      endloop
   endfacet
   facet normal 1.000000e+000 0.000000e+000 -2.823702e-016
      outer loop
         vertex 2.000000e+000 -7.532798e-001 -1.977679e+000
         vertex 2.000000e+000 4.592807e-001 -2.804388e+000
         vertex 2.000000e+000 5.991635e-001 -2.628981e+000
      endloop
   endfacet
   facet normal 1.000000e+000 0.000000e+000 -2.823702e-016
      outer loop
         vertex 2.000000e+000 -7.532798e-001 -1.977679e+000
         vertex 2.000000e+000 5.991635e-001 -2.628981e+000
         vertex 2.000000e+000 -6.411026e-001 -1.783382e+000
      endloop
   endfacet
   facet normal 1.000000e+000 0.000000e+000 -2.823702e-016
      outer loop
         vertex 2.000000e+000 5.991635e-001 -2.628981e+000
         vertex 2.000000e+000 6.811294e-001 -2.420135e+000
         vertex 2.000000e+000 -6.411026e-001 -1.783382e+000
      endloop
   endfacet
   facet normal 1.000000e+000 0.000000e+000 -2.823702e-016
      outer loop
         vertex 2.000000e+000 -6.411026e-001 -1.783382e+000
         vertex 2.000000e+000 6.811294e-001 -2.420135e+000
         vertex 2.000000e+000 6.978954e-001 -2.196408e+000
      endloop
   endfacet
   facet normal 1.000000e+000 0.000000e+000 -2.823702e-016
      outer loop
         vertex 2.000000e+000 -6.411026e-001 -1.783382e+000
         vertex 2.000000e+000 6.978954e-001 -2.196408e+000
         vertex 2.000000e+000 -4.766390e-001 -1.630782e+000
      endloop
   endfacet
   facet normal 1.000000e+000 0.000000e+000 -2.823702e-016
      outer loop
         vertex 2.000000e+000 -4.766390e-001 -1.630782e+000
         vertex 2.000000e+000 6.978954e-001 -2.196408e+000
         vertex 2.000000e+000 -2.745026e-001 -1.533438e+000
      endloop
   endfacet
   facet normal 2.880962e-016 -1.490422e-001 9.888308e-001
      outer loop
         vertex 2.000000e+000 -2.745026e-001 -1.533438e+000
         vertex 2.000000e+000 -5.265396e-002 -1.500000e+000
         vertex -3.000000e+000 -1.648312e-001 -1.508407e+000
      endloop
   endfacet
   facet normal 2.943255e-016 -2.467975e-001 9.690671e-001
      outer loop
         vertex -3.000000e+000 -1.648312e-001 -1.508407e+000
         vertex -3.000000e+000 -2.720248e-001 -1.541471e+000
         vertex 2.000000e+000 -2.745026e-001 -1.533438e+000
      endloop
   endfacet
   facet normal 2.940095e-016 -3.419812e-001 9.397068e-001
      outer loop
         vertex 2.000000e+000 -2.745026e-001 -1.533438e+000
         vertex -3.000000e+000 -2.720248e-001 -1.541471e+000
         vertex -3.000000e+000 -3.792183e-001 -1.574536e+000
      endloop
   endfacet
   facet normal 2.713009e-016 -4.338838e-001 9.009688e-001
      outer loop
         vertex 2.000000e+000 -2.745026e-001 -1.533438e+000
         vertex -3.000000e+000 -3.792183e-001 -1.574536e+000
         vertex 2.000000e+000 -4.766390e-001 -1.630782e+000
      endloop
   endfacet
   facet normal 2.813407e-016 -5.214705e-001 8.532693e-001
      outer loop
         vertex -3.000000e+000 -3.792183e-001 -1.574536e+000
         vertex -3.000000e+000 -4.719035e-001 -1.637728e+000
         vertex 2.000000e+000 -4.766390e-001 -1.630782e+000
      endloop
   endfacet
   facet normal 2.807368e-016 -6.037713e-001 7.971575e-001
      outer loop
         vertex 2.000000e+000 -4.766390e-001 -1.630782e+000
         vertex -3.000000e+000 -4.719035e-001 -1.637728e+000
         vertex -3.000000e+000 -5.645887e-001 -1.700920e+000
      endloop
   endfacet
   facet normal 2.392027e-016 -6.801727e-001 7.330518e-001
      outer loop
         vertex 2.000000e+000 -4.766390e-001 -1.630782e+000
         vertex -3.000000e+000 -5.645887e-001 -1.700920e+000
         vertex 2.000000e+000 -6.411026e-001 -1.783382e+000
      endloop
   endfacet
   facet normal 2.608767e-016 -7.498086e-001 6.616548e-001
      outer loop
         vertex -3.000000e+000 -5.645887e-001 -1.700920e+000
         vertex -3.000000e+000 -6.345301e-001 -1.788623e+000
         vertex 2.000000e+000 -6.411026e-001 -1.783382e+000
      endloop
   endfacet
   facet normal 1.614551e-016 -8.119138e-001 5.837772e-001
      outer loop
         vertex 2.000000e+000 -6.411026e-001 -1.783382e+000
         vertex -3.000000e+000 -6.345301e-001 -1.788623e+000
         vertex -3.000000e+000 -7.044714e-001 -1.876327e+000
      endloop
   endfacet
   facet normal 9.557749e-017 -8.660254e-001 5.000001e-001
      outer loop
         vertex 2.000000e+000 -6.411026e-001 -1.783382e+000
         vertex -3.000000e+000 -7.044714e-001 -1.876327e+000
         vertex 2.000000e+000 -7.532798e-001 -1.977679e+000
      endloop
   endfacet
   facet normal 3.758483e-017 -9.115229e-001 4.112494e-001
      outer loop
         vertex -3.000000e+000 -7.044714e-001 -1.876327e+000
         vertex -3.000000e+000 -7.454544e-001 -1.980750e+000
         vertex 2.000000e+000 -7.532798e-001 -1.977679e+000
      endloop
   endfacet
   facet normal 3.658694e-017 -9.479141e-001 3.185259e-001
      outer loop
         vertex 2.000000e+000 -7.532798e-001 -1.977679e+000
         vertex -3.000000e+000 -7.454544e-001 -1.980750e+000
         vertex -3.000000e+000 -7.864373e-001 -2.085173e+000
      endloop
   endfacet
   facet normal 4.253598e-017 -9.749279e-001 2.225209e-001
      outer loop
         vertex 2.000000e+000 -7.532798e-001 -1.977679e+000
         vertex -3.000000e+000 -7.864373e-001 -2.085173e+000
         vertex 2.000000e+000 -8.032033e-001 -2.196408e+000
      endloop
   endfacet
   facet normal 8.120377e-018 -9.922444e-001 1.243026e-001
      outer loop
         vertex -3.000000e+000 -7.864373e-001 -2.085173e+000
         vertex -3.000000e+000 -7.948204e-001 -2.197036e+000
         vertex 2.000000e+000 -8.032033e-001 -2.196408e+000
      endloop
   endfacet
   facet normal 7.051374e-018 -9.996881e-001 2.497209e-002
      outer loop
         vertex 2.000000e+000 -8.032033e-001 -2.196408e+000
         vertex -3.000000e+000 -7.948204e-001 -2.197036e+000
         vertex -3.000000e+000 -8.032033e-001 -2.308900e+000
      endloop
   endfacet
   facet normal -1.428503e-017 -9.972038e-001 -7.473009e-002
      outer loop
         vertex 2.000000e+000 -8.032033e-001 -2.196408e+000
         vertex -3.000000e+000 -8.032033e-001 -2.308900e+000
         vertex 2.000000e+000 -7.864373e-001 -2.420135e+000
      endloop
   endfacet
   facet normal -2.206561e-017 -9.848006e-001 -1.736889e-001
      outer loop
         vertex -3.000000e+000 -8.032033e-001 -2.308900e+000
         vertex -3.000000e+000 -7.782416e-001 -2.418265e+000
         vertex 2.000000e+000 -7.864373e-001 -2.420135e+000
      endloop
   endfacet
   facet normal -2.311073e-017 -9.626355e-001 -2.708006e-001
      outer loop
         vertex 2.000000e+000 -7.864373e-001 -2.420135e+000
         vertex -3.000000e+000 -7.782416e-001 -2.418265e+000
         vertex -3.000000e+000 -7.532798e-001 -2.527629e+000
      endloop
   endfacet
   facet normal -6.983675e-017 -9.308738e-001 -3.653411e-001
      outer loop
         vertex 2.000000e+000 -7.864373e-001 -2.420135e+000
         vertex -3.000000e+000 -7.532798e-001 -2.527629e+000
         vertex 2.000000e+000 -7.044714e-001 -2.628981e+000
      endloop
   endfacet
   facet normal -5.029097e-017 -8.898529e-001 -4.562475e-001
      outer loop
         vertex -3.000000e+000 -7.532798e-001 -2.527629e+000
         vertex -3.000000e+000 -6.971912e-001 -2.624778e+000
         vertex 2.000000e+000 -7.044714e-001 -2.628981e+000
      endloop
   endfacet
   facet normal -5.121935e-017 -8.400484e-001 -5.425115e-001
      outer loop
         vertex 2.000000e+000 -7.044714e-001 -2.628981e+000
         vertex -3.000000e+000 -6.971912e-001 -2.624778e+000
         vertex -3.000000e+000 -6.411026e-001 -2.721926e+000
      endloop
   endfacet
   facet normal -1.191832e-016 -7.818314e-001 -6.234898e-001
      outer loop
         vertex 2.000000e+000 -7.044714e-001 -2.628981e+000
         vertex -3.000000e+000 -6.411026e-001 -2.721926e+000
         vertex 2.000000e+000 -5.645887e-001 -2.804388e+000
      endloop
   endfacet
   facet normal -7.404777e-017 -7.158380e-001 -6.982664e-001
      outer loop
         vertex -3.000000e+000 -6.411026e-001 -2.721926e+000
         vertex -3.000000e+000 -5.588708e-001 -2.798226e+000
         vertex 2.000000e+000 -5.645887e-001 -2.804388e+000
      endloop
   endfacet
   facet normal -7.477691e-017 -6.428193e-001 -7.660179e-001
      outer loop
         vertex 2.000000e+000 -5.645887e-001 -2.804388e+000
         vertex -3.000000e+000 -5.588708e-001 -2.798226e+000
         vertex -3.000000e+000 -4.766390e-001 -2.874526e+000
      endloop
   endfacet
   facet normal -1.579397e-016 -5.633200e-001 -8.262388e-001
      outer loop
         vertex 2.000000e+000 -5.645887e-001 -2.804388e+000
         vertex -3.000000e+000 -4.766390e-001 -2.874526e+000
         vertex 2.000000e+000 -3.792183e-001 -2.930772e+000
      endloop
   endfacet
   facet normal -9.122508e-017 -4.782176e-001 -8.782414e-001
      outer loop
         vertex -3.000000e+000 -4.766390e-001 -2.874526e+000
         vertex -3.000000e+000 -3.755708e-001 -2.923198e+000
         vertex 2.000000e+000 -3.792183e-001 -2.930772e+000
      endloop
   endfacet
   facet normal -9.169020e-017 -3.884729e-001 -9.214602e-001
      outer loop
         vertex 2.000000e+000 -3.792183e-001 -2.930772e+000
         vertex -3.000000e+000 -3.755708e-001 -2.923198e+000
         vertex -3.000000e+000 -2.745026e-001 -2.971870e+000
      endloop
   endfacet
   facet normal -1.826625e-016 -2.947552e-001 -9.555728e-001
      outer loop
         vertex 2.000000e+000 -3.792183e-001 -2.930772e+000
         vertex -3.000000e+000 -2.745026e-001 -2.971870e+000
         vertex 2.000000e+000 -1.648312e-001 -2.996902e+000
      endloop
   endfacet
   facet normal -1.002967e-016 -1.981055e-001 -9.801807e-001
      outer loop
         vertex -3.000000e+000 -2.745026e-001 -2.971870e+000
         vertex -3.000000e+000 -1.635783e-001 -2.988589e+000
         vertex 2.000000e+000 -1.648312e-001 -2.996902e+000
      endloop
   endfacet
   facet normal -1.004564e-016 -9.960905e-002 -9.950266e-001
      outer loop
         vertex 2.000000e+000 -1.648312e-001 -2.996902e+000
         vertex -3.000000e+000 -1.635783e-001 -2.988589e+000
         vertex -3.000000e+000 -5.265396e-002 -3.005308e+000
      endloop
   endfacet
   facet normal -1.911550e-016 0.000000e+000 -1.000000e+000
      outer loop
         vertex 2.000000e+000 -1.648312e-001 -2.996902e+000
         vertex -3.000000e+000 -5.265396e-002 -3.005308e+000
         vertex 2.000000e+000 5.952329e-002 -2.996902e+000
      endloop
   endfacet
   facet normal -1.004564e-016 9.960905e-002 -9.950266e-001
      outer loop
         vertex -3.000000e+000 -5.265396e-002 -3.005308e+000
         vertex -3.000000e+000 5.827036e-002 -2.988589e+000
         vertex 2.000000e+000 5.952329e-002 -2.996902e+000
      endloop
   endfacet
   facet normal -1.002967e-016 1.981055e-001 -9.801807e-001
      outer loop
         vertex 2.000000e+000 5.952329e-002 -2.996902e+000
         vertex -3.000000e+000 5.827036e-002 -2.988589e+000
         vertex -3.000000e+000 1.691947e-001 -2.971870e+000
      endloop
   endfacet
   facet normal -1.826625e-016 2.947552e-001 -9.555728e-001
      outer loop
         vertex 2.000000e+000 5.952329e-002 -2.996902e+000
         vertex -3.000000e+000 1.691947e-001 -2.971870e+000
         vertex 2.000000e+000 2.739103e-001 -2.930772e+000
      endloop
   endfacet
   facet normal -9.169020e-017 3.884729e-001 -9.214602e-001
      outer loop
         vertex -3.000000e+000 1.691947e-001 -2.971870e+000
         vertex -3.000000e+000 2.702629e-001 -2.923198e+000
         vertex 2.000000e+000 2.739103e-001 -2.930772e+000
      endloop
   endfacet
   facet normal -9.122508e-017 4.782176e-001 -8.782414e-001
      outer loop
         vertex 2.000000e+000 2.739103e-001 -2.930772e+000
         vertex -3.000000e+000 2.702629e-001 -2.923198e+000
         vertex -3.000000e+000 3.713311e-001 -2.874526e+000
      endloop
   endfacet
   facet normal -1.579397e-016 5.633200e-001 -8.262388e-001
      outer loop
         vertex 2.000000e+000 2.739103e-001 -2.930772e+000
         vertex -3.000000e+000 3.713311e-001 -2.874526e+000
         vertex 2.000000e+000 4.592807e-001 -2.804388e+000
      endloop
   endfacet
   facet normal -7.477691e-017 6.428193e-001 -7.660179e-001
      outer loop
         vertex -3.000000e+000 3.713311e-001 -2.874526e+000
         vertex -3.000000e+000 4.535629e-001 -2.798226e+000
         vertex 2.000000e+000 4.592807e-001 -2.804388e+000
      endloop
   endfacet
   facet normal -7.404776e-017 7.158380e-001 -6.982664e-001
      outer loop
         vertex 2.000000e+000 4.592807e-001 -2.804388e+000
         vertex -3.000000e+000 4.535629e-001 -2.798226e+000
         vertex -3.000000e+000 5.357946e-001 -2.721926e+000
      endloop
   endfacet
   facet normal -1.191832e-016 7.818315e-001 -6.234898e-001
      outer loop
         vertex 2.000000e+000 4.592807e-001 -2.804388e+000
         vertex -3.000000e+000 5.357946e-001 -2.721926e+000
         vertex 2.000000e+000 5.991635e-001 -2.628981e+000
      endloop
   endfacet
   facet normal -5.121935e-017 8.400484e-001 -5.425115e-001
      outer loop
         vertex -3.000000e+000 5.357946e-001 -2.721926e+000
         vertex -3.000000e+000 5.918832e-001 -2.624778e+000
         vertex 2.000000e+000 5.991635e-001 -2.628981e+000
      endloop
   endfacet
   facet normal -5.029097e-017 8.898529e-001 -4.562475e-001
      outer loop
         vertex 2.000000e+000 5.991635e-001 -2.628981e+000
         vertex -3.000000e+000 5.918832e-001 -2.624778e+000
         vertex -3.000000e+000 6.479719e-001 -2.527629e+000
      endloop
   endfacet
   facet normal -6.983675e-017 9.308738e-001 -3.653411e-001
      outer loop
         vertex 2.000000e+000 5.991635e-001 -2.628981e+000
         vertex -3.000000e+000 6.479719e-001 -2.527629e+000
         vertex 2.000000e+000 6.811294e-001 -2.420135e+000
      endloop
   endfacet
   facet normal -2.311073e-017 9.626355e-001 -2.708006e-001
      outer loop
         vertex -3.000000e+000 6.479719e-001 -2.527629e+000
         vertex -3.000000e+000 6.729336e-001 -2.418265e+000
         vertex 2.000000e+000 6.811294e-001 -2.420135e+000
      endloop
   endfacet
   facet normal -2.206561e-017 9.848006e-001 -1.736889e-001
      outer loop
         vertex 2.000000e+000 6.811294e-001 -2.420135e+000
         vertex -3.000000e+000 6.729336e-001 -2.418265e+000
         vertex -3.000000e+000 6.978954e-001 -2.308900e+000
      endloop
   endfacet
   facet normal -1.428503e-017 9.972038e-001 -7.473008e-002
      outer loop
         vertex 2.000000e+000 6.811294e-001 -2.420135e+000
         vertex -3.000000e+000 6.978954e-001 -2.308900e+000
         vertex 2.000000e+000 6.978954e-001 -2.196408e+000
      endloop
   endfacet
   facet normal 7.051374e-018 9.996881e-001 2.497209e-002
      outer loop
         vertex -3.000000e+000 6.978954e-001 -2.308900e+000
         vertex -3.000000e+000 6.895124e-001 -2.197036e+000
         vertex 2.000000e+000 6.978954e-001 -2.196408e+000
      endloop
   endfacet
   facet normal 8.120377e-018 9.922444e-001 1.243026e-001
      outer loop
         vertex 2.000000e+000 6.978954e-001 -2.196408e+000
         vertex -3.000000e+000 6.895124e-001 -2.197036e+000
         vertex -3.000000e+000 6.811294e-001 -2.085173e+000
      endloop
   endfacet
   facet normal 4.253598e-017 9.749279e-001 2.225209e-001
      outer loop
         vertex 2.000000e+000 6.978954e-001 -2.196408e+000
         vertex -3.000000e+000 6.811294e-001 -2.085173e+000
         vertex 2.000000e+000 6.479719e-001 -1.977679e+000
      endloop
   endfacet
   facet normal 3.658694e-017 9.479141e-001 3.185259e-001
      outer loop
         vertex -3.000000e+000 6.811294e-001 -2.085173e+000
         vertex -3.000000e+000 6.401464e-001 -1.980750e+000
         vertex 2.000000e+000 6.479719e-001 -1.977679e+000
      endloop
   endfacet
   facet normal 3.758483e-017 9.115229e-001 4.112494e-001
      outer loop
         vertex 2.000000e+000 6.479719e-001 -1.977679e+000
         vertex -3.000000e+000 6.401464e-001 -1.980750e+000
         vertex -3.000000e+000 5.991635e-001 -1.876327e+000
      endloop
   endfacet
   facet normal 9.557749e-017 8.660254e-001 5.000000e-001
      outer loop
         vertex 2.000000e+000 6.479719e-001 -1.977679e+000
         vertex -3.000000e+000 5.991635e-001 -1.876327e+000
         vertex 2.000000e+000 5.357946e-001 -1.783382e+000
      endloop
   endfacet
   facet normal 1.614551e-016 8.119138e-001 5.837773e-001
      outer loop
         vertex -3.000000e+000 5.991635e-001 -1.876327e+000
         vertex -3.000000e+000 5.292221e-001 -1.788623e+000
         vertex 2.000000e+000 5.357946e-001 -1.783382e+000
      endloop
   endfacet
   facet normal 2.608767e-016 7.498086e-001 6.616548e-001
      outer loop
         vertex 2.000000e+000 5.357946e-001 -1.783382e+000
         vertex -3.000000e+000 5.292221e-001 -1.788623e+000
         vertex -3.000000e+000 4.592807e-001 -1.700920e+000
      endloop
   endfacet
   facet normal 2.392027e-016 6.801728e-001 7.330518e-001
      outer loop
         vertex 2.000000e+000 5.357946e-001 -1.783382e+000
         vertex -3.000000e+000 4.592807e-001 -1.700920e+000
         vertex 2.000000e+000 3.713311e-001 -1.630782e+000
      endloop
   endfacet
   facet normal 2.807368e-016 6.037714e-001 7.971575e-001
      outer loop
         vertex -3.000000e+000 4.592807e-001 -1.700920e+000
         vertex -3.000000e+000 3.665955e-001 -1.637728e+000
         vertex 2.000000e+000 3.713311e-001 -1.630782e+000
      endloop
   endfacet
   facet normal 2.813407e-016 5.214705e-001 8.532693e-001
      outer loop
         vertex 2.000000e+000 3.713311e-001 -1.630782e+000
         vertex -3.000000e+000 3.665955e-001 -1.637728e+000
         vertex -3.000000e+000 2.739103e-001 -1.574536e+000
      endloop
   endfacet
   facet normal 2.713009e-016 4.338837e-001 9.009689e-001
      outer loop
         vertex 2.000000e+000 3.713311e-001 -1.630782e+000
         vertex -3.000000e+000 2.739103e-001 -1.574536e+000
         vertex 2.000000e+000 1.691947e-001 -1.533438e+000
      endloop
   endfacet
   facet normal 2.940095e-016 3.419812e-001 9.397068e-001
      outer loop
         vertex -3.000000e+000 2.739103e-001 -1.574536e+000
         vertex -3.000000e+000 1.667168e-001 -1.541471e+000
         vertex 2.000000e+000 1.691947e-001 -1.533438e+000
      endloop
   endfacet
   facet normal 2.943255e-016 2.467975e-001 9.690671e-001
      outer loop
         vertex 2.000000e+000 1.691947e-001 -1.533438e+000
         vertex -3.000000e+000 1.667168e-001 -1.541471e+000
         vertex -3.000000e+000 5.952329e-002 -1.508407e+000
      endloop
   endfacet
   facet normal 2.880962e-016 1.490422e-001 9.888308e-001
      outer loop
         vertex 2.000000e+000 1.691947e-001 -1.533438e+000
         vertex -3.000000e+000 5.952329e-002 -1.508407e+000
         vertex 2.000000e+000 -5.265396e-002 -1.500000e+000
      endloop
   endfacet
   facet normal 2.908554e-016 4.980453e-002 9.987590e-001
      outer loop
         vertex 2.000000e+000 -5.265396e-002 -1.500000e+000
         vertex -3.000000e+000 5.952329e-002 -1.508407e+000
         vertex -3.000000e+000 -5.265396e-002 -1.500000e+000
      endloop
   endfacet
   facet normal 2.908554e-016 -4.980453e-002 9.987590e-001
      outer loop
         vertex 2.000000e+000 -5.265396e-002 -1.500000e+000
         vertex -3.000000e+000 -5.265396e-002 -1.500000e+000
         vertex -3.000000e+000 -1.648312e-001 -1.508407e+000
      endloop
   endfacet
   facet normal -1.749112e-001 -1.467447e-001 -9.735872e-001
      outer loop
         vertex -5.000000e+000 -1.705560e-001 -2.634883e+000
         vertex -5.000000e+000 -5.265396e-002 -2.652654e+000
         vertex -3.000000e+000 -1.635783e-001 -2.988589e+000
      endloop
   endfacet
   facet normal -1.740677e-001 -2.430298e-001 -9.542730e-001
      outer loop
         vertex -3.000000e+000 -1.635783e-001 -2.988589e+000
         vertex -3.000000e+000 -2.745026e-001 -2.971870e+000
         vertex -5.000000e+000 -1.705560e-001 -2.634883e+000
      endloop
   endfacet
   facet normal -1.740677e-001 -3.367604e-001 -9.253609e-001
      outer loop
         vertex -5.000000e+000 -1.705560e-001 -2.634883e+000
         vertex -3.000000e+000 -2.745026e-001 -2.971870e+000
         vertex -3.000000e+000 -3.755708e-001 -2.923198e+000
      endloop
   endfacet
   facet normal -1.749112e-001 -4.271951e-001 -8.870797e-001
      outer loop
         vertex -5.000000e+000 -1.705560e-001 -2.634883e+000
         vertex -3.000000e+000 -3.755708e-001 -2.923198e+000
         vertex -5.000000e+000 -2.779820e-001 -2.583149e+000
      endloop
   endfacet
   facet normal -1.740677e-001 -5.135096e-001 -8.402430e-001
      outer loop
         vertex -3.000000e+000 -3.755708e-001 -2.923198e+000
         vertex -3.000000e+000 -4.766390e-001 -2.874526e+000
         vertex -5.000000e+000 -2.779820e-001 -2.583149e+000
      endloop
   endfacet
   facet normal -1.740677e-001 -5.945540e-001 -7.849879e-001
      outer loop
         vertex -5.000000e+000 -2.779820e-001 -2.583149e+000
         vertex -3.000000e+000 -4.766390e-001 -2.874526e+000
         vertex -3.000000e+000 -5.588708e-001 -2.798226e+000
      endloop
   endfacet
   facet normal -1.749112e-001 -6.696873e-001 -7.217513e-001
      outer loop
         vertex -5.000000e+000 -2.779820e-001 -2.583149e+000
         vertex -3.000000e+000 -5.588708e-001 -2.798226e+000
         vertex -5.000000e+000 -3.653866e-001 -2.502050e+000
      endloop
   endfacet
   facet normal -1.740677e-001 -7.383618e-001 -6.515538e-001
      outer loop
         vertex -3.000000e+000 -5.588708e-001 -2.798226e+000
         vertex -3.000000e+000 -6.411026e-001 -2.721926e+000
         vertex -5.000000e+000 -3.653866e-001 -2.502050e+000
      endloop
   endfacet
   facet normal -1.740677e-001 -7.995189e-001 -5.748652e-001
      outer loop
         vertex -5.000000e+000 -3.653866e-001 -2.502050e+000
         vertex -3.000000e+000 -6.411026e-001 -2.721926e+000
         vertex -3.000000e+000 -6.971912e-001 -2.624778e+000
      endloop
   endfacet
   facet normal -1.749112e-001 -8.526750e-001 -4.922921e-001
      outer loop
         vertex -5.000000e+000 -3.653866e-001 -2.502050e+000
         vertex -3.000000e+000 -6.971912e-001 -2.624778e+000
         vertex -5.000000e+000 -4.250035e-001 -2.398790e+000
      endloop
   endfacet
   facet normal -1.740677e-001 -8.976073e-001 -4.049711e-001
      outer loop
         vertex -3.000000e+000 -6.971912e-001 -2.624778e+000
         vertex -3.000000e+000 -7.532798e-001 -2.527629e+000
         vertex -5.000000e+000 -4.250035e-001 -2.398790e+000
      endloop
   endfacet
   facet normal -1.740677e-001 -9.334430e-001 -3.136632e-001
      outer loop
         vertex -5.000000e+000 -4.250035e-001 -2.398790e+000
         vertex -3.000000e+000 -7.532798e-001 -2.527629e+000
         vertex -3.000000e+000 -7.782416e-001 -2.418265e+000
      endloop
   endfacet
   facet normal -1.749112e-001 -9.598987e-001 -2.190906e-001
      outer loop
         vertex -5.000000e+000 -4.250035e-001 -2.398790e+000
         vertex -3.000000e+000 -7.782416e-001 -2.418265e+000
         vertex -5.000000e+000 -4.515355e-001 -2.282546e+000
      endloop
   endfacet
   facet normal -1.740677e-001 -9.770964e-001 -1.224050e-001
      outer loop
         vertex -3.000000e+000 -7.782416e-001 -2.418265e+000
         vertex -3.000000e+000 -8.032033e-001 -2.308900e+000
         vertex -5.000000e+000 -4.515355e-001 -2.282546e+000
      endloop
   endfacet
   facet normal -1.740677e-001 -9.844266e-001 -2.459086e-002
      outer loop
         vertex -5.000000e+000 -4.515355e-001 -2.282546e+000
         vertex -3.000000e+000 -8.032033e-001 -2.308900e+000
         vertex -3.000000e+000 -7.948204e-001 -2.197036e+000
      endloop
   endfacet
   facet normal -1.749112e-001 -9.818311e-001 7.357807e-002
      outer loop
         vertex -5.000000e+000 -4.515355e-001 -2.282546e+000
         vertex -3.000000e+000 -7.948204e-001 -2.197036e+000
         vertex -5.000000e+000 -4.426251e-001 -2.163646e+000
      endloop
   endfacet
   facet normal -1.740677e-001 -9.697663e-001 1.710374e-001
      outer loop
         vertex -3.000000e+000 -7.948204e-001 -2.197036e+000
         vertex -3.000000e+000 -7.864373e-001 -2.085173e+000
         vertex -5.000000e+000 -4.426251e-001 -2.163646e+000
      endloop
   endfacet
   facet normal -1.740677e-001 -9.479396e-001 2.666665e-001
      outer loop
         vertex -5.000000e+000 -4.426251e-001 -2.163646e+000
         vertex -3.000000e+000 -7.864373e-001 -2.085173e+000
         vertex -3.000000e+000 -7.454544e-001 -1.980750e+000
      endloop
   endfacet
   facet normal -1.749112e-001 -9.165236e-001 3.597090e-001
      outer loop
         vertex -5.000000e+000 -4.426251e-001 -2.163646e+000
         vertex -3.000000e+000 -7.454544e-001 -1.980750e+000
         vertex -5.000000e+000 -3.990641e-001 -2.052654e+000
      endloop
   endfacet
   facet normal -1.740677e-001 -8.762681e-001 4.492823e-001
      outer loop
         vertex -3.000000e+000 -7.454544e-001 -1.980750e+000
         vertex -3.000000e+000 -7.044714e-001 -1.876327e+000
         vertex -5.000000e+000 -3.990641e-001 -2.052654e+000
      endloop
   endfacet
   facet normal -1.740677e-001 -8.272240e-001 5.342293e-001
      outer loop
         vertex -5.000000e+000 -3.990641e-001 -2.052654e+000
         vertex -3.000000e+000 -7.044714e-001 -1.876327e+000
         vertex -3.000000e+000 -6.345301e-001 -1.788623e+000
      endloop
   endfacet
   facet normal -1.749112e-001 -7.697789e-001 6.138783e-001
      outer loop
         vertex -5.000000e+000 -3.990641e-001 -2.052654e+000
         vertex -3.000000e+000 -6.345301e-001 -1.788623e+000
         vertex -5.000000e+000 -3.247231e-001 -1.959433e+000
      endloop
   endfacet
   facet normal -1.740677e-001 -7.049097e-001 6.876065e-001
      outer loop
         vertex -3.000000e+000 -6.345301e-001 -1.788623e+000
         vertex -3.000000e+000 -5.645887e-001 -1.700920e+000
         vertex -5.000000e+000 -3.247231e-001 -1.959433e+000
      endloop
   endfacet
   facet normal -1.740677e-001 -6.330058e-001 7.543236e-001
      outer loop
         vertex -5.000000e+000 -3.247231e-001 -1.959433e+000
         vertex -3.000000e+000 -5.645887e-001 -1.700920e+000
         vertex -3.000000e+000 -4.719035e-001 -1.637728e+000
      endloop
   endfacet
   facet normal -1.749112e-001 -5.546360e-001 8.135017e-001
      outer loop
         vertex -5.000000e+000 -3.247231e-001 -1.959433e+000
         vertex -3.000000e+000 -4.719035e-001 -1.637728e+000
         vertex -5.000000e+000 -2.262075e-001 -1.892266e+000
      endloop
   endfacet
   facet normal -1.740677e-001 -4.709170e-001 8.648339e-001
      outer loop
         vertex -3.000000e+000 -4.719035e-001 -1.637728e+000
         vertex -3.000000e+000 -3.792183e-001 -1.574536e+000
         vertex -5.000000e+000 -2.262075e-001 -1.892266e+000
      endloop
   endfacet
   facet normal -1.740677e-001 -3.825424e-001 9.073928e-001
      outer loop
         vertex -5.000000e+000 -2.262075e-001 -1.892266e+000
         vertex -3.000000e+000 -3.792183e-001 -1.574536e+000
         vertex -3.000000e+000 -2.720248e-001 -1.541471e+000
      endloop
   endfacet
   facet normal -1.749112e-001 -2.902113e-001 9.408419e-001
      outer loop
         vertex -5.000000e+000 -2.262075e-001 -1.892266e+000
         vertex -3.000000e+000 -2.720248e-001 -1.541471e+000
         vertex -5.000000e+000 -1.122709e-001 -1.857122e+000
      endloop
   endfacet
   facet normal -1.740677e-001 -1.950812e-001 9.652169e-001
      outer loop
         vertex -5.000000e+000 -1.122709e-001 -1.857122e+000
         vertex -3.000000e+000 -2.720248e-001 -1.541471e+000
         vertex -3.000000e+000 -1.648312e-001 -1.508407e+000
      endloop
   endfacet
   facet normal -1.740677e-001 -9.808839e-002 9.798363e-001
      outer loop
         vertex -5.000000e+000 -1.122709e-001 -1.857122e+000
         vertex -3.000000e+000 -1.648312e-001 -1.508407e+000
         vertex -5.000000e+000 -5.265396e-002 -1.852654e+000
      endloop
   endfacet
   facet normal -1.740677e-001 -4.904420e-002 9.835116e-001
      outer loop
         vertex -5.000000e+000 -5.265396e-002 -1.852654e+000
         vertex -3.000000e+000 -1.648312e-001 -1.508407e+000
         vertex -3.000000e+000 -5.265396e-002 -1.500000e+000
      endloop
   endfacet
   facet normal -1.740677e-001 4.904420e-002 9.835116e-001
      outer loop
         vertex -5.000000e+000 -5.265396e-002 -1.852654e+000
         vertex -3.000000e+000 -5.265396e-002 -1.500000e+000
         vertex -5.000000e+000 6.962943e-003 -1.857122e+000
      endloop
   endfacet
   facet normal -1.740677e-001 9.808839e-002 9.798363e-001
      outer loop
         vertex -3.000000e+000 -5.265396e-002 -1.500000e+000
         vertex -3.000000e+000 5.952329e-002 -1.508407e+000
         vertex -5.000000e+000 6.962943e-003 -1.857122e+000
      endloop
   endfacet
   facet normal -1.740677e-001 1.950812e-001 9.652169e-001
      outer loop
         vertex -5.000000e+000 6.962943e-003 -1.857122e+000
         vertex -3.000000e+000 5.952329e-002 -1.508407e+000
         vertex -3.000000e+000 1.667168e-001 -1.541471e+000
      endloop
   endfacet
   facet normal -1.749112e-001 2.902113e-001 9.408419e-001
      outer loop
         vertex -5.000000e+000 6.962943e-003 -1.857122e+000
         vertex -3.000000e+000 1.667168e-001 -1.541471e+000
         vertex -5.000000e+000 1.208995e-001 -1.892266e+000
      endloop
   endfacet
   facet normal -1.740677e-001 3.825424e-001 9.073929e-001
      outer loop
         vertex -3.000000e+000 1.667168e-001 -1.541471e+000
         vertex -3.000000e+000 2.739103e-001 -1.574536e+000
         vertex -5.000000e+000 1.208995e-001 -1.892266e+000
      endloop
   endfacet
   facet normal -1.740677e-001 4.709170e-001 8.648339e-001
      outer loop
         vertex -5.000000e+000 1.208995e-001 -1.892266e+000
         vertex -3.000000e+000 2.739103e-001 -1.574536e+000
         vertex -3.000000e+000 3.665955e-001 -1.637728e+000
      endloop
   endfacet
   facet normal -1.749112e-001 5.546360e-001 8.135017e-001
      outer loop
         vertex -5.000000e+000 1.208995e-001 -1.892266e+000
         vertex -3.000000e+000 3.665955e-001 -1.637728e+000
         vertex -5.000000e+000 2.194151e-001 -1.959433e+000
      endloop
   endfacet
   facet normal -1.740677e-001 6.330058e-001 7.543236e-001
      outer loop
         vertex -3.000000e+000 3.665955e-001 -1.637728e+000
         vertex -3.000000e+000 4.592807e-001 -1.700920e+000
         vertex -5.000000e+000 2.194151e-001 -1.959433e+000
      endloop
   endfacet
   facet normal -1.740677e-001 7.049097e-001 6.876065e-001
      outer loop
         vertex -5.000000e+000 2.194151e-001 -1.959433e+000
         vertex -3.000000e+000 4.592807e-001 -1.700920e+000
         vertex -3.000000e+000 5.292221e-001 -1.788623e+000
      endloop
   endfacet
   facet normal -1.749112e-001 7.697790e-001 6.138782e-001
      outer loop
         vertex -5.000000e+000 2.194151e-001 -1.959433e+000
         vertex -3.000000e+000 5.292221e-001 -1.788623e+000
         vertex -5.000000e+000 2.937562e-001 -2.052654e+000
      endloop
   endfacet
   facet normal -1.740677e-001 8.272240e-001 5.342293e-001
      outer loop
         vertex -3.000000e+000 5.292221e-001 -1.788623e+000
         vertex -3.000000e+000 5.991635e-001 -1.876327e+000
         vertex -5.000000e+000 2.937562e-001 -2.052654e+000
      endloop
   endfacet
   facet normal -1.740677e-001 8.762681e-001 4.492823e-001
      outer loop
         vertex -5.000000e+000 2.937562e-001 -2.052654e+000
         vertex -3.000000e+000 5.991635e-001 -1.876327e+000
         vertex -3.000000e+000 6.401464e-001 -1.980750e+000
      endloop
   endfacet
   facet normal -1.749112e-001 9.165236e-001 3.597090e-001
      outer loop
         vertex -5.000000e+000 2.937562e-001 -2.052654e+000
         vertex -3.000000e+000 6.401464e-001 -1.980750e+000
         vertex -5.000000e+000 3.373172e-001 -2.163646e+000
      endloop
   endfacet
   facet normal -1.740677e-001 9.479396e-001 2.666665e-001
      outer loop
         vertex -3.000000e+000 6.401464e-001 -1.980750e+000
         vertex -3.000000e+000 6.811294e-001 -2.085173e+000
         vertex -5.000000e+000 3.373172e-001 -2.163646e+000
      endloop
   endfacet
   facet normal -1.740677e-001 9.697663e-001 1.710374e-001
      outer loop
         vertex -5.000000e+000 3.373172e-001 -2.163646e+000
         vertex -3.000000e+000 6.811294e-001 -2.085173e+000
         vertex -3.000000e+000 6.895124e-001 -2.197036e+000
      endloop
   endfacet
   facet normal -1.749112e-001 9.818311e-001 7.357807e-002
      outer loop
         vertex -5.000000e+000 3.373172e-001 -2.163646e+000
         vertex -3.000000e+000 6.895124e-001 -2.197036e+000
         vertex -5.000000e+000 3.462276e-001 -2.282546e+000
      endloop
   endfacet
   facet normal -1.740677e-001 9.844266e-001 -2.459086e-002
      outer loop
         vertex -3.000000e+000 6.895124e-001 -2.197036e+000
         vertex -3.000000e+000 6.978954e-001 -2.308900e+000
         vertex -5.000000e+000 3.462276e-001 -2.282546e+000
      endloop
   endfacet
   facet normal -1.740677e-001 9.770964e-001 -1.224050e-001
      outer loop
         vertex -5.000000e+000 3.462276e-001 -2.282546e+000
         vertex -3.000000e+000 6.978954e-001 -2.308900e+000
         vertex -3.000000e+000 6.729336e-001 -2.418265e+000
      endloop
   endfacet
   facet normal -1.749112e-001 9.598987e-001 -2.190906e-001
      outer loop
         vertex -5.000000e+000 3.462276e-001 -2.282546e+000
         vertex -3.000000e+000 6.729336e-001 -2.418265e+000
         vertex -5.000000e+000 3.196955e-001 -2.398790e+000
      endloop
   endfacet
   facet normal -1.740677e-001 9.334430e-001 -3.136632e-001
      outer loop
         vertex -3.000000e+000 6.729336e-001 -2.418265e+000
         vertex -3.000000e+000 6.479719e-001 -2.527629e+000
         vertex -5.000000e+000 3.196955e-001 -2.398790e+000
      endloop
   endfacet
   facet normal -1.740677e-001 8.976073e-001 -4.049711e-001
      outer loop
         vertex -5.000000e+000 3.196955e-001 -2.398790e+000
         vertex -3.000000e+000 6.479719e-001 -2.527629e+000
         vertex -3.000000e+000 5.918832e-001 -2.624778e+000
      endloop
   endfacet
   facet normal -1.749112e-001 8.526750e-001 -4.922921e-001
      outer loop
         vertex -5.000000e+000 3.196955e-001 -2.398790e+000
         vertex -3.000000e+000 5.918832e-001 -2.624778e+000
         vertex -5.000000e+000 2.600786e-001 -2.502050e+000
      endloop
   endfacet
   facet normal -1.740677e-001 7.995189e-001 -5.748652e-001
      outer loop
         vertex -3.000000e+000 5.918832e-001 -2.624778e+000
         vertex -3.000000e+000 5.357946e-001 -2.721926e+000
         vertex -5.000000e+000 2.600786e-001 -2.502050e+000
      endloop
   endfacet
   facet normal -1.740677e-001 7.383618e-001 -6.515538e-001
      outer loop
         vertex -5.000000e+000 2.600786e-001 -2.502050e+000
         vertex -3.000000e+000 5.357946e-001 -2.721926e+000
         vertex -3.000000e+000 4.535629e-001 -2.798226e+000
      endloop
   endfacet
   facet normal -1.749112e-001 6.696873e-001 -7.217513e-001
      outer loop
         vertex -5.000000e+000 2.600786e-001 -2.502050e+000
         vertex -3.000000e+000 4.535629e-001 -2.798226e+000
         vertex -5.000000e+000 1.726741e-001 -2.583149e+000
      endloop
   endfacet
   facet normal -1.740677e-001 5.945540e-001 -7.849879e-001
      outer loop
         vertex -3.000000e+000 4.535629e-001 -2.798226e+000
         vertex -3.000000e+000 3.713311e-001 -2.874526e+000
         vertex -5.000000e+000 1.726741e-001 -2.583149e+000
      endloop
   endfacet
   facet normal -1.740677e-001 5.135096e-001 -8.402430e-001
      outer loop
         vertex -5.000000e+000 1.726741e-001 -2.583149e+000
         vertex -3.000000e+000 3.713311e-001 -2.874526e+000
         vertex -3.000000e+000 2.702629e-001 -2.923198e+000
      endloop
   endfacet
   facet normal -1.749112e-001 4.271951e-001 -8.870797e-001
      outer loop
         vertex -5.000000e+000 1.726741e-001 -2.583149e+000
         vertex -3.000000e+000 2.702629e-001 -2.923198e+000
         vertex -5.000000e+000 6.524811e-002 -2.634883e+000
      endloop
   endfacet
   facet normal -1.740677e-001 3.367604e-001 -9.253609e-001
      outer loop
         vertex -3.000000e+000 2.702629e-001 -2.923198e+000
         vertex -3.000000e+000 1.691947e-001 -2.971870e+000
         vertex -5.000000e+000 6.524811e-002 -2.634883e+000
      endloop
   endfacet
   facet normal -1.740677e-001 2.430298e-001 -9.542730e-001
      outer loop
         vertex -5.000000e+000 6.524811e-002 -2.634883e+000
         vertex -3.000000e+000 1.691947e-001 -2.971870e+000
         vertex -3.000000e+000 5.827036e-002 -2.988589e+000
      endloop
   endfacet
   facet normal -1.749112e-001 1.467447e-001 -9.735872e-001
      outer loop
         vertex -5.000000e+000 6.524811e-002 -2.634883e+000
         vertex -3.000000e+000 5.827036e-002 -2.988589e+000
         vertex -5.000000e+000 -5.265396e-002 -2.652654e+000
      endloop
   endfacet
   facet normal -1.740677e-001 4.904420e-002 -9.835116e-001
      outer loop
         vertex -5.000000e+000 -5.265396e-002 -2.652654e+000
         vertex -3.000000e+000 5.827036e-002 -2.988589e+000
         vertex -3.000000e+000 -5.265396e-002 -3.005308e+000
      endloop
   endfacet
   facet normal -1.740677e-001 -4.904420e-002 -9.835116e-001
      outer loop
         vertex -5.000000e+000 -5.265396e-002 -2.652654e+000
         vertex -3.000000e+000 -5.265396e-002 -3.005308e+000
         vertex -3.000000e+000 -1.635783e-001 -2.988589e+000
      endloop
   endfacet
   facet normal -1.000000e+000 0.000000e+000 2.823702e-016
      outer loop
         vertex -5.000000e+000 -4.515355e-001 -2.282546e+000
         vertex -5.000000e+000 -4.426251e-001 -2.163646e+000
         vertex -5.000000e+000 -4.250035e-001 -2.398790e+000
      endloop
   endfacet
   facet normal -1.000000e+000 0.000000e+000 2.823702e-016
      outer loop
         vertex -5.000000e+000 -4.250035e-001 -2.398790e+000
         vertex -5.000000e+000 -4.426251e-001 -2.163646e+000
         vertex -5.000000e+000 -3.990641e-001 -2.052654e+000
      endloop
   endfacet
   facet normal -1.000000e+000 0.000000e+000 2.823702e-016
      outer loop
         vertex -5.000000e+000 -4.250035e-001 -2.398790e+000
         vertex -5.000000e+000 -3.990641e-001 -2.052654e+000
         vertex -5.000000e+000 -3.653866e-001 -2.502050e+000
      endloop
   endfacet
   facet normal -1.000000e+000 0.000000e+000 2.823702e-016
      outer loop
         vertex -5.000000e+000 -3.653866e-001 -2.502050e+000
         vertex -5.000000e+000 -3.990641e-001 -2.052654e+000
         vertex -5.000000e+000 -3.247231e-001 -1.959433e+000
      endloop
   endfacet
   facet normal -1.000000e+000 0.000000e+000 2.823702e-016
      outer loop
         vertex -5.000000e+000 -3.653866e-001 -2.502050e+000
         vertex -5.000000e+000 -3.247231e-001 -1.959433e+000
         vertex -5.000000e+000 -2.779820e-001 -2.583149e+000
      endloop
   endfacet
   facet normal -1.000000e+000 0.000000e+000 2.823702e-016
      outer loop
         vertex -5.000000e+000 -2.779820e-001 -2.583149e+000
         vertex -5.000000e+000 -3.247231e-001 -1.959433e+000
         vertex -5.000000e+000 -2.262075e-001 -1.892266e+000
      endloop
   endfacet
   facet normal -1.000000e+000 0.000000e+000 2.823702e-016
      outer loop
         vertex -5.000000e+000 -2.779820e-001 -2.583149e+000
         vertex -5.000000e+000 -2.262075e-001 -1.892266e+000
         vertex -5.000000e+000 -1.705560e-001 -2.634883e+000
      endloop
   endfacet
   facet normal -1.000000e+000 0.000000e+000 2.823702e-016
      outer loop
         vertex -5.000000e+000 -1.705560e-001 -2.634883e+000
         vertex -5.000000e+000 -2.262075e-001 -1.892266e+000
         vertex -5.000000e+000 -1.122709e-001 -1.857122e+000
      endloop
   endfacet
   facet normal -1.000000e+000 0.000000e+000 2.823702e-016
      outer loop
         vertex -5.000000e+000 -1.705560e-001 -2.634883e+000
         vertex -5.000000e+000 -1.122709e-001 -1.857122e+000
         vertex -5.000000e+000 -5.265396e-002 -2.652654e+000
      endloop
   endfacet
   facet normal -1.000000e+000 0.000000e+000 2.823702e-016
      outer loop
         vertex -5.000000e+000 -1.122709e-001 -1.857122e+000
         vertex -5.000000e+000 -5.265396e-002 -1.852654e+000
         vertex -5.000000e+000 -5.265396e-002 -2.652654e+000
      endloop
   endfacet
   facet normal -1.000000e+000 0.000000e+000 2.823702e-016
      outer loop
         vertex -5.000000e+000 -5.265396e-002 -2.652654e+000
         vertex -5.000000e+000 -5.265396e-002 -1.852654e+000
         vertex -5.000000e+000 6.962943e-003 -1.857122e+000
      endloop
   endfacet
   facet normal -1.000000e+000 0.000000e+000 2.823702e-016
      outer loop
         vertex -5.000000e+000 -5.265396e-002 -2.652654e+000
         vertex -5.000000e+000 6.962943e-003 -1.857122e+000
         vertex -5.000000e+000 6.524811e-002 -2.634883e+000
      endloop
   endfacet
   facet normal -1.000000e+000 0.000000e+000 2.823702e-016
      outer loop
         vertex -5.000000e+000 6.524811e-002 -2.634883e+000
         vertex -5.000000e+000 6.962943e-003 -1.857122e+000
         vertex -5.000000e+000 1.208995e-001 -1.892266e+000
      endloop
   endfacet
   facet normal -1.000000e+000 0.000000e+000 2.823702e-016
      outer loop
         vertex -5.000000e+000 6.524811e-002 -2.634883e+000
         vertex -5.000000e+000 1.208995e-001 -1.892266e+000
         vertex -5.000000e+000 1.726741e-001 -2.583149e+000
      endloop
   endfacet
   facet normal -1.000000e+000 0.000000e+000 2.823702e-016
      outer loop
         vertex -5.000000e+000 1.726741e-001 -2.583149e+000
         vertex -5.000000e+000 1.208995e-001 -1.892266e+000
         vertex -5.000000e+000 2.194151e-001 -1.959433e+000
      endloop
   endfacet
   facet normal -1.000000e+000 0.000000e+000 2.823702e-016
      outer loop
         vertex -5.000000e+000 1.726741e-001 -2.583149e+000
         vertex -5.000000e+000 2.194151e-001 -1.959433e+000
         vertex -5.000000e+000 2.600786e-001 -2.502050e+000
      endloop
   endfacet
   facet normal -1.000000e+000 0.000000e+000 2.823702e-016
      outer loop
         vertex -5.000000e+000 2.600786e-001 -2.502050e+000
         vertex -5.000000e+000 2.194151e-001 -1.959433e+000
         vertex -5.000000e+000 2.937562e-001 -2.052654e+000
      endloop
   endfacet
   facet normal -1.000000e+000 0.000000e+000 2.823702e-016
      outer loop
         vertex -5.000000e+000 2.600786e-001 -2.502050e+000
         vertex -5.000000e+000 2.937562e-001 -2.052654e+000
         vertex -5.000000e+000 3.196955e-001 -2.398790e+000
      endloop
   endfacet
   facet normal -1.000000e+000 0.000000e+000 2.823702e-016
      outer loop
         vertex -5.000000e+000 3.196955e-001 -2.398790e+000
         vertex -5.000000e+000 2.937562e-001 -2.052654e+000
         vertex -5.000000e+000 3.373172e-001 -2.163646e+000
      endloop
   endfacet
   facet normal -1.000000e+000 0.000000e+000 2.823702e-016
      outer loop
         vertex -5.000000e+000 3.196955e-001 -2.398790e+000
         vertex -5.000000e+000 3.373172e-001 -2.163646e+000
         vertex -5.000000e+000 3.462276e-001 -2.282546e+000
      endloop
   endfacet
endsolid