solid 1 - Руль^Самолёт_F22-4
   facet normal 1.999600e-002 -9.998001e-001 1.834872e-019
      outer loop
         vertex -9.980107e+000 9.003978e-001 8.009922e-001
         vertex -6.000746e+000 9.799851e-001 1.198928e+000
         vertex -1.000000e+001 9.000000e-001 1.000000e+000
      endloop
   endfacet
   facet normal 1.999600e-002 -9.998001e-001 1.834872e-019
      outer loop
         vertex -1.000000e+001 9.000000e-001 1.000000e+000
         vertex -6.000746e+000 9.799851e-001 1.198928e+000
         vertex -6.020639e+000 9.795872e-001 1.397936e+000
      endloop
   endfacet
   facet normal -9.416831e-001 3.232549e-001 -9.348440e-002
      outer loop
         vertex -8.953818e+000 3.921524e+000 9.096198e-001
         vertex -9.980107e+000 9.003978e-001 8.009922e-001
         vertex -8.973711e+000 3.921126e+000 1.108628e+000
      endloop
   endfacet
   facet normal -9.416831e-001 3.232549e-001 -9.348440e-002
      outer loop
         vertex -8.973711e+000 3.921126e+000 1.108628e+000
         vertex -9.980107e+000 9.003978e-001 8.009922e-001
         vertex -1.000000e+001 9.000000e-001 1.000000e+000
      endloop
   endfacet
   facet normal -1.999600e-002 9.998001e-001 1.187796e-017
      outer loop
         vertex -7.783848e+000 3.944923e+000 1.026617e+000
         vertex -8.953818e+000 3.921524e+000 9.096198e-001
         vertex -7.803741e+000 3.944525e+000 1.225625e+000
      endloop
   endfacet
   facet normal -1.999600e-002 9.998001e-001 1.187796e-017
      outer loop
         vertex -7.803741e+000 3.944525e+000 1.225625e+000
         vertex -8.953818e+000 3.921524e+000 9.096198e-001
         vertex -8.973711e+000 3.921126e+000 1.108628e+000
      endloop
   endfacet
   facet normal 8.515589e-001 5.171311e-001 8.615569e-002
      outer loop
         vertex -6.000746e+000 9.799851e-001 1.198928e+000
         vertex -7.783848e+000 3.944923e+000 1.026617e+000
         vertex -6.020639e+000 9.795872e-001 1.397936e+000
      endloop
   endfacet
   facet normal 8.515589e-001 5.171311e-001 8.615569e-002
      outer loop
         vertex -6.020639e+000 9.795872e-001 1.397936e+000
         vertex -7.783848e+000 3.944923e+000 1.026617e+000
         vertex -7.803741e+000 3.944525e+000 1.225625e+000
      endloop
   endfacet
   facet normal 9.946413e-002 1.989283e-003 -9.950392e-001
      outer loop
         vertex -8.953818e+000 3.921524e+000 9.096198e-001
         vertex -7.783848e+000 3.944923e+000 1.026617e+000
         vertex -9.980107e+000 9.003978e-001 8.009922e-001
      endloop
   endfacet
   facet normal 9.946413e-002 1.989283e-003 -9.950392e-001
      outer loop
         vertex -9.980107e+000 9.003978e-001 8.009922e-001
         vertex -7.783848e+000 3.944923e+000 1.026617e+000
         vertex -6.000746e+000 9.799851e-001 1.198928e+000
      endloop
   endfacet
   facet normal -9.946413e-002 -1.989283e-003 9.950392e-001
      outer loop
         vertex -7.803741e+000 3.944525e+000 1.225625e+000
         vertex -8.973711e+000 3.921126e+000 1.108628e+000
         vertex -6.020639e+000 9.795872e-001 1.397936e+000
      endloop
   endfacet
   facet normal -9.946413e-002 -1.989283e-003 9.950392e-001
      outer loop
         vertex -6.020639e+000 9.795872e-001 1.397936e+000
         vertex -8.973711e+000 3.921126e+000 1.108628e+000
         vertex -1.000000e+001 9.000000e-001 1.000000e+000
      endloop
   endfacet
endsolid