solid СамолётS - Руль^СамолётS-3
   facet normal 1.304165e-017 -9.805807e-001 1.961161e-001
      outer loop
         vertex 8.000004e-002 -3.999969e-002 -3.999998e-001
         vertex 9.561439e-002 -8.771008e-003 -2.438564e-001
         vertex 6.009559e-002 -3.961691e-002 -3.980860e-001
      endloop
   endfacet
   facet normal 1.304165e-017 -9.805807e-001 1.961161e-001
      outer loop
         vertex 6.009559e-002 -3.961691e-002 -3.980860e-001
         vertex 9.561439e-002 -8.771008e-003 -2.438564e-001
         vertex 7.570992e-002 -8.388230e-003 -2.419426e-001
      endloop
   endfacet
   facet normal -9.609053e-002 -3.634152e-001 -9.266585e-001
      outer loop
         vertex 7.653849e-002 1.491930e-001 -4.738385e-001
         vertex 8.000004e-002 -3.999969e-002 -3.999998e-001
         vertex 5.663404e-002 1.495758e-001 -4.719246e-001
      endloop
   endfacet
   facet normal -9.609053e-002 -3.634152e-001 -9.266585e-001
      outer loop
         vertex 5.663404e-002 1.495758e-001 -4.719246e-001
         vertex 8.000004e-002 -3.999969e-002 -3.999998e-001
         vertex 6.009559e-002 -3.961691e-002 -3.980860e-001
      endloop
   endfacet
   facet normal -1.304165e-017 9.805807e-001 -1.961161e-001
      outer loop
         vertex 8.434575e-002 1.648075e-001 -3.957659e-001
         vertex 7.653849e-002 1.491930e-001 -4.738385e-001
         vertex 6.444129e-002 1.651903e-001 -3.938520e-001
      endloop
   endfacet
   facet normal -1.304165e-017 9.805807e-001 -1.961161e-001
      outer loop
         vertex 6.444129e-002 1.651903e-001 -3.938520e-001
         vertex 7.653849e-002 1.491930e-001 -4.738385e-001
         vertex 5.663404e-002 1.495758e-001 -4.719246e-001
      endloop
   endfacet
   facet normal 8.451542e-002 6.593212e-001 7.470962e-001
      outer loop
         vertex 9.561439e-002 -8.771008e-003 -2.438564e-001
         vertex 8.434575e-002 1.648075e-001 -3.957659e-001
         vertex 7.570992e-002 -8.388230e-003 -2.419426e-001
      endloop
   endfacet
   facet normal 8.451542e-002 6.593212e-001 7.470962e-001
      outer loop
         vertex 7.570992e-002 -8.388230e-003 -2.419426e-001
         vertex 8.434575e-002 1.648075e-001 -3.957659e-001
         vertex 6.444129e-002 1.651903e-001 -3.938520e-001
      endloop
   endfacet
   facet normal 9.952267e-001 -1.913898e-002 -9.569488e-002
      outer loop
         vertex 7.653849e-002 1.491930e-001 -4.738385e-001
         vertex 8.434575e-002 1.648075e-001 -3.957659e-001
         vertex 8.000004e-002 -3.999969e-002 -3.999998e-001
      endloop
   endfacet
   facet normal 9.952267e-001 -1.913898e-002 -9.569488e-002
      outer loop
         vertex 8.000004e-002 -3.999969e-002 -3.999998e-001
         vertex 8.434575e-002 1.648075e-001 -3.957659e-001
         vertex 9.561439e-002 -8.771008e-003 -2.438564e-001
      endloop
   endfacet
   facet normal -9.952267e-001 1.913898e-002 9.569488e-002
      outer loop
         vertex 6.444129e-002 1.651903e-001 -3.938520e-001
         vertex 5.663404e-002 1.495758e-001 -4.719246e-001
         vertex 7.570992e-002 -8.388230e-003 -2.419426e-001
      endloop
   endfacet
   facet normal -9.952267e-001 1.913898e-002 9.569488e-002
      outer loop
         vertex 7.570992e-002 -8.388230e-003 -2.419426e-001
         vertex 5.663404e-002 1.495758e-001 -4.719246e-001
         vertex 6.009559e-002 -3.961691e-002 -3.980860e-001
      endloop
   endfacet
endsolid