solid Самолёт - Руль^Самолёт-4
   facet normal -6.102760e-018 -9.805807e-001 1.961161e-001
      outer loop
         vertex 1.112261e+002 2.009579e+001 2.062269e+001
         vertex 1.073225e+002 2.790300e+001 5.965869e+001
         vertex 1.062500e+002 2.000010e+001 2.014422e+001
      endloop
   endfacet
   facet normal -6.102760e-018 -9.805807e-001 1.961161e-001
      outer loop
         vertex 1.062500e+002 2.000010e+001 2.014422e+001
         vertex 1.073225e+002 2.790300e+001 5.965869e+001
         vertex 1.023464e+002 2.780730e+001 5.918022e+001
      endloop
   endfacet
   facet normal 9.609053e-002 -3.634152e-001 -9.266585e-001
      outer loop
         vertex 1.120915e+002 6.739407e+001 2.163077e+000
         vertex 1.112261e+002 2.009579e+001 2.062269e+001
         vertex 1.071154e+002 6.729838e+001 1.684602e+000
      endloop
   endfacet
   facet normal 9.609053e-002 -3.634152e-001 -9.266585e-001
      outer loop
         vertex 1.071154e+002 6.729838e+001 1.684602e+000
         vertex 1.112261e+002 2.009579e+001 2.062269e+001
         vertex 1.062500e+002 2.000010e+001 2.014422e+001
      endloop
   endfacet
   facet normal 6.102760e-018 9.805807e-001 -1.961161e-001
      outer loop
         vertex 1.101397e+002 7.129767e+001 2.168108e+001
         vertex 1.120915e+002 6.739407e+001 2.163077e+000
         vertex 1.051636e+002 7.120197e+001 2.120260e+001
      endloop
   endfacet
   facet normal 6.102760e-018 9.805807e-001 -1.961161e-001
      outer loop
         vertex 1.051636e+002 7.120197e+001 2.120260e+001
         vertex 1.120915e+002 6.739407e+001 2.163077e+000
         vertex 1.071154e+002 6.729838e+001 1.684602e+000
      endloop
   endfacet
   facet normal -8.451542e-002 6.593212e-001 7.470962e-001
      outer loop
         vertex 1.073225e+002 2.790300e+001 5.965869e+001
         vertex 1.101397e+002 7.129767e+001 2.168108e+001
         vertex 1.023464e+002 2.780730e+001 5.918022e+001
      endloop
   endfacet
   facet normal -8.451542e-002 6.593212e-001 7.470962e-001
      outer loop
         vertex 1.023464e+002 2.780730e+001 5.918022e+001
         vertex 1.101397e+002 7.129767e+001 2.168108e+001
         vertex 1.051636e+002 7.120197e+001 2.120260e+001
      endloop
   endfacet
   facet normal 9.952267e-001 1.913898e-002 9.569488e-002
      outer loop
         vertex 1.120915e+002 6.739407e+001 2.163077e+000
         vertex 1.101397e+002 7.129767e+001 2.168108e+001
         vertex 1.112261e+002 2.009579e+001 2.062269e+001
      endloop
   endfacet
   facet normal 9.952267e-001 1.913898e-002 9.569488e-002
      outer loop
         vertex 1.112261e+002 2.009579e+001 2.062269e+001
         vertex 1.101397e+002 7.129767e+001 2.168108e+001
         vertex 1.073225e+002 2.790300e+001 5.965869e+001
      endloop
   endfacet
   facet normal -9.952267e-001 -1.913898e-002 -9.569488e-002
      outer loop
         vertex 1.051636e+002 7.120197e+001 2.120260e+001
         vertex 1.071154e+002 6.729838e+001 1.684602e+000
         vertex 1.023464e+002 2.780730e+001 5.918022e+001
      endloop
   endfacet
   facet normal -9.952267e-001 -1.913898e-002 -9.569488e-002
      outer loop
         vertex 1.023464e+002 2.780730e+001 5.918022e+001
         vertex 1.071154e+002 6.729838e+001 1.684602e+000
         vertex 1.062500e+002 2.000010e+001 2.014422e+001
      endloop
   endfacet
endsolid