solid Самолёт - Консоль крыла^Самолёт-1
   facet normal -1.000000e+000 0.000000e+000 0.000000e+000
      outer loop
         vertex 1.512500e+002 2.500010e+001 7.014421e+001
         vertex 1.512500e+002 2.500010e+001 1.701442e+002
         vertex 1.512500e+002 3.000010e+001 7.014421e+001
      endloop
   endfacet
   facet normal -1.000000e+000 0.000000e+000 0.000000e+000
      outer loop
         vertex 1.512500e+002 3.000010e+001 7.014421e+001
         vertex 1.512500e+002 2.500010e+001 1.701442e+002
         vertex 1.512500e+002 3.000010e+001 1.701442e+002
      endloop
   endfacet
   facet normal -2.325449e-001 0.000000e+000 -9.725857e-001
      outer loop
         vertex 2.512500e+002 2.500010e+001 4.623425e+001
         vertex 1.512500e+002 2.500010e+001 7.014421e+001
         vertex 2.512500e+002 3.000010e+001 4.623425e+001
      endloop
   endfacet
   facet normal -2.325449e-001 0.000000e+000 -9.725857e-001
      outer loop
         vertex 2.512500e+002 3.000010e+001 4.623425e+001
         vertex 1.512500e+002 2.500010e+001 7.014421e+001
         vertex 1.512500e+002 3.000010e+001 7.014421e+001
      endloop
   endfacet
   facet normal 1.000000e+000 0.000000e+000 -3.469447e-016
      outer loop
         vertex 2.512500e+002 2.500010e+001 8.623425e+001
         vertex 2.512500e+002 2.500010e+001 4.623425e+001
         vertex 2.512500e+002 3.000010e+001 8.623425e+001
      endloop
   endfacet
   facet normal 1.000000e+000 0.000000e+000 -3.469447e-016
      outer loop
         vertex 2.512500e+002 3.000010e+001 8.623425e+001
         vertex 2.512500e+002 2.500010e+001 4.623425e+001
         vertex 2.512500e+002 3.000010e+001 4.623425e+001
      endloop
   endfacet
   facet normal 6.427876e-001 0.000000e+000 7.660444e-001
      outer loop
         vertex 1.512500e+002 2.500010e+001 1.701442e+002
         vertex 2.512500e+002 2.500010e+001 8.623425e+001
         vertex 1.512500e+002 3.000010e+001 1.701442e+002
      endloop
   endfacet
   facet normal 6.427876e-001 0.000000e+000 7.660444e-001
      outer loop
         vertex 1.512500e+002 3.000010e+001 1.701442e+002
         vertex 2.512500e+002 2.500010e+001 8.623425e+001
         vertex 2.512500e+002 3.000010e+001 8.623425e+001
      endloop
   endfacet
   facet normal 0.000000e+000 -1.000000e+000 0.000000e+000
      outer loop
         vertex 2.512500e+002 2.500010e+001 4.623425e+001
         vertex 2.512500e+002 2.500010e+001 8.623425e+001
         vertex 1.512500e+002 2.500010e+001 7.014421e+001
      endloop
   endfacet
   facet normal 0.000000e+000 -1.000000e+000 0.000000e+000
      outer loop
         vertex 1.512500e+002 2.500010e+001 7.014421e+001
         vertex 2.512500e+002 2.500010e+001 8.623425e+001
         vertex 1.512500e+002 2.500010e+001 1.701442e+002
      endloop
   endfacet
   facet normal 0.000000e+000 1.000000e+000 0.000000e+000
      outer loop
         vertex 2.512500e+002 3.000010e+001 8.623425e+001
         vertex 2.512500e+002 3.000010e+001 4.623425e+001
         vertex 1.512500e+002 3.000010e+001 1.701442e+002
      endloop
   endfacet
   facet normal 0.000000e+000 1.000000e+000 0.000000e+000
      outer loop
         vertex 1.512500e+002 3.000010e+001 1.701442e+002
         vertex 2.512500e+002 3.000010e+001 4.623425e+001
         vertex 1.512500e+002 3.000010e+001 7.014421e+001
      endloop
   endfacet
endsolid