solid СамолётS - Консоль крыла^СамолётS-1
   facet normal -1.000000e+000 0.000000e+000 0.000000e+000
      outer loop
         vertex 9.999934e-002 -2.000002e-002 -2.000034e-001
         vertex 9.999934e-002 -2.000002e-002 2.000034e-001
         vertex 9.999934e-002 -1.008064e-007 -2.000034e-001
      endloop
   endfacet
   facet normal -1.000000e+000 0.000000e+000 0.000000e+000
      outer loop
         vertex 9.999934e-002 -1.008064e-007 -2.000034e-001
         vertex 9.999934e-002 -2.000002e-002 2.000034e-001
         vertex 9.999934e-002 -1.008064e-007 2.000034e-001
      endloop
   endfacet
   facet normal -2.325449e-001 0.000000e+000 -9.725857e-001
      outer loop
         vertex 4.999986e-001 -2.000002e-002 -2.956390e-001
         vertex 9.999934e-002 -2.000002e-002 -2.000034e-001
         vertex 4.999986e-001 -1.008064e-007 -2.956390e-001
      endloop
   endfacet
   facet normal -2.325449e-001 0.000000e+000 -9.725857e-001
      outer loop
         vertex 4.999986e-001 -1.008064e-007 -2.956390e-001
         vertex 9.999934e-002 -2.000002e-002 -2.000034e-001
         vertex 9.999934e-002 -1.008064e-007 -2.000034e-001
      endloop
   endfacet
   facet normal 1.000000e+000 0.000000e+000 -3.469447e-016
      outer loop
         vertex 4.999986e-001 -2.000002e-002 -1.356378e-001
         vertex 4.999986e-001 -2.000002e-002 -2.956390e-001
         vertex 4.999986e-001 -1.008064e-007 -1.356378e-001
      endloop
   endfacet
   facet normal 1.000000e+000 0.000000e+000 -3.469447e-016
      outer loop
         vertex 4.999986e-001 -1.008064e-007 -1.356378e-001
         vertex 4.999986e-001 -2.000002e-002 -2.956390e-001
         vertex 4.999986e-001 -1.008064e-007 -2.956390e-001
      endloop
   endfacet
   facet normal 6.427876e-001 0.000000e+000 7.660444e-001
      outer loop
         vertex 9.999934e-002 -2.000002e-002 2.000034e-001
         vertex 4.999986e-001 -2.000002e-002 -1.356378e-001
         vertex 9.999934e-002 -1.008064e-007 2.000034e-001
      endloop
   endfacet
   facet normal 6.427876e-001 0.000000e+000 7.660444e-001
      outer loop
         vertex 9.999934e-002 -1.008064e-007 2.000034e-001
         vertex 4.999986e-001 -2.000002e-002 -1.356378e-001
         vertex 4.999986e-001 -1.008064e-007 -1.356378e-001
      endloop
   endfacet
   facet normal 0.000000e+000 -1.000000e+000 0.000000e+000
      outer loop
         vertex 4.999986e-001 -2.000002e-002 -2.956390e-001
         vertex 4.999986e-001 -2.000002e-002 -1.356378e-001
         vertex 9.999934e-002 -2.000002e-002 -2.000034e-001
      endloop
   endfacet
   facet normal 0.000000e+000 -1.000000e+000 0.000000e+000
      outer loop
         vertex 9.999934e-002 -2.000002e-002 -2.000034e-001
         vertex 4.999986e-001 -2.000002e-002 -1.356378e-001
         vertex 9.999934e-002 -2.000002e-002 2.000034e-001
      endloop
   endfacet
   facet normal 0.000000e+000 1.000000e+000 0.000000e+000
      outer loop
         vertex 4.999986e-001 -1.008064e-007 -1.356378e-001
         vertex 4.999986e-001 -1.008064e-007 -2.956390e-001
         vertex 9.999934e-002 -1.008064e-007 2.000034e-001
      endloop
   endfacet
   facet normal 0.000000e+000 1.000000e+000 0.000000e+000
      outer loop
         vertex 9.999934e-002 -1.008064e-007 2.000034e-001
         vertex 4.999986e-001 -1.008064e-007 -2.956390e-001
         vertex 9.999934e-002 -1.008064e-007 -2.000034e-001
      endloop
   endfacet
endsolid