solid Самолёт - Консоль крыла^Самолёт-2
   facet normal 1.000000e+000 7.590375e-017 5.551115e-017
      outer loop
         vertex 1.012500e+002 3.000010e+001 7.014421e+001
         vertex 1.012500e+002 3.000010e+001 1.701442e+002
         vertex 1.012500e+002 2.500010e+001 7.014421e+001
      endloop
   endfacet
   facet normal 1.000000e+000 7.590375e-017 5.551115e-017
      outer loop
         vertex 1.012500e+002 2.500010e+001 7.014421e+001
         vertex 1.012500e+002 3.000010e+001 1.701442e+002
         vertex 1.012500e+002 2.500010e+001 1.701442e+002
      endloop
   endfacet
   facet normal 2.325449e-001 3.962886e-017 -9.725857e-001
      outer loop
         vertex 1.249997e+000 3.000010e+001 4.623425e+001
         vertex 1.012500e+002 3.000010e+001 7.014421e+001
         vertex 1.249997e+000 2.500010e+001 4.623425e+001
      endloop
   endfacet
   facet normal 2.325449e-001 3.962886e-017 -9.725857e-001
      outer loop
         vertex 1.249997e+000 2.500010e+001 4.623425e+001
         vertex 1.012500e+002 3.000010e+001 7.014421e+001
         vertex 1.012500e+002 2.500010e+001 7.014421e+001
      endloop
   endfacet
   facet normal -1.000000e+000 -7.590375e-017 -4.024558e-016
      outer loop
         vertex 1.249997e+000 3.000010e+001 8.623425e+001
         vertex 1.249997e+000 3.000010e+001 4.623425e+001
         vertex 1.249997e+000 2.500010e+001 8.623425e+001
      endloop
   endfacet
   facet normal -1.000000e+000 -7.590375e-017 -4.024558e-016
      outer loop
         vertex 1.249997e+000 2.500010e+001 8.623425e+001
         vertex 1.249997e+000 3.000010e+001 4.623425e+001
         vertex 1.249997e+000 2.500010e+001 4.623425e+001
      endloop
   endfacet
   facet normal -6.427876e-001 -6.610055e-017 7.660444e-001
      outer loop
         vertex 1.012500e+002 3.000010e+001 1.701442e+002
         vertex 1.249997e+000 3.000010e+001 8.623425e+001
         vertex 1.012500e+002 2.500010e+001 1.701442e+002
      endloop
   endfacet
   facet normal -6.427876e-001 -6.610055e-017 7.660444e-001
      outer loop
         vertex 1.012500e+002 2.500010e+001 1.701442e+002
         vertex 1.249997e+000 3.000010e+001 8.623425e+001
         vertex 1.249997e+000 2.500010e+001 8.623425e+001
      endloop
   endfacet
   facet normal -7.590375e-017 1.000000e+000 2.259733e-017
      outer loop
         vertex 1.249997e+000 3.000010e+001 4.623425e+001
         vertex 1.249997e+000 3.000010e+001 8.623425e+001
         vertex 1.012500e+002 3.000010e+001 7.014421e+001
      endloop
   endfacet
   facet normal -7.590375e-017 1.000000e+000 2.259733e-017
      outer loop
         vertex 1.012500e+002 3.000010e+001 7.014421e+001
         vertex 1.249997e+000 3.000010e+001 8.623425e+001
         vertex 1.012500e+002 3.000010e+001 1.701442e+002
      endloop
   endfacet
   facet normal 7.590375e-017 -1.000000e+000 -2.259733e-017
      outer loop
         vertex 1.249997e+000 2.500010e+001 8.623425e+001
         vertex 1.249997e+000 2.500010e+001 4.623425e+001
         vertex 1.012500e+002 2.500010e+001 1.701442e+002
      endloop
   endfacet
   facet normal 7.590375e-017 -1.000000e+000 -2.259733e-017
      outer loop
         vertex 1.012500e+002 2.500010e+001 1.701442e+002
         vertex 1.249997e+000 2.500010e+001 4.623425e+001
         vertex 1.012500e+002 2.500010e+001 7.014421e+001
      endloop
   endfacet
endsolid