solid СамолётS - Консоль крыла^СамолётS-2
   facet normal 1.000000e+000 7.590375e-017 5.551115e-017
      outer loop
         vertex -9.999934e-002 2.026558e-008 -2.000034e-001
         vertex -9.999934e-002 2.026558e-008 2.000034e-001
         vertex -9.999934e-002 -1.999990e-002 -2.000034e-001
      endloop
   endfacet
   facet normal 1.000000e+000 7.590375e-017 5.551115e-017
      outer loop
         vertex -9.999934e-002 -1.999990e-002 -2.000034e-001
         vertex -9.999934e-002 2.026558e-008 2.000034e-001
         vertex -9.999934e-002 -1.999990e-002 2.000034e-001
      endloop
   endfacet
   facet normal 2.325449e-001 3.962886e-017 -9.725857e-001
      outer loop
         vertex -4.999986e-001 2.026558e-008 -2.956390e-001
         vertex -9.999934e-002 2.026558e-008 -2.000034e-001
         vertex -4.999986e-001 -1.999990e-002 -2.956390e-001
      endloop
   endfacet
   facet normal 2.325449e-001 3.962886e-017 -9.725857e-001
      outer loop
         vertex -4.999986e-001 -1.999990e-002 -2.956390e-001
         vertex -9.999934e-002 2.026558e-008 -2.000034e-001
         vertex -9.999934e-002 -1.999990e-002 -2.000034e-001
      endloop
   endfacet
   facet normal -1.000000e+000 -7.590375e-017 -4.024558e-016
      outer loop
         vertex -4.999986e-001 2.026558e-008 -1.356378e-001
         vertex -4.999986e-001 2.026558e-008 -2.956390e-001
         vertex -4.999986e-001 -1.999990e-002 -1.356378e-001
      endloop
   endfacet
   facet normal -1.000000e+000 -7.590375e-017 -4.024558e-016
      outer loop
         vertex -4.999986e-001 -1.999990e-002 -1.356378e-001
         vertex -4.999986e-001 2.026558e-008 -2.956390e-001
         vertex -4.999986e-001 -1.999990e-002 -2.956390e-001
      endloop
   endfacet
   facet normal -6.427876e-001 -6.610055e-017 7.660444e-001
      outer loop
         vertex -9.999934e-002 2.026558e-008 2.000034e-001
         vertex -4.999986e-001 2.026558e-008 -1.356378e-001
         vertex -9.999934e-002 -1.999990e-002 2.000034e-001
      endloop
   endfacet
   facet normal -6.427876e-001 -6.610055e-017 7.660444e-001
      outer loop
         vertex -9.999934e-002 -1.999990e-002 2.000034e-001
         vertex -4.999986e-001 2.026558e-008 -1.356378e-001
         vertex -4.999986e-001 -1.999990e-002 -1.356378e-001
      endloop
   endfacet
   facet normal -7.590375e-017 1.000000e+000 2.259733e-017
      outer loop
         vertex -4.999986e-001 2.026558e-008 -2.956390e-001
         vertex -4.999986e-001 2.026558e-008 -1.356378e-001
         vertex -9.999934e-002 2.026558e-008 -2.000034e-001
      endloop
   endfacet
   facet normal -7.590375e-017 1.000000e+000 2.259733e-017
      outer loop
         vertex -9.999934e-002 2.026558e-008 -2.000034e-001
         vertex -4.999986e-001 2.026558e-008 -1.356378e-001
         vertex -9.999934e-002 2.026558e-008 2.000034e-001
      endloop
   endfacet
   facet normal 7.590375e-017 -1.000000e+000 -2.259733e-017
      outer loop
         vertex -4.999986e-001 -1.999990e-002 -1.356378e-001
         vertex -4.999986e-001 -1.999990e-002 -2.956390e-001
         vertex -9.999934e-002 -1.999990e-002 2.000034e-001
      endloop
   endfacet
   facet normal 7.590375e-017 -1.000000e+000 -2.259733e-017
      outer loop
         vertex -9.999934e-002 -1.999990e-002 2.000034e-001
         vertex -4.999986e-001 -1.999990e-002 -2.956390e-001
         vertex -9.999934e-002 -1.999990e-002 -2.000034e-001
      endloop
   endfacet
endsolid