solid 1 - Руль^Самолёт_F22-1
   facet normal 9.950372e-002 1.472993e-016 9.950372e-001
      outer loop
         vertex -1.000000e+001 7.000000e-001 -1.000000e+000
         vertex -6.019851e+000 7.000000e-001 -1.398015e+000
         vertex -1.000000e+001 9.000000e-001 -1.000000e+000
      endloop
   endfacet
   facet normal 9.950372e-002 1.472993e-016 9.950372e-001
      outer loop
         vertex -1.000000e+001 9.000000e-001 -1.000000e+000
         vertex -6.019851e+000 7.000000e-001 -1.398015e+000
         vertex -6.019851e+000 9.000000e-001 -1.398015e+000
      endloop
   endfacet
   facet normal -9.690614e-001 -5.041330e-017 -2.468198e-001
      outer loop
         vertex -9.212020e+000 7.000000e-001 -4.093761e+000
         vertex -1.000000e+001 7.000000e-001 -1.000000e+000
         vertex -9.212020e+000 9.000000e-001 -4.093761e+000
      endloop
   endfacet
   facet normal -9.690614e-001 -5.041330e-017 -2.468198e-001
      outer loop
         vertex -9.212020e+000 9.000000e-001 -4.093761e+000
         vertex -1.000000e+001 7.000000e-001 -1.000000e+000
         vertex -1.000000e+001 9.000000e-001 -1.000000e+000
      endloop
   endfacet
   facet normal -9.950372e-002 -1.472993e-016 -9.950372e-001
      outer loop
         vertex -8.041818e+000 7.000000e-001 -4.210781e+000
         vertex -9.212020e+000 7.000000e-001 -4.093761e+000
         vertex -8.041818e+000 9.000000e-001 -4.210781e+000
      endloop
   endfacet
   facet normal -9.950372e-002 -1.472993e-016 -9.950372e-001
      outer loop
         vertex -8.041818e+000 9.000000e-001 -4.210781e+000
         vertex -9.212020e+000 7.000000e-001 -4.093761e+000
         vertex -9.212020e+000 9.000000e-001 -4.093761e+000
      endloop
   endfacet
   facet normal 8.119756e-001 -7.361837e-017 -5.836914e-001
      outer loop
         vertex -6.019851e+000 7.000000e-001 -1.398015e+000
         vertex -8.041818e+000 7.000000e-001 -4.210781e+000
         vertex -6.019851e+000 9.000000e-001 -1.398015e+000
      endloop
   endfacet
   facet normal 8.119756e-001 -7.361837e-017 -5.836914e-001
      outer loop
         vertex -6.019851e+000 9.000000e-001 -1.398015e+000
         vertex -8.041818e+000 7.000000e-001 -4.210781e+000
         vertex -8.041818e+000 9.000000e-001 -4.210781e+000
      endloop
   endfacet
   facet normal 1.469279e-017 -1.000000e+000 1.465647e-016
      outer loop
         vertex -9.212020e+000 7.000000e-001 -4.093761e+000
         vertex -8.041818e+000 7.000000e-001 -4.210781e+000
         vertex -1.000000e+001 7.000000e-001 -1.000000e+000
      endloop
   endfacet
   facet normal 1.469279e-017 -1.000000e+000 1.465647e-016
      outer loop
         vertex -1.000000e+001 7.000000e-001 -1.000000e+000
         vertex -8.041818e+000 7.000000e-001 -4.210781e+000
         vertex -6.019851e+000 7.000000e-001 -1.398015e+000
      endloop
   endfacet
   facet normal -1.469279e-017 1.000000e+000 -1.465647e-016
      outer loop
         vertex -8.041818e+000 9.000000e-001 -4.210781e+000
         vertex -9.212020e+000 9.000000e-001 -4.093761e+000
         vertex -6.019851e+000 9.000000e-001 -1.398015e+000
      endloop
   endfacet
   facet normal -1.469279e-017 1.000000e+000 -1.465647e-016
      outer loop
         vertex -6.019851e+000 9.000000e-001 -1.398015e+000
         vertex -9.212020e+000 9.000000e-001 -4.093761e+000
         vertex -1.000000e+001 9.000000e-001 -1.000000e+000
      endloop
   endfacet
endsolid