solid Самолёт - Руль^Самолёт-1
   facet normal -9.950372e-001 1.150743e-016 9.950372e-002
      outer loop
         vertex 1.462500e+002 1.500010e+001 2.014422e+001
         vertex 1.502301e+002 1.500010e+001 5.994570e+001
         vertex 1.462500e+002 2.000010e+001 2.014422e+001
      endloop
   endfacet
   facet normal -9.950372e-001 1.150743e-016 9.950372e-002
      outer loop
         vertex 1.462500e+002 2.000010e+001 2.014422e+001
         vertex 1.502301e+002 1.500010e+001 5.994570e+001
         vertex 1.502301e+002 2.000010e+001 5.994570e+001
      endloop
   endfacet
   facet normal -2.717335e-001 3.148201e-017 -9.623725e-001
      outer loop
         vertex 1.951195e+002 1.500010e+001 6.345524e+000
         vertex 1.462500e+002 1.500010e+001 2.014422e+001
         vertex 1.951195e+002 2.000010e+001 6.345524e+000
      endloop
   endfacet
   facet normal -2.717335e-001 3.148201e-017 -9.623725e-001
      outer loop
         vertex 1.951195e+002 2.000010e+001 6.345524e+000
         vertex 1.462500e+002 1.500010e+001 2.014422e+001
         vertex 1.462500e+002 2.000010e+001 2.014422e+001
      endloop
   endfacet
   facet normal 9.950372e-001 -1.150743e-016 -9.950372e-002
      outer loop
         vertex 1.971096e+002 1.500010e+001 2.624627e+001
         vertex 1.951195e+002 1.500010e+001 6.345524e+000
         vertex 1.971096e+002 2.000010e+001 2.624627e+001
      endloop
   endfacet
   facet normal 9.950372e-001 -1.150743e-016 -9.950372e-002
      outer loop
         vertex 1.971096e+002 2.000010e+001 2.624627e+001
         vertex 1.951195e+002 1.500010e+001 6.345524e+000
         vertex 1.951195e+002 2.000010e+001 6.345524e+000
      endloop
   endfacet
   facet normal 5.836914e-001 -6.755258e-017 8.119756e-001
      outer loop
         vertex 1.502301e+002 1.500010e+001 5.994570e+001
         vertex 1.971096e+002 1.500010e+001 2.624627e+001
         vertex 1.502301e+002 2.000010e+001 5.994570e+001
      endloop
   endfacet
   facet normal 5.836914e-001 -6.755258e-017 8.119756e-001
      outer loop
         vertex 1.502301e+002 2.000010e+001 5.994570e+001
         vertex 1.971096e+002 1.500010e+001 2.624627e+001
         vertex 1.971096e+002 2.000010e+001 2.624627e+001
      endloop
   endfacet
   facet normal -1.156539e-016 -1.000000e+000 -5.710918e-020
      outer loop
         vertex 1.951195e+002 1.500010e+001 6.345524e+000
         vertex 1.971096e+002 1.500010e+001 2.624627e+001
         vertex 1.462500e+002 1.500010e+001 2.014422e+001
      endloop
   endfacet
   facet normal -1.156539e-016 -1.000000e+000 -5.710918e-020
      outer loop
         vertex 1.462500e+002 1.500010e+001 2.014422e+001
         vertex 1.971096e+002 1.500010e+001 2.624627e+001
         vertex 1.502301e+002 1.500010e+001 5.994570e+001
      endloop
   endfacet
   facet normal 1.156539e-016 1.000000e+000 5.710918e-020
      outer loop
         vertex 1.971096e+002 2.000010e+001 2.624627e+001
         vertex 1.951195e+002 2.000010e+001 6.345524e+000
         vertex 1.502301e+002 2.000010e+001 5.994570e+001
      endloop
   endfacet
   facet normal 1.156539e-016 1.000000e+000 5.710918e-020
      outer loop
         vertex 1.502301e+002 2.000010e+001 5.994570e+001
         vertex 1.951195e+002 2.000010e+001 6.345524e+000
         vertex 1.462500e+002 2.000010e+001 2.014422e+001
      endloop
   endfacet
endsolid