solid Самолёт - Руль^Самолёт-2
   facet normal 9.950372e-001 -1.092876e-016 9.950372e-002
      outer loop
         vertex 1.062500e+002 2.000010e+001 2.014422e+001
         vertex 1.022699e+002 2.000010e+001 5.994570e+001
         vertex 1.062500e+002 1.500010e+001 2.014422e+001
      endloop
   endfacet
   facet normal 9.950372e-001 -1.092876e-016 9.950372e-002
      outer loop
         vertex 1.062500e+002 1.500010e+001 2.014422e+001
         vertex 1.022699e+002 2.000010e+001 5.994570e+001
         vertex 1.022699e+002 1.500010e+001 5.994570e+001
      endloop
   endfacet
   facet normal 2.717335e-001 1.107289e-016 -9.623725e-001
      outer loop
         vertex 5.738049e+001 2.000010e+001 6.345524e+000
         vertex 1.062500e+002 2.000010e+001 2.014422e+001
         vertex 5.738049e+001 1.500010e+001 6.345524e+000
      endloop
   endfacet
   facet normal 2.717335e-001 1.107289e-016 -9.623725e-001
      outer loop
         vertex 5.738049e+001 1.500010e+001 6.345524e+000
         vertex 1.062500e+002 2.000010e+001 2.014422e+001
         vertex 1.062500e+002 1.500010e+001 2.014422e+001
      endloop
   endfacet
   facet normal -9.950372e-001 1.092876e-016 -9.950372e-002
      outer loop
         vertex 5.539042e+001 2.000010e+001 2.624627e+001
         vertex 5.738049e+001 2.000010e+001 6.345524e+000
         vertex 5.539042e+001 1.500010e+001 2.624627e+001
      endloop
   endfacet
   facet normal -9.950372e-001 1.092876e-016 -9.950372e-002
      outer loop
         vertex 5.539042e+001 1.500010e+001 2.624627e+001
         vertex 5.738049e+001 2.000010e+001 6.345524e+000
         vertex 5.738049e+001 1.500010e+001 6.345524e+000
      endloop
   endfacet
   facet normal -5.836914e-001 -5.953212e-017 8.119756e-001
      outer loop
         vertex 1.022699e+002 2.000010e+001 5.994570e+001
         vertex 5.539042e+001 2.000010e+001 2.624627e+001
         vertex 1.022699e+002 1.500010e+001 5.994570e+001
      endloop
   endfacet
   facet normal -5.836914e-001 -5.953212e-017 8.119756e-001
      outer loop
         vertex 1.022699e+002 1.500010e+001 5.994570e+001
         vertex 5.539042e+001 2.000010e+001 2.624627e+001
         vertex 5.539042e+001 1.500010e+001 2.624627e+001
      endloop
   endfacet
   facet normal 9.527967e-017 1.000000e+000 1.457168e-016
      outer loop
         vertex 5.738049e+001 2.000010e+001 6.345524e+000
         vertex 5.539042e+001 2.000010e+001 2.624627e+001
         vertex 1.062500e+002 2.000010e+001 2.014422e+001
      endloop
   endfacet
   facet normal 9.527967e-017 1.000000e+000 1.457168e-016
      outer loop
         vertex 1.062500e+002 2.000010e+001 2.014422e+001
         vertex 5.539042e+001 2.000010e+001 2.624627e+001
         vertex 1.022699e+002 2.000010e+001 5.994570e+001
      endloop
   endfacet
   facet normal -9.527967e-017 -1.000000e+000 -1.457168e-016
      outer loop
         vertex 5.539042e+001 1.500010e+001 2.624627e+001
         vertex 5.738049e+001 1.500010e+001 6.345524e+000
         vertex 1.022699e+002 1.500010e+001 5.994570e+001
      endloop
   endfacet
   facet normal -9.527967e-017 -1.000000e+000 -1.457168e-016
      outer loop
         vertex 1.022699e+002 1.500010e+001 5.994570e+001
         vertex 5.738049e+001 1.500010e+001 6.345524e+000
         vertex 1.062500e+002 1.500010e+001 2.014422e+001
      endloop
   endfacet
endsolid