solid СамолётS - Руль^СамолётS-1
   facet normal -9.950372e-001 1.150743e-016 9.950372e-002
      outer loop
         vertex 8.000030e-002 -6.000002e-002 -3.999998e-001
         vertex 9.592082e-002 -6.000002e-002 -2.407945e-001
         vertex 8.000030e-002 -4.000010e-002 -3.999998e-001
      endloop
   endfacet
   facet normal -9.950372e-001 1.150743e-016 9.950372e-002
      outer loop
         vertex 8.000030e-002 -4.000010e-002 -3.999998e-001
         vertex 9.592082e-002 -6.000002e-002 -2.407945e-001
         vertex 9.592082e-002 -4.000010e-002 -2.407945e-001
      endloop
   endfacet
   facet normal -2.717335e-001 3.148201e-017 -9.623725e-001
      outer loop
         vertex 2.754780e-001 -6.000002e-002 -4.551948e-001
         vertex 8.000030e-002 -6.000002e-002 -3.999998e-001
         vertex 2.754780e-001 -4.000010e-002 -4.551948e-001
      endloop
   endfacet
   facet normal -2.717335e-001 3.148201e-017 -9.623725e-001
      outer loop
         vertex 2.754780e-001 -4.000010e-002 -4.551948e-001
         vertex 8.000030e-002 -6.000002e-002 -3.999998e-001
         vertex 8.000030e-002 -4.000010e-002 -3.999998e-001
      endloop
   endfacet
   facet normal 9.950372e-001 -1.150743e-016 -9.950372e-002
      outer loop
         vertex 2.834383e-001 -6.000002e-002 -3.755912e-001
         vertex 2.754780e-001 -6.000002e-002 -4.551948e-001
         vertex 2.834383e-001 -4.000010e-002 -3.755912e-001
      endloop
   endfacet
   facet normal 9.950372e-001 -1.150743e-016 -9.950372e-002
      outer loop
         vertex 2.834383e-001 -4.000010e-002 -3.755912e-001
         vertex 2.754780e-001 -6.000002e-002 -4.551948e-001
         vertex 2.754780e-001 -4.000010e-002 -4.551948e-001
      endloop
   endfacet
   facet normal 5.836914e-001 -6.755258e-017 8.119756e-001
      outer loop
         vertex 9.592082e-002 -6.000002e-002 -2.407945e-001
         vertex 2.834383e-001 -6.000002e-002 -3.755912e-001
         vertex 9.592082e-002 -4.000010e-002 -2.407945e-001
      endloop
   endfacet
   facet normal 5.836914e-001 -6.755258e-017 8.119756e-001
      outer loop
         vertex 9.592082e-002 -4.000010e-002 -2.407945e-001
         vertex 2.834383e-001 -6.000002e-002 -3.755912e-001
         vertex 2.834383e-001 -4.000010e-002 -3.755912e-001
      endloop
   endfacet
   facet normal -1.156539e-016 -1.000000e+000 -5.710918e-020
      outer loop
         vertex 2.754780e-001 -6.000002e-002 -4.551948e-001
         vertex 2.834383e-001 -6.000002e-002 -3.755912e-001
         vertex 8.000030e-002 -6.000002e-002 -3.999998e-001
      endloop
   endfacet
   facet normal -1.156539e-016 -1.000000e+000 -5.710918e-020
      outer loop
         vertex 8.000030e-002 -6.000002e-002 -3.999998e-001
         vertex 2.834383e-001 -6.000002e-002 -3.755912e-001
         vertex 9.592082e-002 -6.000002e-002 -2.407945e-001
      endloop
   endfacet
   facet normal 1.156539e-016 1.000000e+000 5.710918e-020
      outer loop
         vertex 2.834383e-001 -4.000010e-002 -3.755912e-001
         vertex 2.754780e-001 -4.000010e-002 -4.551948e-001
         vertex 9.592082e-002 -4.000010e-002 -2.407945e-001
      endloop
   endfacet
   facet normal 1.156539e-016 1.000000e+000 5.710918e-020
      outer loop
         vertex 9.592082e-002 -4.000010e-002 -2.407945e-001
         vertex 2.754780e-001 -4.000010e-002 -4.551948e-001
         vertex 8.000030e-002 -4.000010e-002 -3.999998e-001
      endloop
   endfacet
endsolid