solid Самолёт - Фюзеляж^Самолёт-1
   facet normal 0.000000e+000 0.000000e+000 1.000000e+000
      outer loop
         vertex 1.362500e+002 1.010000e-004 2.201442e+002
         vertex 1.362500e+002 5.000101e+000 2.201442e+002
         vertex 1.162500e+002 1.010000e-004 2.201442e+002
      endloop
   endfacet
   facet normal 0.000000e+000 0.000000e+000 1.000000e+000
      outer loop
         vertex 1.162500e+002 1.010000e-004 2.201442e+002
         vertex 1.362500e+002 5.000101e+000 2.201442e+002
         vertex 1.162500e+002 5.000101e+000 2.201442e+002
      endloop
   endfacet
   facet normal 0.000000e+000 8.944272e-001 4.472136e-001
      outer loop
         vertex 1.012500e+002 3.000010e+001 1.701442e+002
         vertex 1.162500e+002 5.000101e+000 2.201442e+002
         vertex 1.512500e+002 3.000010e+001 1.701442e+002
      endloop
   endfacet
   facet normal 0.000000e+000 8.944272e-001 4.472136e-001
      outer loop
         vertex 1.512500e+002 3.000010e+001 1.701442e+002
         vertex 1.162500e+002 5.000101e+000 2.201442e+002
         vertex 1.362500e+002 5.000101e+000 2.201442e+002
      endloop
   endfacet
   facet normal -9.578263e-001 -1.107709e-016 2.873479e-001
      outer loop
         vertex 1.012500e+002 1.010000e-004 1.701442e+002
         vertex 1.162500e+002 1.010000e-004 2.201442e+002
         vertex 1.012500e+002 3.000010e+001 1.701442e+002
      endloop
   endfacet
   facet normal -9.578263e-001 -1.107709e-016 2.873479e-001
      outer loop
         vertex 1.012500e+002 3.000010e+001 1.701442e+002
         vertex 1.162500e+002 1.010000e-004 2.201442e+002
         vertex 1.162500e+002 5.000101e+000 2.201442e+002
      endloop
   endfacet
   facet normal 9.578263e-001 -1.107709e-016 2.873479e-001
      outer loop
         vertex 1.512500e+002 3.000010e+001 1.701442e+002
         vertex 1.362500e+002 5.000101e+000 2.201442e+002
         vertex 1.512500e+002 1.010000e-004 1.701442e+002
      endloop
   endfacet
   facet normal 9.578263e-001 -1.107709e-016 2.873479e-001
      outer loop
         vertex 1.512500e+002 1.010000e-004 1.701442e+002
         vertex 1.362500e+002 5.000101e+000 2.201442e+002
         vertex 1.362500e+002 1.010000e-004 2.201442e+002
      endloop
   endfacet
   facet normal 0.000000e+000 -1.000000e+000 0.000000e+000
      outer loop
         vertex 1.012500e+002 1.010000e-004 7.014421e+001
         vertex 1.512500e+002 1.010000e-004 7.014421e+001
         vertex 1.012500e+002 1.010000e-004 1.701442e+002
      endloop
   endfacet
   facet normal 0.000000e+000 -1.000000e+000 0.000000e+000
      outer loop
         vertex 1.012500e+002 1.010000e-004 1.701442e+002
         vertex 1.512500e+002 1.010000e-004 7.014421e+001
         vertex 1.512500e+002 1.010000e-004 1.701442e+002
      endloop
   endfacet
   facet normal 0.000000e+000 -1.000000e+000 0.000000e+000
      outer loop
         vertex 1.012500e+002 1.010000e-004 1.701442e+002
         vertex 1.512500e+002 1.010000e-004 1.701442e+002
         vertex 1.162500e+002 1.010000e-004 2.201442e+002
      endloop
   endfacet
   facet normal 0.000000e+000 -1.000000e+000 0.000000e+000
      outer loop
         vertex 1.162500e+002 1.010000e-004 2.201442e+002
         vertex 1.512500e+002 1.010000e-004 1.701442e+002
         vertex 1.362500e+002 1.010000e-004 2.201442e+002
      endloop
   endfacet
   facet normal 1.000000e+000 -1.156482e-016 -1.387779e-016
      outer loop
         vertex 1.512500e+002 3.000010e+001 7.014421e+001
         vertex 1.512500e+002 3.000010e+001 1.701442e+002
         vertex 1.512500e+002 1.010000e-004 7.014421e+001
      endloop
   endfacet
   facet normal 1.000000e+000 -1.156482e-016 -1.387779e-016
      outer loop
         vertex 1.512500e+002 1.010000e-004 7.014421e+001
         vertex 1.512500e+002 3.000010e+001 1.701442e+002
         vertex 1.512500e+002 1.010000e-004 1.701442e+002
      endloop
   endfacet
   facet normal 0.000000e+000 1.000000e+000 1.387779e-016
      outer loop
         vertex 1.012500e+002 3.000010e+001 7.014421e+001
         vertex 1.012500e+002 3.000010e+001 1.701442e+002
         vertex 1.512500e+002 3.000010e+001 7.014421e+001
      endloop
   endfacet
   facet normal 0.000000e+000 1.000000e+000 1.387779e-016
      outer loop
         vertex 1.512500e+002 3.000010e+001 7.014421e+001
         vertex 1.012500e+002 3.000010e+001 1.701442e+002
         vertex 1.512500e+002 3.000010e+001 1.701442e+002
      endloop
   endfacet
   facet normal -1.000000e+000 -1.156482e-016 -1.387779e-016
      outer loop
         vertex 1.012500e+002 1.010000e-004 7.014421e+001
         vertex 1.012500e+002 1.010000e-004 1.701442e+002
         vertex 1.012500e+002 3.000010e+001 7.014421e+001
      endloop
   endfacet
   facet normal -1.000000e+000 -1.156482e-016 -1.387779e-016
      outer loop
         vertex 1.012500e+002 3.000010e+001 7.014421e+001
         vertex 1.012500e+002 1.010000e-004 1.701442e+002
         vertex 1.012500e+002 3.000010e+001 1.701442e+002
      endloop
   endfacet
   facet normal 0.000000e+000 0.000000e+000 -1.000000e+000
      outer loop
         vertex 1.462500e+002 2.000010e+001 2.014421e+001
         vertex 1.462500e+002 1.500010e+001 2.014421e+001
         vertex 1.062500e+002 2.000010e+001 2.014421e+001
      endloop
   endfacet
   facet normal 0.000000e+000 0.000000e+000 -1.000000e+000
      outer loop
         vertex 1.062500e+002 2.000010e+001 2.014421e+001
         vertex 1.462500e+002 1.500010e+001 2.014421e+001
         vertex 1.062500e+002 1.500010e+001 2.014421e+001
      endloop
   endfacet
   facet normal -9.950372e-001 -1.150743e-016 -9.950371e-002
      outer loop
         vertex 1.012500e+002 3.000010e+001 7.014421e+001
         vertex 1.062500e+002 2.000010e+001 2.014421e+001
         vertex 1.012500e+002 1.010000e-004 7.014421e+001
      endloop
   endfacet
   facet normal -9.950372e-001 -1.150743e-016 -9.950371e-002
      outer loop
         vertex 1.012500e+002 1.010000e-004 7.014421e+001
         vertex 1.062500e+002 2.000010e+001 2.014421e+001
         vertex 1.062500e+002 1.500010e+001 2.014421e+001
      endloop
   endfacet
   facet normal 0.000000e+000 9.805807e-001 -1.961161e-001
      outer loop
         vertex 1.512500e+002 3.000010e+001 7.014421e+001
         vertex 1.462500e+002 2.000010e+001 2.014421e+001
         vertex 1.012500e+002 3.000010e+001 7.014421e+001
      endloop
   endfacet
   facet normal 0.000000e+000 9.805807e-001 -1.961161e-001
      outer loop
         vertex 1.012500e+002 3.000010e+001 7.014421e+001
         vertex 1.462500e+002 2.000010e+001 2.014421e+001
         vertex 1.062500e+002 2.000010e+001 2.014421e+001
      endloop
   endfacet
   facet normal 0.000000e+000 -9.578263e-001 -2.873479e-001
      outer loop
         vertex 1.012500e+002 1.010000e-004 7.014421e+001
         vertex 1.062500e+002 1.500010e+001 2.014421e+001
         vertex 1.512500e+002 1.010000e-004 7.014421e+001
      endloop
   endfacet
   facet normal 0.000000e+000 -9.578263e-001 -2.873479e-001
      outer loop
         vertex 1.512500e+002 1.010000e-004 7.014421e+001
         vertex 1.062500e+002 1.500010e+001 2.014421e+001
         vertex 1.462500e+002 1.500010e+001 2.014421e+001
      endloop
   endfacet
   facet normal 9.950372e-001 -1.150743e-016 -9.950371e-002
      outer loop
         vertex 1.512500e+002 1.010000e-004 7.014421e+001
         vertex 1.462500e+002 1.500010e+001 2.014421e+001
         vertex 1.512500e+002 3.000010e+001 7.014421e+001
      endloop
   endfacet
   facet normal 9.950372e-001 -1.150743e-016 -9.950371e-002
      outer loop
         vertex 1.512500e+002 3.000010e+001 7.014421e+001
         vertex 1.462500e+002 1.500010e+001 2.014421e+001
         vertex 1.462500e+002 2.000010e+001 2.014421e+001
      endloop
   endfacet
endsolid